<?xml version="1.0" standalone="no"?>
<!DOCTYPE svg PUBLIC "-//W3C//DTD SVG 1.1//EN" "http://www.w3.org/Graphics/SVG/1.1/DTD/svg11.dtd" >
<svg>
<metadata>
Created by FontForge 20090622 at Sun Jan 27 21:23:37 2019
 By deploy user
Copyright (c) 2013 by Glenjan. All rights reserved.
</metadata>
<defs>
<font id="LetoSans" horiz-adv-x="641" >
  <font-face 
    font-family="LetoSans Regular"
    font-weight="400"
    font-stretch="normal"
    units-per-em="1000"
    panose-1="2 0 5 3 0 0 0 0 0 0"
    ascent="723"
    descent="-277"
    x-height="510"
    cap-height="670"
    bbox="-146 -319 1112 986"
    underline-thickness="75"
    underline-position="-100"
    unicode-range="U+0020-U+2265"
  />
<missing-glyph horiz-adv-x="539" 
d="M269 323l114 113l61 -61l-113 -113l113 -114l-61 -62l-114 114l-114 -114l-61 62l114 114l-113 113l61 62z" />
    <glyph glyph-name="fk.l" unicode="fk" horiz-adv-x="1011" 
d="M126 511v48q0 42 16 77q17 37 46 63q28 26 72 43q42 15 95 15q68 0 125 -17q58 -18 105 -52v-380l95 11l155 191h124l-194 -229l221 -281h-122l-174 228h-105v-228h-97v639q-27 17 -60 24q-32 7 -70 7q-59 0 -98 -30q-37 -31 -37 -88v-42h164v-85h-164v-425h-97v425h-83
v81z" />
    <glyph glyph-name="ff.l" unicode="ff" horiz-adv-x="749" 
d="M126 511v39q0 39 14 76q14 36 42 63q26 26 68 43q41 15 94 15q50 0 92 -11q42 -12 77 -35q25 25 63 41q39 15 88 15q53 0 89 -13q42 -15 73 -38l-45 -69q-50 34 -113 34q-55 0 -82 -30q-28 -29 -28 -87v-44h164v-85h-164v-425h-97v425h-238v-425h-97v425h-83v81zM461 510
v45q0 37 11 72q-52 34 -125 34q-57 0 -91 -29q-33 -28 -33 -83v-39h238z" />
    <glyph glyph-name="fi.l" unicode="fi" horiz-adv-x="623" 
d="M126 511v47q0 41 14 80q15 38 44 64q25 26 69 44q39 16 95 16q64 0 118 -17q52 -17 99 -51l-48 -73q-42 28 -79 39q-39 14 -86 14q-57 0 -93 -30t-36 -87v-47h326v-510h-99v425h-227v-425h-97v425h-83v81z" />
    <glyph glyph-name="fj.l" unicode="fj" horiz-adv-x="623" 
d="M126 511v47q0 41 14 80q15 38 44 64q25 26 69 44q39 16 95 16q60 0 118 -16q55 -19 99 -52l-48 -73q-42 28 -79 39q-39 14 -86 14q-57 0 -93 -30t-36 -87v-47h327v-546q0 -44 -12 -81q-10 -35 -34 -64q-23 -26 -58 -42q-36 -15 -81 -15q-38 0 -73 8q-31 7 -66 25l34 78
q28 -15 49 -19q25 -5 52 -5q40 0 67 28q25 30 25 88v460h-230v-425h-97v425h-83v81z" />
    <glyph glyph-name="fl.l" unicode="fl" horiz-adv-x="658" 
d="M126 511v48q0 42 16 77q17 37 46 63q28 26 72 43q42 15 95 15q68 0 125 -17q58 -18 105 -52v-688h-97v639q-27 17 -60 23q-29 8 -70 8q-59 0 -98 -30q-37 -31 -37 -88v-42h164v-85h-164v-425h-97v425h-83v81z" />
    <glyph glyph-name="fh.l" unicode="fh" horiz-adv-x="1055" 
d="M126 511v48q0 42 16 77q17 37 46 63q28 26 72 43q42 15 95 15q68 0 125 -17q58 -18 105 -52v-269q28 51 73 77q46 26 114 26q98 0 154 -56t56 -165v-301h-97v290q0 74 -33 112q-33 36 -96 36q-60 0 -105 -39t-66 -110v-289h-97v639q-27 17 -60 24q-32 7 -70 7
q-59 0 -98 -30q-37 -31 -37 -88v-42h164v-85h-164v-425h-97v425h-83v81z" />
    <glyph glyph-name="ft.l" unicode="ft" horiz-adv-x="799" 
d="M126 511v51q0 42 16 78q14 36 44 64q31 29 72 44q41 17 97 17q123 0 208 -61l-11 -194h189v-85h-186v-254q0 -50 22 -73q24 -22 67 -22q27 0 53 8q22 7 44 22l36 -73q-34 -24 -69 -34q-38 -11 -78 -11q-83 0 -128 45t-45 140v252h-234v-425h-97v425h-83v81zM453 510
l16 143q-29 15 -53 19q-29 6 -58 6q-64 0 -99 -34q-36 -33 -36 -90v-44h230z" />
    <glyph glyph-name="cyr.ii.l" unicode="&#x456;&#x457;" horiz-adv-x="491" 
d="M172 510v-510h-99v510h99zM418 510v-510h-99v510h99zM25 733q26 0 43 -17q19 -15 19 -44t-19 -44q-17 -17 -43 -17q-25 0 -43 17q-19 15 -19 44t19 44q18 17 43 17zM465 733q26 0 44 -17q19 -15 19 -44t-19 -44q-18 -17 -44 -17q-25 0 -43 17q-18 15 -18 44t18 44
q18 17 43 17zM245 739q29 0 49 -19q19 -19 19 -47t-19 -49q-21 -18 -49 -18q-29 0 -47 18q-20 19 -20 49t20 47q18 19 47 19z" />
    <glyph glyph-name="lsl.l" unicode="&#x17f;l" horiz-adv-x="543" 
d="M73 559q0 41 14 80q13 35 41 65q27 27 66 42q39 16 92 16q57 0 102 -15q44 -14 82 -41v-706h-97v660q-36 16 -84 16q-55 0 -87 -31q-32 -32 -32 -89v-556h-97v559z" />
    <glyph glyph-name="lsk.l" unicode="&#x17f;k" horiz-adv-x="896" 
d="M73 559q0 41 14 80q13 35 41 65q27 27 66 42q39 16 92 16q57 0 102 -15q44 -14 82 -41v-398l95 11l155 191h124l-194 -229l221 -281h-122l-174 228h-105v-228h-97v660q-39 16 -84 16q-55 0 -87 -31q-32 -32 -32 -89v-556h-97v559z" />
    <glyph glyph-name="lsls.l" unicode="&#x17f;&#x17f;" horiz-adv-x="573" 
d="M73 545q0 43 15 80q13 37 42 64q26 26 66 43q40 15 90 15q46 0 82 -9q35 -8 71 -26q23 21 57 33q33 12 77 12q53 0 89 -13q38 -12 73 -38l-46 -74q-24 18 -55 28q-28 9 -59 9q-51 0 -77 -31q-25 -32 -25 -87v-551h-97v556q0 23 3 44q3 18 11 38q-24 11 -47 17
q-24 6 -54 6q-54 0 -87 -30q-32 -30 -32 -90v-541h-97v545z" />
    <glyph glyph-name="lsi.l" unicode="&#x17f;i" horiz-adv-x="526" 
d="M452 510v-510h-99v510h99zM73 557q0 41 14 80q13 35 41 65q28 27 68 43q39 16 92 16t98 -13q49 -14 83 -39l-46 -73q-29 19 -61 28q-35 11 -71 11q-55 0 -87 -31q-34 -30 -34 -90v-554h-97v557z" />
    <glyph glyph-name="lsh.l" unicode="&#x17f;h" horiz-adv-x="940" 
d="M73 559q0 41 14 80q13 35 41 65q27 27 66 42q39 16 92 16q57 0 102 -15q44 -14 82 -41v-287q27 50 72 77q47 26 115 26q98 0 154 -56t56 -165v-301h-96v290q0 74 -33 112q-35 36 -97 36q-60 0 -105 -39q-43 -39 -66 -110v-289h-97v660q-39 16 -84 16q-55 0 -87 -31
q-32 -32 -32 -89v-556h-97v559z" />
    <glyph glyph-name="lst.l" unicode="&#x17f;t" horiz-adv-x="711" 
d="M365 510l16 147q-39 19 -92 19q-55 0 -87 -31q-32 -32 -32 -89v-556h-97v559q0 41 14 80q13 35 41 65q27 27 66 42q39 16 92 16q56 0 104 -15q45 -15 83 -44l-9 -193h189v-85h-186v-254q0 -50 23 -73q22 -22 67 -22q26 0 53 8q22 7 44 22l36 -73q-34 -24 -69 -34
q-39 -11 -79 -11q-83 0 -128 45t-45 140v252h-83v79z" />
    <glyph glyph-name=".notdef" horiz-adv-x="539" 
d="M269 323l114 113l61 -61l-113 -113l113 -114l-61 -62l-114 114l-114 -114l-61 62l114 114l-113 113l61 62z" />
    <glyph glyph-name=".null" horiz-adv-x="0" 
 />
    <glyph glyph-name="nonmarkingreturn" horiz-adv-x="333" 
 />
    <glyph glyph-name="space" unicode=" " horiz-adv-x="300" 
 />
    <glyph glyph-name="exclam" unicode="!" horiz-adv-x="239" 
d="M168 728v-532h-97v532h97zM119 124q29 0 47 -18q20 -17 20 -47t-20 -47q-18 -18 -47 -18q-27 0 -46 18q-20 18 -20 47t20 47q19 18 46 18z" />
    <glyph glyph-name="quotedbl" unicode="&#x22;" horiz-adv-x="329" 
d="M281 684v-49l-19 -143h-68v192h87zM135 684v-49l-19 -143h-68v192h87z" />
    <glyph glyph-name="numbersign" unicode="#" horiz-adv-x="613" 
d="M478 581l-14 -97l95 -3v-77h-107l-19 -114h112v-77l-125 -3l-18 -112l-78 11l16 101h-119l-20 -107l-75 9l15 98l-88 3v77h99l18 114h-102v78l115 2l19 108l78 -11l-16 -97h119l19 108zM233 290h119l18 114h-119z" />
    <glyph glyph-name="dollar" unicode="$" horiz-adv-x="645" 
d="M368 780v-118q51 -4 103 -22q48 -18 89 -50l-51 -71q-82 57 -187 57q-81 0 -116 -26q-35 -27 -35 -69t27 -63q25 -22 85 -30l103 -14q96 -14 148 -60q54 -45 54 -128q0 -38 -14 -69q-12 -32 -40 -59q-30 -28 -70 -44q-40 -18 -96 -24v-116h-97v113q-59 4 -113 23t-103 54
l47 79q57 -38 108 -53q49 -16 107 -16q85 0 129 29q43 28 43 81q0 40 -29 66q-29 24 -91 32l-108 14q-89 12 -141 56q-49 44 -49 125q0 41 15 71q13 31 41 56q29 25 64 37q42 15 82 19v120h95z" />
    <glyph glyph-name="percent" unicode="%" horiz-adv-x="779" 
d="M203 642q35 0 65 -12q29 -10 50 -32q21 -20 33 -48t12 -60t-12 -60t-33 -48q-22 -22 -50 -32q-30 -12 -65 -12t-65 12q-29 10 -50 32q-21 20 -33 48t-12 60t12 60t33 48q22 22 50 32q30 12 65 12zM663 584l-485 -601l-64 49l486 602zM203 567q-35 0 -56 -21t-21 -56
t21 -56t56 -21t56 21t21 56t-21 56t-56 21zM591 297q33 0 63 -11q29 -12 51 -32q21 -21 33 -49q12 -29 12 -60t-12 -60q-12 -28 -33 -49q-22 -20 -51 -32q-30 -11 -63 -11q-34 0 -65 11q-28 12 -50 32q-21 21 -33 49q-12 29 -12 60t12 60q12 28 33 49q22 20 50 32
q31 11 65 11zM591 222q-35 0 -56 -21t-21 -56t21 -56t56 -21t55 21q21 21 21 56t-21 56q-20 21 -55 21z" />
    <glyph glyph-name="ampersand" unicode="&#x26;" horiz-adv-x="742" 
d="M669 369q0 -91 -27 -161q-29 -73 -76 -123l71 -75l-69 -64l-76 82q-39 -21 -77 -31q-42 -11 -88 -11q-63 0 -113 18q-46 15 -82 48q-35 33 -52 75q-17 45 -17 94q0 57 25 107q28 50 74 77q-16 36 -16 80q0 35 14 69q14 32 42 56q26 24 68 40q42 15 97 15q69 0 120 -22
q54 -23 90 -62l-59 -67q-31 33 -67 50q-39 17 -85 17q-62 0 -92 -30q-31 -30 -31 -71q0 -52 40 -95l222 -235q33 39 51 94q19 54 19 125h94zM211 336q-51 -40 -51 -109q0 -34 12 -61q10 -29 33 -50t54 -33t73 -12q52 0 100 23z" />
    <glyph glyph-name="quotesingle" unicode="'" horiz-adv-x="184" 
d="M135 684v-56l-19 -149h-68v205h87z" />
    <glyph glyph-name="parenleft" unicode="(" horiz-adv-x="313" 
d="M300 627q-76 -73 -113 -161q-37 -87 -37 -200q0 -105 36 -192q36 -86 114 -168l-59 -57q-89 73 -138 177q-50 105 -50 240q0 121 46 228q47 106 141 191z" />
    <glyph glyph-name="parenright" unicode=")" horiz-adv-x="313" 
d="M72 685q88 -73 138 -177q50 -105 50 -240q0 -123 -46 -228q-45 -106 -141 -191l-60 58q78 75 113 161q38 86 38 200q0 105 -36 192q-36 86 -115 168z" />
    <glyph glyph-name="asterisk" unicode="*" horiz-adv-x="422" 
d="M188 593l35 107l78 -26l-45 -105l112 6v-80l-113 7l46 -104l-80 -28l-34 108l-87 -72l-47 68l93 60l-93 67l50 64z" />
    <glyph glyph-name="plus" unicode="+" horiz-adv-x="520" 
d="M306 544v-161h151v-83h-151v-161h-91v161h-152v83h152v161h91z" />
    <glyph glyph-name="comma" unicode="," horiz-adv-x="241" 
d="M92 -2q-18 8 -28 24q-11 17 -11 38q0 30 20 48q19 18 48 18q27 0 47 -17q19 -16 19 -49q0 -20 -6 -33l-57 -135l-57 21z" />
    <glyph glyph-name="hyphen" unicode="-" horiz-adv-x="428" 
d="M364 324v-84h-301v84h301z" />
    <glyph glyph-name="period" unicode="." horiz-adv-x="244" 
d="M122 129q29 0 48 -19q21 -18 21 -49q0 -29 -21 -49q-20 -18 -48 -18t-48 18q-21 20 -21 49q0 31 21 49q19 19 48 19z" />
    <glyph glyph-name="slash" unicode="/" horiz-adv-x="392" 
d="M393 706l-329 -792l-81 34l328 792z" />
    <glyph glyph-name="zero" unicode="0" horiz-adv-x="774" 
d="M387 684q73 0 136 -26q59 -26 104 -74q43 -46 67 -111q23 -66 23 -138q0 -71 -23 -135q-24 -65 -67 -112q-45 -48 -104 -74q-60 -28 -136 -28q-75 0 -136 27q-60 26 -104 75q-42 45 -67 110q-23 66 -23 137t23 137q25 66 68 110q42 47 104 74q60 28 135 28zM387 595
q-54 0 -99 -20q-41 -19 -71 -55q-29 -37 -44 -84q-15 -46 -15 -101q0 -56 16 -101q15 -47 44 -84q30 -36 72 -55q45 -20 97 -20q54 0 97 20q42 19 72 55q29 34 45 82q15 48 15 103q0 58 -16 105q-14 45 -44 82q-28 33 -72 54q-46 19 -97 19z" />
    <glyph glyph-name="one" unicode="1" horiz-adv-x="378" 
d="M295 670v-670h-99v528l-103 -77l-50 67l186 157z" />
    <glyph glyph-name="two" unicode="2" horiz-adv-x="625" 
d="M556 0h-487v84l284 218q54 42 79 82t25 86q0 56 -38 92q-39 34 -116 34q-104 0 -189 -73l-51 72q51 48 113 69q65 20 132 20q60 0 105 -16q47 -15 78 -43t49 -67q16 -40 16 -84q0 -70 -33 -124q-32 -54 -102 -107l-204 -153h339v-90z" />
    <glyph glyph-name="three" unicode="3" horiz-adv-x="644" 
d="M343 393q49 0 77 25q27 27 27 69q0 52 -35 79q-33 29 -112 29q-46 0 -90 -16q-47 -17 -87 -53l-53 71q102 87 238 87q57 0 102 -14q45 -15 76 -40q30 -24 46 -58q16 -32 16 -72q0 -45 -19 -82q-20 -36 -56 -55v-10q50 -16 80 -57q29 -43 29 -99q0 -43 -18 -81
q-17 -37 -54 -68q-38 -30 -87 -45q-54 -17 -120 -17q-79 0 -142 23q-61 22 -121 76l57 73q52 -45 101 -64q48 -19 113 -19q81 0 125 35q43 34 43 90q0 50 -33 78q-32 27 -96 27h-154v88h147z" />
    <glyph glyph-name="four" unicode="4" horiz-adv-x="683" 
d="M550 670v-461h95v-84l-95 -6v-119h-99v120h-408v80l370 470h137zM168 209h283v348h-13z" />
    <glyph glyph-name="five" unicode="5" horiz-adv-x="631" 
d="M533 670v-89h-324l-13 -165q27 13 61 22q39 7 76 7q53 0 96 -15q44 -15 76 -44t50 -71t18 -97q0 -49 -19 -90q-20 -44 -54 -74q-33 -31 -86 -50q-52 -18 -116 -18q-78 0 -138 24q-62 26 -112 76l60 71q45 -45 93 -63q47 -19 105 -19q35 0 68 9q31 11 54 28q22 21 35 46
t13 59q0 66 -40 103q-41 38 -114 38q-56 0 -94 -12q-39 -10 -68 -32l-66 24l30 332h409z" />
    <glyph glyph-name="six" unicode="6" horiz-adv-x="655" 
d="M527 537q-77 60 -170 60q-85 0 -141 -54q-57 -55 -64 -159q40 34 86 48q47 17 115 17q58 0 103 -16q46 -17 78 -45q33 -29 50 -71q18 -42 18 -94q0 -49 -20 -94q-19 -43 -56 -75q-37 -33 -85 -50q-49 -18 -107 -18q-133 0 -208 88q-73 88 -73 248q0 89 23 152
q20 66 63 114q38 46 99 72q57 24 128 24q59 0 113 -19q55 -19 100 -57zM153 296q0 -56 14 -100q13 -41 39 -70q23 -26 57 -40q32 -13 71 -13q40 0 68 11q33 9 54 30q21 16 36 46q12 28 12 62q0 68 -42 106q-43 36 -122 36q-53 0 -101 -18q-48 -16 -86 -50z" />
    <glyph glyph-name="seven" unicode="7" horiz-adv-x="580" 
d="M532 670v-74l-275 -596h-109l273 582h-373v88h484z" />
    <glyph glyph-name="eight" unicode="8" horiz-adv-x="655" 
d="M327 684q59 0 100 -14q43 -12 74 -38q29 -23 45 -58t16 -76q0 -43 -20 -80q-18 -36 -55 -62q54 -22 85 -64q30 -42 30 -100q0 -40 -18 -78q-16 -36 -52 -66q-35 -28 -86 -45q-56 -17 -123 -17q-69 0 -117 16q-49 16 -85 44q-35 31 -51 68q-17 40 -17 85q0 60 29 105
q27 48 79 74q-31 20 -48 54q-16 32 -16 71q0 40 16 72q17 34 46 57q31 26 73 38q39 14 95 14zM293 321l-29 5q-14 3 -24 6q-45 -16 -68 -51q-21 -35 -21 -78q0 -59 46 -95q47 -36 130 -36q87 0 131 34q43 34 43 87q0 44 -31 73q-34 28 -106 41zM361 395q20 -4 40 -9
q33 16 50 44q16 28 16 66q0 42 -33 74q-32 30 -107 30q-66 0 -100 -28q-33 -30 -33 -71q0 -38 28 -63q31 -22 83 -32z" />
    <glyph glyph-name="nine" unicode="9" horiz-adv-x="652" 
d="M114 133q39 -32 85 -45q47 -15 94 -15q88 0 143 53q56 53 64 159q-39 -33 -86 -49q-53 -16 -115 -16q-58 0 -103 16q-46 17 -77 45q-33 30 -49 71q-17 43 -17 94q0 49 19 95q22 46 54 75q35 32 84 50q48 18 105 18q136 0 211 -88q73 -90 73 -248q0 -86 -21 -153
q-22 -70 -62 -113q-36 -44 -98 -72q-60 -24 -134 -24q-60 0 -118 18q-60 20 -104 58zM499 374q0 56 -14 100q-13 41 -39 70q-24 27 -58 40q-32 13 -73 13q-38 0 -67 -11q-29 -9 -52 -30q-21 -18 -33 -47t-12 -62q0 -68 41 -106q40 -37 120 -37q53 0 101 18q50 20 86 52z" />
    <glyph glyph-name="colon" unicode=":" horiz-adv-x="237" 
d="M119 122q27 0 45 -18q20 -16 20 -46t-20 -46q-18 -18 -45 -18t-46 18q-20 17 -20 46t20 46q19 18 46 18zM119 471q26 0 45 -17q20 -17 20 -47t-20 -47q-19 -17 -45 -17t-46 17q-20 18 -20 47t20 47q20 17 46 17z" />
    <glyph glyph-name="semicolon" unicode=";" horiz-adv-x="237" 
d="M119 471q26 0 45 -17q20 -17 20 -47t-20 -47q-19 -17 -45 -17t-46 17q-20 18 -20 47t20 47q20 17 46 17zM93 -1q-17 8 -29 21q-11 16 -11 37q0 29 19 47q20 18 47 18t45 -18q20 -17 20 -47q0 -6 -2 -16q0 -2 -1.5 -7t-2.5 -8l-56 -134l-56 21z" />
    <glyph glyph-name="less" unicode="&#x3c;" horiz-adv-x="407" 
d="M344 502l-178 -153l177 -150l-56 -70l-244 206v31l245 200z" />
    <glyph glyph-name="equal" unicode="=" horiz-adv-x="476" 
d="M413 469v-81h-350v81h350zM413 295v-80h-350v80h350z" />
    <glyph glyph-name="greater" unicode="&#x3e;" horiz-adv-x="407" 
d="M364 361v-32l-245 -200l-56 64l178 154l-177 150l55 69z" />
    <glyph glyph-name="question" unicode="?" horiz-adv-x="607" 
d="M53 646q55 46 115 65q62 20 131 20q55 0 103 -14q46 -13 80 -41t53 -68q19 -39 19 -91q0 -77 -47 -135q-47 -55 -134 -76q-37 -9 -53 -28q-15 -20 -15 -44q0 -16 5 -34l-86 -10q-11 27 -11 59q0 50 31 85q32 35 92 51q66 18 93 51t27 81q0 59 -42 94q-43 34 -115 34
q-58 0 -106 -18q-49 -18 -90 -52zM272 124q28 0 47 -18q20 -18 20 -47t-20 -47q-19 -18 -47 -18t-46 18q-20 17 -20 47t20 47q18 18 46 18z" />
    <glyph glyph-name="at" unicode="@" horiz-adv-x="879" 
d="M600 210q0 -29 12 -44q15 -13 36 -13q34 0 56 37q21 36 21 109q0 54 -15 99q-16 45 -48 78q-34 33 -82 50q-50 18 -116 18q-68 0 -128 -22q-61 -25 -99 -63q-43 -43 -63 -93q-23 -52 -23 -117q0 -61 19 -115q22 -53 56 -87q38 -36 90 -55q50 -19 118 -19q81 0 136 11
q54 8 119 33l25 -73q-66 -29 -130 -40q-64 -14 -150 -14q-83 0 -152 24q-72 27 -118 71q-49 45 -78 113q-28 66 -28 151q0 79 31 147q32 70 85 120q53 51 128 82q76 29 162 29q76 0 139 -22q65 -23 111 -64q48 -43 74 -103q26 -61 26 -137q0 -49 -12 -90q-11 -41 -33 -71
q-22 -28 -54 -46q-34 -16 -72 -16t-65 15q-28 15 -40 45q-23 -32 -54 -50q-31 -17 -75 -17q-71 0 -116 46q-45 47 -45 130q0 46 16 81q15 37 42 64q29 27 64 40q39 14 81 14q84 0 149 -31v-205zM515 359q-30 11 -66 11q-50 0 -80 -30q-30 -28 -30 -90q0 -52 23 -77
q22 -24 57 -24q42 0 69 29t27 74v107z" />
    <glyph glyph-name="A" unicode="A" horiz-adv-x="762" 
d="M440 671l281 -671h-112l-60 152h-339l-59 -152h-109l279 671h119zM244 240h271l-129 328h-12z" />
    <glyph glyph-name="B" unicode="B" horiz-adv-x="677" 
d="M361 670q57 0 97 -13q42 -13 72 -37q29 -24 42 -56q15 -32 15 -70q0 -43 -19 -78q-20 -37 -54 -53v-9q50 -14 84 -59q31 -45 31 -101q0 -40 -15 -75q-14 -35 -44 -61q-28 -27 -74 -42q-44 -16 -106 -16h-307v670h278zM185 86h205q68 0 104 28q35 30 35 83q0 52 -35 81
q-37 29 -105 29h-204v-221zM185 392h192q57 0 83 26q27 27 27 72q0 94 -129 94h-173v-192z" />
    <glyph glyph-name="C" unicode="C" horiz-adv-x="727" 
d="M617 523q-83 70 -205 70q-58 0 -106 -18q-48 -19 -80 -52q-34 -34 -52 -81q-19 -47 -19 -107q0 -61 19 -108q20 -50 53 -81q35 -34 81 -51q45 -18 101 -18q63 0 119 21q56 23 99 62l57 -70q-109 -104 -280 -104q-79 0 -142 24q-63 23 -112 69q-45 45 -72 109
q-25 67 -25 145q0 71 25 138q28 66 74 111q46 47 115 75q67 27 154 27q71 0 137 -24q64 -23 112 -65z" />
    <glyph glyph-name="D" unicode="D" horiz-adv-x="728" 
d="M320 670q82 0 148 -24q65 -26 111 -70q44 -41 71 -106q25 -59 25 -135q0 -69 -25 -135q-28 -63 -73 -106q-46 -43 -113 -69q-65 -25 -147 -25h-234v670h237zM184 89h133q54 0 103 17q45 16 81 49q35 32 53 77q20 44 20 103q0 120 -68 183q-69 63 -190 63h-132v-492z" />
    <glyph glyph-name="E" unicode="E" 
d="M565 670v-89h-382v-189h336v-88h-336v-214h400v-90h-500v670h482z" />
    <glyph glyph-name="F" unicode="F" horiz-adv-x="606" 
d="M553 670v-89h-370v-199h320v-88h-320v-294h-100v670h470z" />
    <glyph glyph-name="G" unicode="G" horiz-adv-x="740" 
d="M677 359v-281q-54 -46 -121 -68q-70 -24 -150 -24t-144 24t-112 69q-45 45 -72 109q-25 67 -25 145q0 74 25 137q26 66 72 112q46 47 114 74q65 28 153 28q68 0 131 -21q64 -21 113 -63l-54 -73q-39 34 -89 49q-47 17 -106 17q-58 0 -106 -18q-48 -19 -80 -52
q-34 -34 -52 -81q-19 -47 -19 -107q0 -62 19 -109q20 -50 53 -81q35 -34 81 -51t102 -17q102 0 170 47v146l-147 7v82h244z" />
    <glyph glyph-name="H" unicode="H" horiz-adv-x="732" 
d="M186 670v-282h360v282h102v-670h-102v297h-360v-297h-103v670h103z" />
    <glyph glyph-name="I" unicode="I" horiz-adv-x="269" 
d="M186 670v-670h-103v670h103z" />
    <glyph glyph-name="J" unicode="J" horiz-adv-x="540" 
d="M457 670v-427q0 -123 -57 -190q-58 -67 -172 -67q-54 0 -100 12q-47 14 -90 47l46 78q37 -25 72 -37q37 -10 72 -10q54 0 90 37q37 37 37 118v439h102z" />
    <glyph glyph-name="K" unicode="K" horiz-adv-x="703" 
d="M183 670v-275l104 8l218 267h126l-261 -310l286 -360h-130l-237 312h-106v-312h-100v670h100z" />
    <glyph glyph-name="L" unicode="L" horiz-adv-x="619" 
d="M185 670v-580h386v-90h-488v670h102z" />
    <glyph glyph-name="M" unicode="M" horiz-adv-x="840" 
d="M195 670l226 -349l227 349h109v-670h-99v514h-9l-205 -315h-51l-204 315h-9v-514h-97v670h112z" />
    <glyph glyph-name="N" unicode="N" horiz-adv-x="752" 
d="M669 670v-670h-100l-388 508v-508h-98v670h91l398 -521v521h97z" />
    <glyph glyph-name="O" unicode="O" horiz-adv-x="811" 
d="M405 684q78 0 144 -26q64 -27 111 -74q44 -44 72 -111q25 -67 25 -138q0 -69 -25 -135q-27 -64 -72 -112q-50 -49 -112 -74q-62 -28 -143 -28q-80 0 -143 27q-63 26 -112 75q-45 46 -72 110q-25 67 -25 137q0 71 26 137q26 65 73 110q44 46 110 74q65 28 143 28zM405 595
q-59 0 -105 -20q-46 -19 -79 -55t-49 -82q-17 -49 -17 -103t17 -103q18 -47 50 -82t78 -55q49 -20 105 -20q57 0 105 19q47 21 80 55q33 36 49 83q17 48 17 103q0 57 -18 105q-16 44 -49 82q-31 32 -79 54q-49 19 -105 19z" />
    <glyph glyph-name="P" unicode="P" horiz-adv-x="675" 
d="M368 670q52 0 102 -16q50 -19 80 -48q33 -29 53 -73q19 -42 19 -95q0 -55 -20 -98t-57 -74q-34 -30 -85 -47q-47 -16 -103 -16h-171v-203h-103v670h285zM186 291h169q76 0 121 39q44 38 44 107q0 68 -41 107q-41 38 -117 38h-176v-291z" />
    <glyph glyph-name="Q" unicode="Q" horiz-adv-x="811" 
d="M694 -149l-184 150q-48 -15 -105 -15q-80 0 -143 27q-63 26 -112 75q-45 46 -72 110q-25 67 -25 137q0 71 26 137q26 65 73 110q44 46 110 74q65 28 143 28t144 -26q64 -27 111 -74q44 -44 72 -111q25 -67 25 -138q0 -91 -39 -167q-41 -76 -110 -123l149 -115zM405 595
q-59 0 -105 -20q-46 -19 -79 -55t-49 -82q-17 -49 -17 -103t17 -103q18 -47 50 -82t78 -55q49 -20 105 -20q57 0 105 19q47 21 80 55q33 36 49 83q17 48 17 103q0 57 -18 105q-16 44 -49 82q-31 32 -79 54q-49 19 -105 19z" />
    <glyph glyph-name="R" unicode="R" horiz-adv-x="686" 
d="M372 670q56 0 101 -16q47 -17 79 -46q32 -28 51 -70q18 -40 18 -90q0 -72 -42 -125t-111 -75l175 -248h-124l-150 224h-183v-224h-103v670h289zM186 312h175q71 0 115 36q42 36 42 100q0 67 -42 100q-41 34 -111 34h-179v-270z" />
    <glyph glyph-name="S" unicode="S" horiz-adv-x="653" 
d="M525 532q-42 31 -92 46q-48 17 -106 17q-81 0 -117 -27t-36 -72q0 -44 28 -68q29 -23 88 -30l100 -14q102 -15 156 -63q53 -48 53 -130q0 -44 -18 -83q-19 -37 -53 -64q-36 -27 -89 -42q-51 -16 -123 -16q-78 0 -142 18q-63 16 -122 60l48 81q56 -38 110 -54
q52 -16 114 -16q89 0 130 31q44 31 44 82q0 42 -29 68q-29 27 -96 36l-105 15q-97 14 -144 58q-50 44 -50 127q0 47 18 83q20 37 52 60q33 24 80 37q45 12 102 12q70 0 136 -19q67 -20 115 -59z" />
    <glyph glyph-name="T" unicode="T" horiz-adv-x="689" 
d="M641 670v-90h-246v-580h-101v580h-246v90h593z" />
    <glyph glyph-name="U" unicode="U" horiz-adv-x="754" 
d="M186 670v-364q0 -111 48 -171q50 -60 143 -60t141 56q50 54 50 173v366h103v-367q0 -73 -19 -131q-19 -59 -55 -100q-40 -43 -92 -64q-58 -22 -128 -22q-73 0 -127 22q-51 21 -92 62q-38 44 -56 99q-19 57 -19 131v370h103z" />
    <glyph glyph-name="V" unicode="V" horiz-adv-x="747" 
d="M152 670l219 -567h12l214 567h112l-273 -672h-125l-273 672h114z" />
    <glyph glyph-name="W" unicode="W" horiz-adv-x="1015" 
d="M148 670l154 -554h10l148 512h94l152 -512h10l151 554h110l-203 -672h-129l-134 456h-10l-128 -456h-130l-205 672h110z" />
    <glyph glyph-name="X" unicode="X" horiz-adv-x="719" 
d="M181 670l177 -263h10l169 263h123l-224 -327l245 -343h-126l-193 286h-10l-188 -286h-126l245 350l-223 320h121z" />
    <glyph glyph-name="Y" unicode="Y" horiz-adv-x="712" 
d="M157 670l196 -351h10l193 351h118l-268 -456v-214h-100v214l-268 456h119z" />
    <glyph glyph-name="Z" unicode="Z" horiz-adv-x="663" 
d="M597 670v-76l-404 -504h412v-90h-547v74l410 506h-395v90h524z" />
    <glyph glyph-name="bracketleft" unicode="[" horiz-adv-x="303" 
d="M270 659v-78h-102v-621h102v-79h-197v778h197z" />
    <glyph glyph-name="backslash" unicode="\" horiz-adv-x="440" 
d="M422 -25l-80 -37l-333 740l81 37z" />
    <glyph glyph-name="bracketright" unicode="]" horiz-adv-x="303" 
d="M230 659v-778h-197v78h103v621h-103v79h197z" />
    <glyph glyph-name="asciicircum" unicode="^" horiz-adv-x="337" 
d="M180 671l135 -128v-10l-49 -50l-98 84l-97 -84l-49 50v10l135 128h23z" />
    <glyph glyph-name="underscore" unicode="_" horiz-adv-x="435" 
d="M425 -46v-82h-415v82h415z" />
    <glyph glyph-name="grave" unicode="`" horiz-adv-x="259" 
d="M172 621h-85l-82 139l82 48z" />
    <glyph glyph-name="a" unicode="a" horiz-adv-x="622" 
d="M78 463q55 34 102 45q48 14 108 14q118 0 174 -54q55 -55 55 -151v-187q0 -30 11 -46q11 -13 29 -13q12 0 21 4l9 -74q-20 -10 -51 -10q-38 0 -64 19t-33 67q-65 -89 -198 -89q-93 0 -143 44q-53 41 -53 126q0 78 61 121q62 44 167 44q45 0 79 -7q38 -7 70 -18v28
q0 54 -32 83q-31 28 -100 28q-90 0 -173 -44zM423 222q-63 22 -146 22q-71 0 -103 -24q-30 -26 -30 -64q0 -42 30 -64q29 -21 85 -21q35 0 63 9q32 11 52 27q21 15 36 41q13 22 13 52v22z" />
    <glyph glyph-name="b" unicode="b" horiz-adv-x="635" 
d="M171 713v-243q35 26 74 39t88 13q54 0 101 -16q46 -17 80 -48q35 -35 52 -82q20 -47 20 -115q0 -62 -22 -115q-25 -52 -62 -86q-40 -35 -92 -54q-51 -18 -112 -18q-57 0 -114 9q-59 10 -111 31v685h98zM171 93q35 -12 59 -16q33 -5 65 -5q41 0 75 12q35 12 62 36
q26 25 41 60q15 34 15 82q0 85 -44 131q-43 45 -116 45q-95 0 -157 -59v-286z" />
    <glyph glyph-name="c" unicode="c" horiz-adv-x="583" 
d="M476 381q-30 26 -66 41q-39 15 -88 15q-36 0 -68 -12t-57 -35q-24 -23 -38 -56q-14 -34 -14 -75q0 -85 47 -135t130 -50q46 0 89 16q43 19 70 49l59 -61q-43 -48 -98 -68q-53 -22 -124 -22q-64 0 -116 20q-52 22 -84 57q-36 35 -52 85q-18 48 -18 104q0 63 22 110
q21 51 58 85q37 35 86 54q47 19 106 19q70 0 120 -20q50 -17 90 -57z" />
    <glyph glyph-name="d" unicode="d" horiz-adv-x="657" 
d="M584 713v-713h-77l-11 97q-30 -54 -80 -81q-50 -28 -115 -28q-59 0 -105 18q-48 19 -80 52q-34 36 -50 84q-18 48 -18 112q0 61 21 112q22 51 57 84q38 35 86 54q50 18 106 18q52 0 92 -12q45 -15 77 -38v241h97zM487 385q-71 54 -159 54q-85 0 -134 -49
q-48 -48 -48 -136q0 -44 12 -78q14 -35 34 -56q22 -24 51 -36t62 -12q67 0 113 36q47 36 69 103v174z" />
    <glyph glyph-name="e" unicode="e" horiz-adv-x="612" 
d="M146 222q7 -70 55 -110q47 -39 125 -39q50 0 96 13q44 14 84 43l44 -69q-49 -38 -106 -56q-59 -16 -120 -16q-65 0 -116 18q-54 21 -86 54q-35 32 -55 83q-19 48 -19 111q0 56 20 107q19 48 56 85t87 56q52 20 113 20q53 0 98 -17q43 -17 76 -49q32 -32 48 -75
q18 -43 18 -97q0 -10 -2 -32q-1 -10 -5 -30h-411zM466 302q-2 62 -37 99q-36 37 -109 37q-72 0 -116 -36q-44 -38 -54 -100h316z" />
    <glyph glyph-name="f" unicode="f" horiz-adv-x="415" 
d="M126 511v46q0 41 12 77q11 35 36 62q24 25 62 42q38 15 90 15q99 0 166 -52l-46 -69q-27 17 -54 26q-30 9 -61 9q-57 0 -83 -29q-25 -28 -25 -79v-49h164v-85h-164v-425h-97v425h-83v81z" />
    <glyph glyph-name="g" unicode="g" horiz-adv-x="646" 
d="M591 463l-89 -20q16 -16 30 -47q10 -30 10 -57q0 -37 -15 -70t-43 -58q-29 -26 -70 -39q-40 -15 -93 -15q-43 0 -76 9q-34 11 -59 27q-19 -10 -28 -25q-8 -18 -8 -36q0 -32 21 -46q22 -14 64 -14h161q48 0 84 -12q32 -10 58 -31q23 -21 33 -47q11 -30 11 -61
q0 -45 -21 -82q-20 -36 -59 -67q-44 -30 -92 -44q-51 -17 -120 -17q-121 0 -179 49t-58 131q0 39 15 75q14 34 41 62q-48 36 -48 98q0 72 72 119q-14 20 -21 43q-7 22 -7 51q0 35 14 71q13 33 43 58q26 24 70 40q44 14 99 14h97l155 14zM180 -6q-18 -18 -25 -40
q-8 -26 -8 -50q0 -52 38 -82q39 -28 110 -28q88 0 141 34q52 35 52 91q0 34 -22 53q-24 18 -76 18h-157zM320 441q-59 0 -90 -26q-31 -25 -31 -75q0 -47 31 -74q30 -29 91 -29q55 0 90 27q35 26 35 76q0 65 -51 101h-75z" />
    <glyph glyph-name="h" unicode="h" 
d="M171 713v-294q27 50 72 77q46 26 115 26q96 0 154 -56q56 -56 56 -165v-301h-97v290q0 74 -33 112q-34 36 -96 36q-60 0 -105 -39t-66 -110v-289h-98v713h98z" />
    <glyph glyph-name="i" unicode="i" horiz-adv-x="245" 
d="M172 510v-510h-99v510h99zM123 744q27 0 47 -18q21 -18 21 -49q0 -30 -21 -48q-20 -18 -47 -18q-29 0 -48 18q-20 18 -20 48q0 31 20 49q19 18 48 18z" />
    <glyph glyph-name="j" unicode="j" horiz-adv-x="251" 
d="M178 510v-546q0 -44 -12 -82q-10 -35 -34 -64q-23 -26 -58 -42q-36 -15 -81 -15q-38 0 -73 8q-33 7 -66 26l33 77q28 -15 49 -19q25 -5 52 -5q41 0 68 28q25 30 25 88v546h97zM129 745q28 0 47 -19q21 -18 21 -48q0 -31 -21 -49q-20 -18 -47 -18t-47 18q-21 18 -21 49
q0 30 21 48q19 19 47 19z" />
    <glyph glyph-name="k" unicode="k" horiz-adv-x="597" 
d="M171 713v-405l95 11l155 191h124l-195 -229l222 -281h-123l-173 228h-105v-228h-98v713h98z" />
    <glyph glyph-name="l" unicode="l" horiz-adv-x="243" 
d="M170 713v-713h-97v713h97z" />
    <glyph glyph-name="m" unicode="m" horiz-adv-x="958" 
d="M152 510l10 -99q52 111 176 111q54 0 100 -23q43 -23 64 -68q29 45 77 67q48 24 105 24q100 0 150 -56q51 -57 51 -159v-307h-99v300q0 67 -29 102q-29 36 -85 36q-90 0 -139 -90l3 -21q1 -7 1 -22v-305h-98v300q0 69 -29 102q-27 36 -88 36q-50 0 -90 -38
q-40 -37 -60 -107v-293h-99v510h79z" />
    <glyph glyph-name="n" unicode="n" 
d="M150 510l10 -106q26 56 76 87q47 31 118 31q97 0 156 -56q58 -57 58 -165v-301h-97v290q0 74 -33 112q-34 36 -96 36q-61 0 -106 -40q-45 -42 -66 -112v-286h-97v510h77z" />
    <glyph glyph-name="o" unicode="o" horiz-adv-x="650" 
d="M325 522q63 0 112 -20q48 -17 88 -54q38 -36 57 -85q20 -51 20 -108t-21 -106t-57 -85q-39 -37 -88 -56q-52 -20 -111 -20q-64 0 -113 20q-48 17 -88 54q-37 37 -56 85q-20 51 -20 108q0 55 20 106q21 49 58 85q37 37 87 56q52 20 112 20zM325 439q-38 0 -75 -13
q-36 -16 -56 -38q-25 -26 -36 -59q-13 -33 -13 -74q0 -42 13 -75q13 -34 36 -58q22 -22 57 -38q36 -13 74 -13q39 0 75 13q36 16 56 38q24 24 36 58q13 33 13 75q0 41 -13 73q-13 34 -36 58q-24 26 -57 39q-34 14 -74 14z" />
    <glyph glyph-name="p" unicode="p" horiz-adv-x="650" 
d="M150 510l10 -93q34 57 84 81q48 24 114 24q54 0 99 -18q47 -20 77 -52q33 -36 50 -82q17 -51 17 -109q0 -69 -23 -118q-21 -52 -59 -85q-37 -35 -85 -52q-48 -18 -100 -18q-47 0 -88 11q-37 9 -77 37v-233h-96v707h77zM169 129q68 -56 157 -56q40 0 72 13q35 15 55 38
q23 24 36 60q13 33 13 80q0 35 -10 70q-13 35 -32 55q-19 22 -50 36q-27 13 -66 13q-64 0 -109 -34q-44 -37 -66 -93v-182z" />
    <glyph glyph-name="q" unicode="q" horiz-adv-x="632" 
d="M558 -197h-97v252q-32 -33 -70 -49q-41 -18 -104 -18q-49 0 -91 16q-43 15 -76 48q-34 32 -52 82q-20 47 -20 119q0 61 23 112q22 49 63 85q43 35 96 54q55 18 119 18q52 0 109 -11q51 -10 100 -31v-677zM461 416q-25 14 -54 18q-32 5 -59 5q-46 0 -82 -13
q-38 -14 -64 -37q-28 -26 -40 -59q-15 -33 -15 -76q0 -90 41 -136q42 -44 113 -44q55 0 93 22q40 21 67 70v250z" />
    <glyph glyph-name="r" unicode="r" horiz-adv-x="541" 
d="M151 510l9 -106q25 57 76 88q49 30 119 30q46 0 88 -14q41 -15 69 -40l-54 -75q-21 18 -53 31q-33 10 -68 10q-60 0 -103 -40q-43 -39 -64 -106v-288h-97v510h78z" />
    <glyph glyph-name="s" unicode="s" horiz-adv-x="569" 
d="M453 393q-78 45 -169 45q-59 0 -92 -18q-31 -20 -31 -51q0 -27 17 -41q16 -15 56 -19l104 -12q81 -10 130 -45q48 -36 48 -105q0 -75 -64 -117q-63 -42 -178 -42q-70 0 -120 14q-51 12 -106 48l42 75q45 -29 91 -42q45 -13 97 -13q73 0 108 19q35 20 35 54q0 29 -19 47
q-22 17 -69 21l-120 14q-73 8 -110 45q-38 36 -38 99q0 67 56 111q55 42 165 42q60 0 111 -13q57 -15 97 -41z" />
    <glyph glyph-name="t" unicode="t" horiz-adv-x="462" 
d="M116 510l17 140l88 -4l-5 -136h188v-85h-185v-254q0 -50 22 -73q24 -22 67 -22q26 0 52 8q23 7 45 22l36 -73q-34 -24 -69 -34q-39 -11 -79 -11q-82 0 -127 45t-45 140v252h-84v79z" />
    <glyph glyph-name="u" unicode="u" horiz-adv-x="634" 
d="M170 510v-283q0 -79 32 -117q31 -37 90 -37q61 0 106 39q44 38 66 108v290h97v-510h-78l-9 103q-26 -56 -74 -85q-50 -30 -116 -30q-100 0 -155 57q-56 58 -56 169v296h97z" />
    <glyph glyph-name="v" unicode="v" horiz-adv-x="631" 
d="M153 510l160 -414h10l158 414h112l-225 -513h-105l-225 513h115z" />
    <glyph glyph-name="w" unicode="w" horiz-adv-x="881" 
d="M147 510l120 -406h9l120 388h92l123 -388h9l121 406h101l-173 -513h-117l-107 352h-10l-105 -352h-116l-176 513h109z" />
    <glyph glyph-name="x" unicode="x" horiz-adv-x="627" 
d="M178 510l132 -195h10l130 195h117l-181 -245l202 -265h-123l-152 216h-10l-143 -216h-122l200 269l-183 241h123z" />
    <glyph glyph-name="y" unicode="y" horiz-adv-x="638" 
d="M152 510l184 -408h9l147 408h108l-233 -566q-28 -71 -68 -106q-39 -33 -99 -33q-56 0 -94 26l27 75q19 -9 31 -11q15 -3 29 -3q29 0 49 15q21 15 35 50l13 36l-252 517h114z" />
    <glyph glyph-name="z" unicode="z" horiz-adv-x="570" 
d="M509 510v-77l-323 -349h326v-84h-454v74l329 353h-311v83h433z" />
    <glyph glyph-name="braceleft" unicode="{" horiz-adv-x="307" 
d="M271 580l-52 -2q-38 -3 -38 -47v-12l9 -146v-12q0 -32 -12 -56q-14 -25 -35 -35q20 -9 35 -34q12 -22 12 -56v-11l-9 -149v-13q0 -23 9 -33q10 -9 29 -10l52 -2v-80h-62q-57 0 -91 32q-31 33 -31 90v13l10 152v12q0 22 -11 35q-10 13 -30 13h-26v84h26q20 0 30 12
q11 13 11 37v12l-10 151v12q0 59 33 90q34 32 91 32h60v-79z" />
    <glyph glyph-name="bar" unicode="|" horiz-adv-x="199" 
d="M146 720v-770h-93v770h93z" />
    <glyph glyph-name="braceright" unicode="}" horiz-adv-x="307" 
d="M99 659q58 0 89 -31q32 -32 32 -90v-13l-10 -153v-11q0 -23 11 -36q11 -12 30 -12h26v-84h-26q-19 0 -30 -12q-11 -13 -11 -38v-11l10 -151v-13q0 -58 -33 -90q-34 -32 -91 -32h-59v80l51 2q39 2 39 46v12l-9 147v11q0 32 12 56q14 25 34 35q-19 10 -34 34q-12 22 -12 56
v12l9 149v12q0 23 -10 32q-11 11 -29 12l-51 2v79h62z" />
    <glyph glyph-name="asciitilde" unicode="~" horiz-adv-x="480" 
d="M48 341q20 37 51 57q32 20 73 20q23 0 42 -8q15 -7 32 -17l30 -17q14 -8 33 -8q27 0 41 10q16 8 30 27l52 -51q-16 -35 -48 -55q-29 -19 -70 -19q-25 0 -44 8q-17 7 -35 18l-31 17q-14 8 -33 8q-27 0 -46 -10q-19 -11 -30 -27z" />
    <glyph glyph-name="exclamdown" unicode="&#xa1;" horiz-adv-x="239" 
d="M71 -218v532h97v-532h-97zM120 386q-28 0 -47 18q-20 18 -20 47t20 47q19 18 47 18q26 0 46 -18t20 -47t-20 -47t-46 -18z" />
    <glyph glyph-name="sterling" unicode="&#xa3;" horiz-adv-x="690" 
d="M136 352q-5 11 -24 58q-10 35 -10 76q0 36 12 67q14 32 37 57t60 40q37 14 83 14q64 0 107 -22t71 -62l-69 -59q-37 57 -108 57q-44 0 -71 -27q-25 -28 -25 -71q0 -27 8 -56q6 -21 22 -50l148 36l19 -86l-131 -29q11 -35 11 -67q0 -31 -10 -58q-10 -30 -30 -55
q30 0 55 -6q7 -2 25 -6.5t28 -6.5q17 -6 53 -14q27 -6 57 -6q47 0 73 23q25 22 25 63q0 22 -4 37q-3 16 -11 34l80 25q15 -25 22 -50q8 -29 8 -53q0 -74 -49 -119q-48 -47 -140 -47q-34 0 -64 6q-9 2 -27.5 6.5t-27.5 6.5q-16 5 -55 14q-28 7 -62 7t-67 -9q-34 -8 -68 -27
l-34 70l48 28q38 22 58 56q19 32 19 75q0 25 -8 52l-96 -22l-18 81z" />
    <glyph glyph-name="currency" unicode="&#xa4;" horiz-adv-x="475" 
d="M157 495q34 19 82 19q46 0 80 -19l54 51l63 -62l-46 -51q12 -18 18 -41t6 -47q0 -23 -6 -43q-8 -22 -18 -41l45 -49l-62 -60l-52 46q-19 -9 -39 -14q-23 -5 -43 -5q-22 0 -45 5q-22 6 -39 15l-54 -49l-62 62l47 51q-23 38 -23 82q0 49 25 86l-49 53l62 63zM239 435
q-39 0 -65 -23q-25 -22 -25 -65q0 -39 25 -64t65 -25t65 25q24 25 24 64q0 43 -24 65q-26 23 -65 23z" />
    <glyph glyph-name="yen" unicode="&#xa5;" horiz-adv-x="697" 
d="M247 331l-209 321h114l197 -317h10l189 317h110l-202 -321l102 -3v-77h-418v77zM533 192v-74l-135 -5v-113h-97v113l-135 5v74h367z" />
    <glyph glyph-name="brokenbar" unicode="&#xa6;" horiz-adv-x="199" 
d="M146 720v-356h-93v356h93zM146 305v-355h-93v355h93z" />
    <glyph glyph-name="section" unicode="&#xa7;" horiz-adv-x="564" 
d="M429 578q-67 45 -145 45q-49 0 -72 -17q-23 -15 -23 -45q0 -27 19 -43q20 -16 51 -24l105 -25q69 -17 108 -54t39 -104q0 -40 -23 -77q-26 -36 -64 -54q24 -16 34 -38q11 -25 11 -53q0 -65 -53 -106q-53 -40 -148 -40q-59 0 -107 13q-49 12 -94 39l38 76q39 -22 82 -35
q45 -10 83 -10q54 0 79 18t25 47q0 51 -62 63l-116 26q-71 15 -107 56q-36 40 -36 104q0 45 22 77q23 34 64 53q-20 17 -33 40q-13 25 -13 54q0 34 15 59q14 27 40 44q23 17 60 28q31 10 74 10q54 0 104 -13q47 -16 86 -43zM358 230q29 8 44 29q16 20 16 50q0 63 -75 79
l-139 32q-27 -7 -43 -28q-15 -21 -15 -49q0 -66 73 -82z" />
    <glyph glyph-name="dieresis" unicode="&#xa8;" horiz-adv-x="433" 
d="M103 735q26 0 45 -17q19 -18 19 -45t-19 -45q-19 -17 -45 -17q-25 0 -45 17q-18 18 -18 45t18 45q20 17 45 17zM329 735q25 0 45 -17q18 -18 18 -45t-18 -45q-20 -17 -45 -17t-45 17q-18 18 -18 45t18 45q20 17 45 17z" />
    <glyph glyph-name="copyright" unicode="&#xa9;" horiz-adv-x="887" 
d="M554 423q-23 20 -46 30q-24 9 -56 9q-28 0 -49 -10t-37 -26q-17 -19 -24 -39q-9 -23 -9 -47q0 -60 34 -91t84 -31q30 0 62 10q32 13 51 30l43 -58q-35 -32 -73 -45q-40 -14 -89 -14q-39 0 -80 13q-39 16 -65 40q-27 24 -42 62q-16 36 -16 84q0 43 16 78q17 38 44 64
q31 27 66 41q36 15 81 15q48 0 84 -13q40 -14 70 -43zM443 715q79 0 149 -27q72 -26 122 -76q51 -45 84 -118q30 -71 30 -155t-31 -152q-30 -66 -83 -119q-56 -50 -123 -77q-69 -28 -148 -28t-151 27q-71 26 -122 76q-51 47 -82 118q-30 69 -30 155q0 81 32 151
q30 66 85 120q53 49 123 77q69 28 145 28zM443 632q-57 0 -111 -20q-56 -22 -94 -60q-39 -35 -66 -92q-24 -54 -24 -121q0 -66 22 -123q25 -57 63 -92q42 -39 93 -58q55 -20 117 -20q60 0 115 20q52 21 94 60q40 39 64 92q23 55 23 121q0 72 -23 125q-20 52 -62 92
q-44 39 -94 56q-51 20 -117 20z" />
    <glyph glyph-name="guillemotleft" unicode="&#xab;" horiz-adv-x="478" 
d="M251 388l-105 -125l105 -129l-61 -50l-147 164v25l147 165zM435 393l-103 -131l102 -134l-61 -48l-148 168v26l149 167z" />
    <glyph glyph-name="logicalnot" unicode="&#xac;" horiz-adv-x="453" 
d="M405 438v-217h-83l-10 131h-254v86h347z" />
    <glyph glyph-name="uni00AD" unicode="&#xad;" horiz-adv-x="428" 
d="M364 324v-84h-301v84h301z" />
    <glyph glyph-name="registered" unicode="&#xae;" horiz-adv-x="607" 
d="M303 750q59 0 106 -19q48 -20 83 -53q35 -37 52 -80q19 -45 19 -100q0 -56 -19 -100q-20 -49 -54 -80q-31 -32 -82 -53q-47 -19 -105 -19q-60 0 -105 19q-51 21 -82 53q-34 31 -54 80q-19 44 -19 100q0 55 19 100q20 47 54 80q31 32 82 53q45 19 105 19zM303 681
q-41 0 -77 -14q-34 -13 -58 -39q-24 -24 -36 -58q-13 -32 -13 -72q0 -39 13 -72q12 -32 36 -58t58 -39q36 -14 77 -14q43 0 77 14q34 13 59 39q23 25 37 58q12 34 12 72t-12 72q-14 33 -37 58q-25 25 -59 38q-33 15 -77 15zM321 615q43 0 71 -25q25 -28 25 -61
q0 -25 -14 -45q-13 -19 -35 -27l43 -71h-65l-32 56h-47v-56h-56v229h110zM267 493h48q22 0 31 10q11 10 11 26q0 35 -42 35h-48v-71z" />
    <glyph glyph-name="macron" unicode="&#xaf;" horiz-adv-x="422" 
d="M374 716v-82h-327v82h327z" />
    <glyph glyph-name="degree" unicode="&#xb0;" horiz-adv-x="413" 
d="M207 684q35 0 65 -12q29 -12 52 -33q20 -20 34 -50q12 -29 12 -63t-12 -63q-14 -30 -34 -51q-23 -21 -52 -33q-30 -12 -65 -12t-65 12q-29 12 -52 33q-21 20 -34 50q-13 27 -13 64q0 36 13 63q13 30 34 50q23 21 52 33q30 12 65 12zM207 608q-37 0 -60 -23
q-22 -22 -22 -59q0 -38 23 -60q21 -23 59 -23q36 0 59 23q22 22 22 60q0 35 -22 59q-25 23 -59 23z" />
    <glyph glyph-name="plusminus" unicode="&#xb1;" horiz-adv-x="523" 
d="M307 645v-158h153v-83h-153v-144h-91v144h-153v83h153v158h91zM445 199v-84h-367v84h367z" />
    <glyph glyph-name="acute" unicode="&#xb4;" horiz-adv-x="259" 
d="M217 760l-82 -139h-85l85 187z" />
    <glyph glyph-name="paragraph" unicode="&#xb6;" horiz-adv-x="546" 
d="M502 456l-62 -20v-309q0 -73 -26 -131q-24 -57 -85 -103l-161 -119l-42 54l96 78v327q-11 -7 -27 -10q-15 -3 -30 -3q-25 0 -49 8q-23 9 -40 26q-19 21 -28 44q-10 27 -10 58q0 35 13 64q15 30 36 48q25 21 55 31q31 11 68 11h163q29 0 60 3q34 3 57 10zM301 -33l17 13
q21 18 31 48q11 35 11 72v336h-59v-469zM200 436q-34 0 -54 -20q-22 -18 -22 -55q0 -33 17 -50q16 -16 40 -16t41 11v130h-22z" />
    <glyph glyph-name="periodcentered" unicode="&#xb7;" horiz-adv-x="244" 
d="M122 358q28 0 48 -18q21 -19 21 -50q0 -30 -21 -48q-19 -19 -48 -19t-48 19q-21 18 -21 48t21 50q20 18 48 18z" />
    <glyph glyph-name="cedilla" unicode="&#xb8;" horiz-adv-x="257" 
d="M159 18l-7 -74q29 -8 47 -32q18 -26 18 -61q0 -55 -37 -95q-38 -41 -119 -63l-22 62q50 16 73 39q21 21 21 47q0 27 -18 40q-17 12 -57 14v19l21 43v61h80z" />
    <glyph glyph-name="guillemotright" unicode="&#xbb;" horiz-adv-x="477" 
d="M435 274v-26l-147 -165l-61 51l105 125l-105 129l61 50zM253 274v-26l-149 -168l-60 49l103 130l-103 134l61 48z" />
    <glyph glyph-name="onequarter" unicode="&#xbc;" horiz-adv-x="736" 
d="M175 617v-347h-80v233l-47 -23l-35 56l109 85zM555 595l-390 -636l-61 35l390 636zM666 348v-218h42v-69l-42 -5v-56h-77v56h-211v64l200 228h88zM477 130h112v129z" />
    <glyph glyph-name="onehalf" unicode="&#xbd;" horiz-adv-x="772" 
d="M175 617v-347h-80v233l-47 -23l-35 56l109 85zM553 595l-390 -636l-60 35l390 636zM738 0h-284v62l150 95q26 17 41 35t15 41t-16 37q-19 14 -52 14q-31 0 -56 -11q-23 -10 -48 -31l-41 54q64 58 149 58q63 0 104 -32q39 -32 39 -84q0 -42 -20 -70q-18 -28 -58 -52
l-70 -42h147v-74z" />
    <glyph glyph-name="threequarters" unicode="&#xbe;" horiz-adv-x="816" 
d="M190 483q38 0 38 31q0 37 -56 37q-58 0 -95 -31l-45 51q32 27 66 40q32 13 80 13q59 0 95 -28q35 -30 35 -74q0 -20 -8 -36q-6 -16 -25 -29q24 -9 36 -31q12 -21 12 -47q0 -23 -9 -44t-28 -37q-17 -14 -46 -24t-67 -10q-45 0 -81 11q-37 11 -71 39l37 57q24 -17 57 -27
q33 -7 60 -7q32 0 49 11q18 12 18 32q0 33 -44 33h-89v70h81zM638 595l-390 -636l-60 35l390 636zM746 348v-218h42v-69l-42 -5v-56h-77v56h-211v64l200 228h88zM557 130h112v129z" />
    <glyph glyph-name="questiondown" unicode="&#xbf;" horiz-adv-x="524" 
d="M550 -136q-55 -46 -114 -65q-63 -20 -132 -20q-55 0 -103 14q-47 14 -80 42q-33 26 -53 67q-19 39 -19 91q0 79 47 135q46 55 134 76q37 9 53 28q15 20 15 44q0 16 -5 34l86 10q11 -27 11 -59q0 -50 -31 -84q-31 -36 -92 -52q-66 -18 -93 -51t-27 -81q0 -60 43 -94
q41 -34 114 -34q58 0 106 18q49 18 90 52zM331 386q-27 0 -47 18t-20 47t20 47t47 18t47 -18q19 -18 19 -47t-19 -47q-20 -18 -47 -18z" />
    <glyph glyph-name="Agrave" unicode="&#xc0;" horiz-adv-x="762" 
d="M440 671l281 -671h-112l-60 152h-339l-59 -152h-109l279 671h119zM244 240h271l-129 328h-12zM322 974l88 -202h-90l-85 159z" />
    <glyph glyph-name="Aacute" unicode="&#xc1;" horiz-adv-x="762" 
d="M440 671l281 -671h-112l-60 152h-339l-59 -152h-109l279 671h119zM244 240h271l-129 328h-12zM527 931l-84 -159h-90l88 202z" />
    <glyph glyph-name="Acircumflex" unicode="&#xc2;" horiz-adv-x="762" 
d="M440 671l281 -671h-112l-60 152h-339l-59 -152h-109l279 671h119zM244 240h271l-129 328h-12zM392 935l136 -129v-10l-48 -50l-100 87l-99 -87l-49 50v10l137 129h23z" />
    <glyph glyph-name="Atilde" unicode="&#xc3;" horiz-adv-x="762" 
d="M440 671l281 -671h-112l-60 152h-339l-59 -152h-109l279 671h119zM244 240h271l-129 328h-12zM188 817q19 37 52 59q31 22 74 22q23 0 42 -8q15 -6 33 -17q20 -12 30 -17q16 -8 34 -8q26 0 42 10q17 9 27 27l52 -47q-16 -36 -48 -56q-29 -19 -68 -19q-25 0 -46 8
q-16 6 -34 17q-19 12 -32 18q-16 8 -35 8q-26 0 -45 -11q-16 -10 -30 -29z" />
    <glyph glyph-name="Adieresis" unicode="&#xc4;" horiz-adv-x="762" 
d="M440 671l281 -671h-112l-60 152h-339l-59 -152h-109l279 671h119zM244 240h271l-129 328h-12zM252 902q29 0 48 -19q21 -19 21 -50q0 -27 -21 -47q-20 -18 -48 -18t-47 18q-20 20 -20 47q0 30 20 50q19 19 47 19zM507 902q29 0 49 -19q20 -20 20 -50q0 -27 -20 -47
q-21 -18 -49 -18q-27 0 -47 18q-20 20 -20 47q0 30 20 50q19 19 47 19z" />
    <glyph glyph-name="Aring" unicode="&#xc5;" horiz-adv-x="762" 
d="M440 671l281 -671h-112l-60 152h-339l-59 -152h-109l279 671h119zM244 240h271l-129 328h-12zM380 986q29 0 52 -10q21 -10 40 -27q17 -18 25 -39q9 -21 9 -45q0 -23 -9 -46q-7 -17 -25 -39q-20 -17 -40 -26q-23 -10 -52 -10q-31 0 -52 10q-25 11 -40 26q-17 17 -26 39
q-8 24 -8 46q0 24 9 45q8 21 25 39q19 17 40 27q23 10 52 10zM380 918q-26 0 -39 -15q-14 -16 -14 -38q0 -23 15 -38q14 -15 38 -15t39 15t15 38t-15 38t-39 15z" />
    <glyph glyph-name="AE" unicode="&#xc6;" horiz-adv-x="1072" 
d="M996 670v-89h-372v-189h326v-88h-326v-214h390v-90h-490v152h-286l-92 -152h-123l425 670h548zM291 240h233v341h-25z" />
    <glyph glyph-name="Ccedilla" unicode="&#xc7;" horiz-adv-x="727" 
d="M617 523q-83 70 -205 70q-58 0 -106 -18q-48 -19 -80 -52q-34 -34 -52 -81q-19 -47 -19 -107q0 -61 19 -108q20 -50 53 -81q35 -34 81 -51q45 -18 101 -18q63 0 119 21q56 23 99 62l57 -70q-52 -51 -116 -76q-64 -24 -144 -27l-4 -43q32 -10 52 -38q19 -25 19 -63
q0 -60 -41 -101q-38 -41 -121 -61l-26 63q52 13 79 39q25 27 25 54q0 29 -23 40q-22 12 -60 14v23l20 39v37q-66 9 -120 36q-54 28 -91 71q-38 44 -59 103q-21 60 -21 133q0 71 25 138q28 66 74 111q46 47 115 75q67 27 154 27q71 0 137 -24q64 -23 112 -65z" />
    <glyph glyph-name="Egrave" unicode="&#xc8;" 
d="M565 670v-89h-382v-189h336v-88h-336v-214h400v-90h-500v670h482zM297 974l88 -202h-90l-85 159z" />
    <glyph glyph-name="Eacute" unicode="&#xc9;" 
d="M565 670v-89h-382v-189h336v-88h-336v-214h400v-90h-500v670h482zM462 931l-84 -159h-90l88 202z" />
    <glyph glyph-name="Ecircumflex" unicode="&#xca;" 
d="M565 670v-89h-382v-189h336v-88h-336v-214h400v-90h-500v670h482zM346 935l136 -129v-10l-48 -50l-100 87l-99 -87l-49 50v10l137 129h23z" />
    <glyph glyph-name="Edieresis" unicode="&#xcb;" 
d="M565 670v-89h-382v-189h336v-88h-336v-214h400v-90h-500v670h482zM204 902q29 0 48 -19q21 -19 21 -50q0 -27 -21 -47q-20 -18 -48 -18t-47 18q-20 20 -20 47q0 30 20 50q19 19 47 19zM459 902q29 0 49 -19q20 -20 20 -50q0 -27 -20 -47q-21 -18 -49 -18q-27 0 -47 18
q-20 20 -20 47q0 30 20 50q19 19 47 19z" />
    <glyph glyph-name="Igrave" unicode="&#xcc;" horiz-adv-x="269" 
d="M186 670v-670h-103v670h103zM93 974l88 -202h-90l-85 159z" />
    <glyph glyph-name="Iacute" unicode="&#xcd;" horiz-adv-x="269" 
d="M186 670v-670h-103v670h103zM271 931l-84 -159h-90l88 202z" />
    <glyph glyph-name="Icircumflex" unicode="&#xce;" horiz-adv-x="269" 
d="M186 670v-670h-103v670h103zM148 935l136 -129v-10l-48 -50l-100 87l-99 -87l-49 50v10l137 129h23z" />
    <glyph glyph-name="Idieresis" unicode="&#xcf;" horiz-adv-x="269" 
d="M186 670v-670h-103v670h103zM33 902q28 0 47 -18q20 -20 20 -49q0 -28 -20 -45q-20 -18 -47 -18t-46 18q-20 17 -20 45q0 29 20 49q19 18 46 18zM238 902q28 0 47 -18q20 -20 20 -49q0 -28 -20 -45q-19 -18 -47 -18q-27 0 -46 18q-20 17 -20 45q0 29 20 49q20 18 46 18z
" />
    <glyph glyph-name="Eth" unicode="&#xd0;" horiz-adv-x="742" 
d="M333 670q82 0 148 -24q66 -26 112 -70q44 -41 71 -106q24 -60 24 -135q0 -74 -26 -135q-24 -59 -72 -106q-46 -43 -113 -69q-65 -25 -147 -25h-233v287l-75 5v87h75v291h236zM198 379h190v-91h-190v-199h132q54 0 102 17q45 16 82 49q31 29 54 77q19 49 19 103
q0 120 -69 183q-68 63 -189 63h-131v-202z" />
    <glyph glyph-name="Ntilde" unicode="&#xd1;" horiz-adv-x="752" 
d="M669 670v-670h-100l-388 508v-508h-98v670h91l398 -521v521h97zM183 817q19 37 52 59q31 22 74 22q23 0 42 -8q15 -6 33 -17q20 -12 30 -17q16 -8 34 -8q26 0 42 10q16 9 27 27l52 -47q-16 -36 -47 -56q-31 -19 -69 -19q-25 0 -46 8q-13 5 -35 17q-15 10 -30 18
q-18 8 -36 8q-27 0 -44 -11q-16 -10 -31 -29z" />
    <glyph glyph-name="Ograve" unicode="&#xd2;" horiz-adv-x="811" 
d="M405 684q78 0 144 -26q64 -27 111 -74q44 -44 72 -111q25 -67 25 -138q0 -69 -25 -135q-27 -64 -72 -112q-50 -49 -112 -74q-62 -28 -143 -28q-80 0 -143 27q-63 26 -112 75q-45 46 -72 110q-25 67 -25 137q0 71 26 137q26 65 73 110q44 46 110 74q65 28 143 28zM405 595
q-59 0 -105 -20q-46 -19 -79 -55t-49 -82q-17 -49 -17 -103t17 -103q18 -47 50 -82t78 -55q49 -20 105 -20q57 0 105 19q47 21 80 55q33 36 49 83q17 48 17 103q0 57 -18 105q-16 44 -49 82q-31 32 -79 54q-49 19 -105 19zM358 974l88 -202h-90l-85 159z" />
    <glyph glyph-name="Oacute" unicode="&#xd3;" horiz-adv-x="811" 
d="M405 684q78 0 144 -26q64 -27 111 -74q44 -44 72 -111q25 -67 25 -138q0 -69 -25 -135q-27 -64 -72 -112q-50 -49 -112 -74q-62 -28 -143 -28q-80 0 -143 27q-63 26 -112 75q-45 46 -72 110q-25 67 -25 137q0 71 26 137q26 65 73 110q44 46 110 74q65 28 143 28zM405 595
q-59 0 -105 -20q-46 -19 -79 -55t-49 -82q-17 -49 -17 -103t17 -103q18 -47 50 -82t78 -55q49 -20 105 -20q57 0 105 19q47 21 80 55q33 36 49 83q17 48 17 103q0 57 -18 105q-16 44 -49 82q-31 32 -79 54q-49 19 -105 19zM547 931l-84 -159h-90l88 202z" />
    <glyph glyph-name="Ocircumflex" unicode="&#xd4;" horiz-adv-x="811" 
d="M405 684q78 0 144 -26q64 -27 111 -74q44 -44 72 -111q25 -67 25 -138q0 -69 -25 -135q-27 -64 -72 -112q-50 -49 -112 -74q-62 -28 -143 -28q-80 0 -143 27q-63 26 -112 75q-45 46 -72 110q-25 67 -25 137q0 71 26 137q26 65 73 110q44 46 110 74q65 28 143 28zM405 595
q-59 0 -105 -20q-46 -19 -79 -55t-49 -82q-17 -49 -17 -103t17 -103q18 -47 50 -82t78 -55q49 -20 105 -20q57 0 105 19q47 21 80 55q33 36 49 83q17 48 17 103q0 57 -18 105q-16 44 -49 82q-31 32 -79 54q-49 19 -105 19zM417 935l136 -129v-10l-48 -50l-100 87l-99 -87
l-49 50v10l137 129h23z" />
    <glyph glyph-name="Otilde" unicode="&#xd5;" horiz-adv-x="811" 
d="M405 684q78 0 144 -26q64 -27 111 -74q44 -44 72 -111q25 -67 25 -138q0 -69 -25 -135q-27 -64 -72 -112q-50 -49 -112 -74q-62 -28 -143 -28q-80 0 -143 27q-63 26 -112 75q-45 46 -72 110q-25 67 -25 137q0 71 26 137q26 65 73 110q44 46 110 74q65 28 143 28zM405 595
q-59 0 -105 -20q-46 -19 -79 -55t-49 -82q-17 -49 -17 -103t17 -103q18 -47 50 -82t78 -55q49 -20 105 -20q57 0 105 19q47 21 80 55q33 36 49 83q17 48 17 103q0 57 -18 105q-16 44 -49 82q-31 32 -79 54q-49 19 -105 19zM213 817q19 37 52 59q31 22 74 22q23 0 42 -8
q15 -6 33 -17q20 -12 30 -17q16 -8 34 -8q26 0 42 10q16 9 27 27l52 -47q-16 -36 -47 -56q-31 -19 -69 -19q-25 0 -46 8q-13 5 -35 17q-15 10 -30 18q-18 8 -36 8q-27 0 -44 -11q-16 -10 -31 -29z" />
    <glyph glyph-name="Odieresis" unicode="&#xd6;" horiz-adv-x="811" 
d="M405 684q78 0 144 -26q64 -27 111 -74q44 -44 72 -111q25 -67 25 -138q0 -69 -25 -135q-27 -64 -72 -112q-50 -49 -112 -74q-62 -28 -143 -28q-80 0 -143 27q-63 26 -112 75q-45 46 -72 110q-25 67 -25 137q0 71 26 137q26 65 73 110q44 46 110 74q65 28 143 28zM405 595
q-59 0 -105 -20q-46 -19 -79 -55t-49 -82q-17 -49 -17 -103t17 -103q18 -47 50 -82t78 -55q49 -20 105 -20q57 0 105 19q47 21 80 55q33 36 49 83q17 48 17 103q0 57 -18 105q-16 44 -49 82q-31 32 -79 54q-49 19 -105 19zM277 902q29 0 49 -19q20 -20 20 -50q0 -27 -20 -47
q-21 -18 -49 -18q-27 0 -47 18q-20 20 -20 47q0 30 20 50q19 19 47 19zM532 902q29 0 48 -19q21 -19 21 -50q0 -27 -21 -47q-20 -18 -48 -18t-47 18q-20 20 -20 47q0 30 20 50q19 19 47 19z" />
    <glyph glyph-name="multiply" unicode="&#xd7;" horiz-adv-x="511" 
d="M256 394l113 114l58 -59l-112 -113l112 -113l-59 -59l-112 113l-114 -113l-59 59l113 113l-113 113l59 60z" />
    <glyph glyph-name="Oslash" unicode="&#xd8;" horiz-adv-x="811" 
d="M710 670l-57 -80q50 -48 77 -112q27 -66 27 -143q0 -69 -25 -135q-27 -64 -72 -112q-50 -49 -112 -74q-62 -28 -143 -28q-44 0 -85 9q-39 9 -75 26l-62 -85l-76 55l59 82q-54 48 -84 115q-29 69 -29 147q0 71 26 137q26 65 73 110q44 46 110 74q65 28 143 28q50 0 91 -10
q45 -11 80 -29l57 80zM522 570q-51 25 -117 25q-59 0 -105 -20q-46 -19 -79 -55t-49 -82q-17 -49 -17 -103q0 -113 66 -184zM299 97q24 -11 49 -17q30 -5 57 -5q57 0 105 19q47 21 80 55q33 36 49 83q17 48 17 103q0 107 -60 176z" />
    <glyph glyph-name="Ugrave" unicode="&#xd9;" horiz-adv-x="754" 
d="M186 670v-364q0 -111 48 -171q50 -60 143 -60t141 56q50 54 50 173v366h103v-367q0 -73 -19 -131q-19 -59 -55 -100q-40 -43 -92 -64q-58 -22 -128 -22q-73 0 -127 22q-51 21 -92 62q-38 44 -56 99q-19 57 -19 131v370h103zM339 974l88 -202h-90l-85 159z" />
    <glyph glyph-name="Uacute" unicode="&#xda;" horiz-adv-x="754" 
d="M186 670v-364q0 -111 48 -171q50 -60 143 -60t141 56q50 54 50 173v366h103v-367q0 -73 -19 -131q-19 -59 -55 -100q-40 -43 -92 -64q-58 -22 -128 -22q-73 0 -127 22q-51 21 -92 62q-38 44 -56 99q-19 57 -19 131v370h103zM503 931l-84 -159h-90l88 202z" />
    <glyph glyph-name="Ucircumflex" unicode="&#xdb;" horiz-adv-x="754" 
d="M186 670v-364q0 -111 48 -171q50 -60 143 -60t141 56q50 54 50 173v366h103v-367q0 -73 -19 -131q-19 -59 -55 -100q-40 -43 -92 -64q-58 -22 -128 -22q-73 0 -127 22q-51 21 -92 62q-38 44 -56 99q-19 57 -19 131v370h103zM389 935l136 -129v-10l-48 -50l-100 87
l-99 -87l-49 50v10l137 129h23z" />
    <glyph glyph-name="Udieresis" unicode="&#xdc;" horiz-adv-x="754" 
d="M186 670v-364q0 -111 48 -171q50 -60 143 -60t141 56q50 54 50 173v366h103v-367q0 -73 -19 -131q-19 -59 -55 -100q-40 -43 -92 -64q-58 -22 -128 -22q-73 0 -127 22q-51 21 -92 62q-38 44 -56 99q-19 57 -19 131v370h103zM249 902q29 0 49 -19q20 -20 20 -50
q0 -27 -20 -47q-21 -18 -49 -18q-27 0 -47 18q-20 20 -20 47q0 30 20 50q19 19 47 19zM504 902q29 0 48 -19q21 -19 21 -50q0 -27 -21 -47q-20 -18 -48 -18t-47 18q-20 20 -20 47q0 30 20 50q19 19 47 19z" />
    <glyph glyph-name="Yacute" unicode="&#xdd;" horiz-adv-x="712" 
d="M157 670l196 -351h10l193 351h118l-268 -456v-214h-100v214l-268 456h119zM487 931l-84 -159h-90l88 202z" />
    <glyph glyph-name="Thorn" unicode="&#xde;" horiz-adv-x="644" 
d="M186 684v-101h161q58 0 103 -17q44 -15 80 -46q34 -31 52 -74q19 -41 19 -94q0 -56 -21 -98q-19 -43 -56 -74q-34 -30 -84 -47q-48 -16 -104 -16h-150v-117h-103v684h103zM186 205h149q76 0 121 39q43 38 43 107t-40 105q-39 38 -118 38h-155v-289z" />
    <glyph glyph-name="germandbls" unicode="&#xdf;" horiz-adv-x="681" 
d="M73 556q0 46 15 82q13 39 40 64q25 26 61 40q36 15 78 15q47 0 80 -13q36 -13 59 -34t35 -50q12 -30 12 -63q0 -43 -17 -74q-18 -30 -46 -49q-50 -32 -50 -76q0 -25 16 -39q20 -15 57 -22l52 -11q84 -16 129 -58q43 -40 43 -110q0 -36 -15 -68q-12 -29 -42 -54
q-28 -22 -68 -35t-96 -13q-49 0 -94 12q-44 11 -89 41l40 75q38 -25 71 -34q39 -11 77 -11q57 0 89 23q32 21 32 61q0 36 -22 56q-26 21 -68 28l-52 9q-76 12 -114 50q-38 36 -38 97q0 37 18 66q16 29 42 48q22 18 36 39q13 20 13 47q0 31 -21 54t-67 23q-49 0 -74 -30
q-26 -32 -26 -86v-556h-96v556z" />
    <glyph glyph-name="agrave" unicode="&#xe0;" horiz-adv-x="623" 
d="M79 463q55 34 102 45q48 14 108 14q119 0 174 -54q55 -55 55 -151v-187q0 -30 11 -46q11 -13 29 -13q12 0 21 4l9 -74q-20 -10 -51 -10q-40 0 -63 19q-27 18 -34 67q-65 -89 -198 -89q-91 0 -144 44q-52 43 -52 126q0 78 61 121q62 44 167 44q44 0 80 -7q40 -8 69 -18v28
q0 54 -32 83q-31 28 -100 28q-90 0 -173 -44zM424 222q-63 22 -146 22q-72 0 -102 -24q-31 -25 -31 -64q0 -41 29 -64q30 -21 86 -21q34 0 64 9q27 10 52 27q21 17 35 41q13 22 13 52v22zM341 621h-85l-82 139l82 48z" />
    <glyph glyph-name="aacute" unicode="&#xe1;" horiz-adv-x="623" 
d="M79 463q55 34 102 45q48 14 108 14q119 0 174 -54q55 -55 55 -151v-187q0 -30 11 -46q11 -13 29 -13q12 0 21 4l9 -74q-20 -10 -51 -10q-40 0 -63 19q-27 18 -34 67q-65 -89 -198 -89q-91 0 -144 44q-52 43 -52 126q0 78 61 121q62 44 167 44q44 0 80 -7q40 -8 69 -18v28
q0 54 -32 83q-31 28 -100 28q-90 0 -173 -44zM424 222q-63 22 -146 22q-72 0 -102 -24q-31 -25 -31 -64q0 -41 29 -64q30 -21 86 -21q34 0 64 9q27 10 52 27q21 17 35 41q13 22 13 52v22zM429 760l-82 -139h-85l85 187z" />
    <glyph glyph-name="acircumflex" unicode="&#xe2;" horiz-adv-x="623" 
d="M79 463q55 34 102 45q48 14 108 14q119 0 174 -54q55 -55 55 -151v-187q0 -30 11 -46q11 -13 29 -13q12 0 21 4l9 -74q-20 -10 -51 -10q-40 0 -63 19q-27 18 -34 67q-65 -89 -198 -89q-91 0 -144 44q-52 43 -52 126q0 78 61 121q62 44 167 44q44 0 80 -7q40 -8 69 -18v28
q0 54 -32 83q-31 28 -100 28q-90 0 -173 -44zM424 222q-63 22 -146 22q-72 0 -102 -24q-31 -25 -31 -64q0 -41 29 -64q30 -21 86 -21q34 0 64 9q27 10 52 27q21 17 35 41q13 22 13 52v22zM295 677l-94 -84l-47 49v10l133 127h21l133 -127v-10l-46 -49z" />
    <glyph glyph-name="atilde" unicode="&#xe3;" horiz-adv-x="623" 
d="M79 463q55 34 102 45q48 14 108 14q119 0 174 -54q55 -55 55 -151v-187q0 -30 11 -46q11 -13 29 -13q12 0 21 4l9 -74q-20 -10 -51 -10q-40 0 -63 19q-27 18 -34 67q-65 -89 -198 -89q-91 0 -144 44q-52 43 -52 126q0 78 61 121q62 44 167 44q44 0 80 -7q40 -8 69 -18v28
q0 54 -32 83q-31 28 -100 28q-90 0 -173 -44zM424 222q-63 22 -146 22q-72 0 -102 -24q-31 -25 -31 -64q0 -41 29 -64q30 -21 86 -21q34 0 64 9q27 10 52 27q21 17 35 41q13 22 13 52v22zM112 662q23 37 52 54q29 20 71 20q25 0 41 -8q15 -6 30 -16q16 -11 28 -16
q13 -8 35 -8q24 0 41 10q18 10 29 25l47 -48q-16 -31 -44 -51q-28 -19 -69 -19q-22 0 -43 8q-12 5 -34 17q-20 12 -30 17q-18 8 -35 8q-27 0 -43 -9q-20 -11 -32 -28z" />
    <glyph glyph-name="adieresis" unicode="&#xe4;" horiz-adv-x="623" 
d="M79 463q55 34 102 45q48 14 108 14q119 0 174 -54q55 -55 55 -151v-187q0 -30 11 -46q11 -13 29 -13q12 0 21 4l9 -74q-20 -10 -51 -10q-40 0 -63 19q-27 18 -34 67q-65 -89 -198 -89q-91 0 -144 44q-52 43 -52 126q0 78 61 121q62 44 167 44q44 0 80 -7q40 -8 69 -18v28
q0 54 -32 83q-31 28 -100 28q-90 0 -173 -44zM424 222q-63 22 -146 22q-72 0 -102 -24q-31 -25 -31 -64q0 -41 29 -64q30 -21 86 -21q34 0 64 9q27 10 52 27q21 17 35 41q13 22 13 52v22zM185 735q26 0 45 -17q19 -18 19 -45t-19 -45q-19 -17 -45 -17q-25 0 -45 17
q-18 18 -18 45t18 45q20 17 45 17zM411 735q25 0 45 -17q18 -18 18 -45t-18 -45q-20 -17 -45 -17t-45 17q-18 18 -18 45t18 45q20 17 45 17z" />
    <glyph glyph-name="aring" unicode="&#xe5;" horiz-adv-x="623" 
d="M79 463q55 34 102 45q48 14 108 14q119 0 174 -54q55 -55 55 -151v-187q0 -30 11 -46q11 -13 29 -13q12 0 21 4l9 -74q-20 -10 -51 -10q-40 0 -63 19q-27 18 -34 67q-65 -89 -198 -89q-91 0 -144 44q-52 43 -52 126q0 78 61 121q62 44 167 44q44 0 80 -7q40 -8 69 -18v28
q0 54 -32 83q-31 28 -100 28q-90 0 -173 -44zM424 222q-63 22 -146 22q-72 0 -102 -24q-31 -25 -31 -64q0 -41 29 -64q30 -21 86 -21q34 0 64 9q27 10 52 27q21 17 35 41q13 22 13 52v22zM299 816q28 0 49 -10q22 -9 37 -24q16 -17 23 -36q9 -20 9 -42q0 -24 -9 -43
q-7 -19 -23 -36q-15 -16 -37 -25t-49 -9t-50 9q-22 9 -37 25q-16 17 -23 36q-8 21 -8 43t9 42q7 19 23 36q15 15 37 24q21 10 49 10zM299 755q-25 0 -39 -15q-13 -14 -13 -36t13 -38q16 -14 39 -14q25 0 39 14q14 16 14 38t-14 36q-15 15 -39 15z" />
    <glyph glyph-name="ae" unicode="&#xe6;" horiz-adv-x="957" 
d="M508 222q7 -70 52 -110q44 -39 122 -39q52 0 90 13t83 42l44 -69q-49 -37 -103 -55q-59 -16 -120 -16q-77 0 -128 26q-52 24 -86 73q-36 -52 -96 -77q-63 -22 -125 -22q-93 0 -143 44q-53 41 -53 126q0 78 61 121q62 44 167 44q44 0 78 -7q37 -8 68 -18v28q0 55 -31 83
q-29 28 -98 28q-90 0 -173 -44l-39 71q52 32 102 44q48 14 108 14q74 0 120 -24q47 -24 73 -69q28 43 79 69q50 24 118 24q51 0 95 -18q40 -15 73 -48q33 -36 46 -76q17 -40 17 -96q0 -10 -2 -32q-1 -10 -5 -30h-394zM420 222q-59 22 -143 22q-71 0 -103 -24
q-30 -26 -30 -64q0 -42 30 -64q29 -21 85 -21q35 0 63 9q31 10 51 26q19 13 35 39q12 22 12 52v25zM811 302q-2 63 -35 99q-33 37 -102 37q-71 0 -110 -36q-42 -37 -52 -100h299z" />
    <glyph glyph-name="ccedilla" unicode="&#xe7;" horiz-adv-x="583" 
d="M476 381q-30 26 -66 41q-39 15 -88 15q-36 0 -68 -12t-57 -35q-24 -23 -38 -56q-14 -34 -14 -75q0 -85 47 -135t130 -50q46 0 89 16q43 19 70 49l59 -61q-38 -42 -88 -64t-111 -25l-4 -45q29 -8 47 -32q18 -26 18 -61q0 -55 -37 -95q-38 -41 -119 -63l-22 62q51 17 72 39
q22 21 22 47q0 27 -18 40q-17 12 -57 14v19l21 43v35q-51 7 -93 32q-40 22 -67 58q-28 32 -42 78q-14 45 -14 94q0 63 22 110q21 51 58 85q37 35 86 54q47 19 106 19q70 0 120 -20q50 -17 90 -57z" />
    <glyph glyph-name="egrave" unicode="&#xe8;" horiz-adv-x="612" 
d="M146 222q7 -70 55 -110q47 -39 125 -39q50 0 96 13q44 14 84 43l44 -69q-49 -38 -106 -56q-59 -16 -120 -16q-65 0 -116 18q-54 21 -86 54q-35 32 -55 83q-19 48 -19 111q0 56 20 107q19 48 56 85t87 56q52 20 113 20q53 0 98 -17q43 -17 76 -49q32 -32 48 -75
q18 -43 18 -97q0 -10 -2 -32q-1 -10 -5 -30h-411zM466 302q-2 62 -37 99q-36 37 -109 37q-72 0 -116 -36q-44 -38 -54 -100h316zM369 621h-85l-82 139l82 48z" />
    <glyph glyph-name="eacute" unicode="&#xe9;" horiz-adv-x="612" 
d="M146 222q7 -70 55 -110q47 -39 125 -39q50 0 96 13q44 14 84 43l44 -69q-49 -38 -106 -56q-59 -16 -120 -16q-65 0 -116 18q-54 21 -86 54q-35 32 -55 83q-19 48 -19 111q0 56 20 107q19 48 56 85t87 56q52 20 113 20q53 0 98 -17q43 -17 76 -49q32 -32 48 -75
q18 -43 18 -97q0 -10 -2 -32q-1 -10 -5 -30h-411zM466 302q-2 62 -37 99q-36 37 -109 37q-72 0 -116 -36q-44 -38 -54 -100h316zM467 760l-82 -139h-85l85 187z" />
    <glyph glyph-name="ecircumflex" unicode="&#xea;" horiz-adv-x="612" 
d="M146 222q7 -70 55 -110q47 -39 125 -39q50 0 96 13q44 14 84 43l44 -69q-49 -38 -106 -56q-59 -16 -120 -16q-65 0 -116 18q-54 21 -86 54q-35 32 -55 83q-19 48 -19 111q0 56 20 107q19 48 56 85t87 56q52 20 113 20q53 0 98 -17q43 -17 76 -49q32 -32 48 -75
q18 -43 18 -97q0 -10 -2 -32q-1 -10 -5 -30h-411zM466 302q-2 62 -37 99q-36 37 -109 37q-72 0 -116 -36q-44 -38 -54 -100h316zM323 677l-94 -84l-47 49v10l133 127h21l133 -127v-10l-46 -49z" />
    <glyph glyph-name="edieresis" unicode="&#xeb;" horiz-adv-x="612" 
d="M146 222q7 -70 55 -110q47 -39 125 -39q50 0 96 13q44 14 84 43l44 -69q-49 -38 -106 -56q-59 -16 -120 -16q-65 0 -116 18q-54 21 -86 54q-35 32 -55 83q-19 48 -19 111q0 56 20 107q19 48 56 85t87 56q52 20 113 20q53 0 98 -17q43 -17 76 -49q32 -32 48 -75
q18 -43 18 -97q0 -10 -2 -32q-1 -10 -5 -30h-411zM466 302q-2 62 -37 99q-36 37 -109 37q-72 0 -116 -36q-44 -38 -54 -100h316zM211 735q26 0 45 -17q19 -18 19 -45t-19 -45q-19 -17 -45 -17q-25 0 -45 17q-18 18 -18 45t18 45q20 17 45 17zM437 735q25 0 45 -17
q18 -18 18 -45t-18 -45q-20 -17 -45 -17t-45 17q-18 18 -18 45t18 45q20 17 45 17z" />
    <glyph glyph-name="igrave" unicode="&#xec;" horiz-adv-x="246" 
d="M173 510v-510h-100v510h100zM170 621h-85l-82 139l82 48z" />
    <glyph glyph-name="iacute" unicode="&#xed;" horiz-adv-x="246" 
d="M173 510v-510h-100v510h100zM250 760l-82 -139h-85l85 187z" />
    <glyph glyph-name="icircumflex" unicode="&#xee;" horiz-adv-x="246" 
d="M173 510v-510h-100v510h100zM122 677l-94 -84l-47 49v10l133 127h21l133 -127v-10l-46 -49z" />
    <glyph glyph-name="idieresis" unicode="&#xef;" horiz-adv-x="246" 
d="M173 510v-510h-100v510h100zM32 735q25 0 44 -17q19 -16 19 -45q0 -27 -19 -45q-19 -17 -44 -17t-44 17q-19 18 -19 45q0 29 19 45q19 17 44 17zM216 735q25 0 44 -17q19 -18 19 -45t-19 -45q-19 -17 -44 -17t-44 17q-19 16 -19 45t19 45q19 17 44 17z" />
    <glyph glyph-name="eth" unicode="&#xf0;" horiz-adv-x="632" 
d="M272 716l50 77l71 -45l-47 -75l39 -24q49 -30 89 -67q40 -38 62 -80q24 -40 37 -97q12 -54 12 -123q0 -68 -21 -124q-22 -56 -58 -92q-37 -39 -86 -58q-51 -20 -107 -20q-62 0 -113 18q-49 18 -83 51q-35 33 -51 79q-18 46 -18 103q0 53 18 98t51 78t79 51q45 19 101 19
q62 0 103 -19q43 -20 71 -48h10q-13 46 -49 87q-36 39 -93 72l-41 24l-44 -70l-73 44l43 67l-85 50l45 76zM485 270q-16 64 -64 100q-47 33 -110 33q-75 0 -119 -43q-44 -44 -44 -122q0 -79 43 -123q43 -45 121 -45q41 0 72 16q34 16 54 42q23 26 35 64q12 36 12 78z" />
    <glyph glyph-name="ntilde" unicode="&#xf1;" 
d="M150 510l10 -106q26 56 76 87q47 31 118 31q97 0 156 -56q58 -57 58 -165v-301h-97v290q0 74 -33 112q-34 36 -96 36q-61 0 -106 -40q-45 -42 -66 -112v-286h-97v510h77zM143 662q23 37 52 54q29 20 71 20q25 0 41 -8q15 -6 30 -16q16 -11 28 -16q13 -8 35 -8q24 0 41 10
q18 10 29 25l47 -48q-16 -31 -44 -51q-28 -19 -69 -19q-22 0 -43 8q-12 5 -34 17q-20 12 -30 17q-18 8 -35 8q-26 0 -43 -9q-20 -11 -32 -28z" />
    <glyph glyph-name="ograve" unicode="&#xf2;" horiz-adv-x="650" 
d="M325 522q63 0 112 -20q48 -17 88 -54q38 -36 57 -85q20 -51 20 -108t-21 -106t-57 -85q-39 -37 -88 -56q-52 -20 -111 -20q-64 0 -113 20q-48 17 -88 54q-37 37 -56 85q-20 51 -20 108q0 55 20 106q21 49 58 85q37 37 87 56q52 20 112 20zM325 439q-38 0 -75 -13
q-36 -16 -56 -38q-25 -26 -36 -59q-13 -33 -13 -74q0 -42 13 -75q13 -34 36 -58q22 -22 57 -38q36 -13 74 -13q39 0 75 13q36 16 56 38q24 24 36 58q13 33 13 75q0 41 -13 73q-13 34 -36 58q-24 26 -57 39q-34 14 -74 14zM379 621h-85l-82 139l82 48z" />
    <glyph glyph-name="oacute" unicode="&#xf3;" horiz-adv-x="650" 
d="M325 522q63 0 112 -20q48 -17 88 -54q38 -36 57 -85q20 -51 20 -108t-21 -106t-57 -85q-39 -37 -88 -56q-52 -20 -111 -20q-64 0 -113 20q-48 17 -88 54q-37 37 -56 85q-20 51 -20 108q0 55 20 106q21 49 58 85q37 37 87 56q52 20 112 20zM325 439q-38 0 -75 -13
q-36 -16 -56 -38q-25 -26 -36 -59q-13 -33 -13 -74q0 -42 13 -75q13 -34 36 -58q22 -22 57 -38q36 -13 74 -13q39 0 75 13q36 16 56 38q24 24 36 58q13 33 13 75q0 41 -13 73q-13 34 -36 58q-24 26 -57 39q-34 14 -74 14zM464 760l-82 -139h-85l85 187z" />
    <glyph glyph-name="ocircumflex" unicode="&#xf4;" horiz-adv-x="650" 
d="M325 522q63 0 112 -20q48 -17 88 -54q38 -36 57 -85q20 -51 20 -108t-21 -106t-57 -85q-39 -37 -88 -56q-52 -20 -111 -20q-64 0 -113 20q-48 17 -88 54q-37 37 -56 85q-20 51 -20 108q0 55 20 106q21 49 58 85q37 37 87 56q52 20 112 20zM325 439q-38 0 -75 -13
q-36 -16 -56 -38q-25 -26 -36 -59q-13 -33 -13 -74q0 -42 13 -75q13 -34 36 -58q22 -22 57 -38q36 -13 74 -13q39 0 75 13q36 16 56 38q24 24 36 58q13 33 13 75q0 41 -13 73q-13 34 -36 58q-24 26 -57 39q-34 14 -74 14zM322 677l-94 -84l-47 49v10l133 127h21l133 -127
v-10l-46 -49z" />
    <glyph glyph-name="otilde" unicode="&#xf5;" horiz-adv-x="650" 
d="M325 522q63 0 112 -20q48 -17 88 -54q38 -36 57 -85q20 -51 20 -108t-21 -106t-57 -85q-39 -37 -88 -56q-52 -20 -111 -20q-64 0 -113 20q-48 17 -88 54q-37 37 -56 85q-20 51 -20 108q0 55 20 106q21 49 58 85q37 37 87 56q52 20 112 20zM325 439q-38 0 -75 -13
q-36 -16 -56 -38q-25 -26 -36 -59q-13 -33 -13 -74q0 -42 13 -75q13 -34 36 -58q22 -22 57 -38q36 -13 74 -13q39 0 75 13q36 16 56 38q24 24 36 58q13 33 13 75q0 41 -13 73q-13 34 -36 58q-24 26 -57 39q-34 14 -74 14zM138 662q23 37 52 54q29 20 71 20q25 0 41 -8
q15 -6 30 -16q16 -11 28 -16q13 -8 35 -8q24 0 41 10q18 10 29 25l47 -48q-16 -31 -44 -51q-28 -19 -69 -19q-22 0 -43 8q-12 5 -34 17q-20 12 -30 17q-18 8 -35 8q-27 0 -43 -9q-20 -11 -32 -28z" />
    <glyph glyph-name="odieresis" unicode="&#xf6;" horiz-adv-x="650" 
d="M325 522q63 0 112 -20q48 -17 88 -54q38 -36 57 -85q20 -51 20 -108t-21 -106t-57 -85q-39 -37 -88 -56q-52 -20 -111 -20q-64 0 -113 20q-48 17 -88 54q-37 37 -56 85q-20 51 -20 108q0 55 20 106q21 49 58 85q37 37 87 56q52 20 112 20zM325 439q-38 0 -75 -13
q-36 -16 -56 -38q-25 -26 -36 -59q-13 -33 -13 -74q0 -42 13 -75q13 -34 36 -58q22 -22 57 -38q36 -13 74 -13q39 0 75 13q36 16 56 38q24 24 36 58q13 33 13 75q0 41 -13 73q-13 34 -36 58q-24 26 -57 39q-34 14 -74 14zM211 735q26 0 45 -17q19 -18 19 -45t-19 -45
q-19 -17 -45 -17q-25 0 -45 17q-18 18 -18 45t18 45q20 17 45 17zM437 735q25 0 45 -17q18 -18 18 -45t-18 -45q-20 -17 -45 -17t-45 17q-18 18 -18 45t18 45q20 17 45 17z" />
    <glyph glyph-name="divide" unicode="&#xf7;" horiz-adv-x="483" 
d="M420 384v-84h-357v84h357zM242 216q25 0 44 -17q19 -16 19 -45q0 -28 -19 -46q-19 -16 -44 -16t-44 16q-19 18 -19 46q0 29 19 45q19 17 44 17zM242 592q25 0 44 -17q19 -16 19 -45t-19 -45q-19 -17 -44 -17t-44 17q-19 16 -19 45t19 45q19 17 44 17z" />
    <glyph glyph-name="oslash" unicode="&#xf8;" horiz-adv-x="650" 
d="M550 521l-40 -62q43 -34 68 -87q24 -54 24 -117q0 -57 -21 -106t-57 -85q-39 -37 -88 -56q-52 -20 -111 -20q-61 0 -107 18l-48 -74l-77 48l46 70q-45 38 -67 88q-24 52 -24 117q0 55 20 106q21 49 58 85q37 37 87 56q52 20 112 20q58 0 106 -18l42 65zM266 80
q25 -9 59 -9q39 0 75 13q36 16 56 38q24 24 36 58q13 33 13 75q0 39 -12 70q-13 34 -34 55zM382 429q-18 6 -28 7q-14 3 -29 3q-38 0 -75 -13q-36 -16 -56 -38q-25 -26 -36 -59q-13 -33 -13 -74q0 -79 45 -125z" />
    <glyph glyph-name="ugrave" unicode="&#xf9;" horiz-adv-x="634" 
d="M170 510v-283q0 -79 32 -117q31 -37 90 -37q61 0 106 39q44 38 66 108v290h97v-510h-78l-9 103q-26 -56 -74 -85q-50 -30 -116 -30q-100 0 -155 57q-56 58 -56 169v296h97zM366 621h-85l-82 139l82 48z" />
    <glyph glyph-name="uacute" unicode="&#xfa;" horiz-adv-x="634" 
d="M170 510v-283q0 -79 32 -117q31 -37 90 -37q61 0 106 39q44 38 66 108v290h97v-510h-78l-9 103q-26 -56 -74 -85q-50 -30 -116 -30q-100 0 -155 57q-56 58 -56 169v296h97zM444 760l-82 -139h-85l85 187z" />
    <glyph glyph-name="ucircumflex" unicode="&#xfb;" horiz-adv-x="634" 
d="M170 510v-283q0 -79 32 -117q31 -37 90 -37q61 0 106 39q44 38 66 108v290h97v-510h-78l-9 103q-26 -56 -74 -85q-50 -30 -116 -30q-100 0 -155 57q-56 58 -56 169v296h97zM314 677l-94 -84l-47 49v10l133 127h21l133 -127v-10l-46 -49z" />
    <glyph glyph-name="udieresis" unicode="&#xfc;" horiz-adv-x="634" 
d="M170 510v-283q0 -79 32 -117q31 -37 90 -37q61 0 106 39q44 38 66 108v290h97v-510h-78l-9 103q-26 -56 -74 -85q-50 -30 -116 -30q-100 0 -155 57q-56 58 -56 169v296h97zM203 735q26 0 45 -17q19 -18 19 -45t-19 -45q-19 -17 -45 -17q-25 0 -45 17q-18 18 -18 45t18 45
q20 17 45 17zM429 735q25 0 45 -17q18 -18 18 -45t-18 -45q-20 -17 -45 -17t-45 17q-18 18 -18 45t18 45q20 17 45 17z" />
    <glyph glyph-name="yacute" unicode="&#xfd;" horiz-adv-x="638" 
d="M152 510l184 -408h9l147 408h108l-233 -566q-28 -71 -68 -106q-39 -33 -99 -33q-56 0 -94 26l27 75q19 -9 31 -11q15 -3 29 -3q29 0 49 15q21 15 35 50l13 36l-252 517h114zM456 760l-82 -139h-85l85 187z" />
    <glyph glyph-name="thorn" unicode="&#xfe;" horiz-adv-x="645" 
d="M169 703v-267q62 86 185 86q54 0 99 -18q47 -20 77 -52q33 -36 50 -82q17 -51 17 -109q0 -68 -22 -118q-24 -54 -59 -85q-37 -36 -86 -52q-48 -18 -100 -18q-48 0 -86 11q-34 9 -75 37v-233h-96v900h96zM169 129q68 -56 155 -56q40 0 70 13q35 15 55 38q23 24 36 60
q13 33 13 80q0 35 -10 70q-13 35 -32 55q-19 22 -50 36q-27 13 -66 13q-62 0 -106 -32q-42 -30 -65 -86v-191z" />
    <glyph glyph-name="ydieresis" unicode="&#xff;" horiz-adv-x="638" 
d="M152 510l184 -408h9l147 408h108l-233 -566q-28 -71 -68 -106q-39 -33 -99 -33q-56 0 -94 26l27 75q19 -9 31 -11q15 -3 29 -3q29 0 49 15q21 15 35 50l13 36l-252 517h114zM215 735q26 0 45 -17q19 -18 19 -45t-19 -45q-19 -17 -45 -17q-25 0 -45 17q-18 18 -18 45
t18 45q20 17 45 17zM441 735q25 0 45 -17q18 -18 18 -45t-18 -45q-20 -17 -45 -17t-45 17q-18 18 -18 45t18 45q20 17 45 17z" />
    <glyph glyph-name="Amacron" unicode="&#x100;" horiz-adv-x="762" 
d="M440 671l281 -671h-112l-60 152h-339l-59 -152h-109l279 671h119zM244 240h271l-129 328h-12zM573 877v-84h-385v84h385z" />
    <glyph glyph-name="amacron" unicode="&#x101;" horiz-adv-x="623" 
d="M79 463q55 34 102 45q48 14 108 14q119 0 174 -54q55 -55 55 -151v-187q0 -30 11 -46q11 -13 29 -13q12 0 21 4l9 -74q-20 -10 -51 -10q-40 0 -63 19q-27 18 -34 67q-65 -89 -198 -89q-91 0 -144 44q-52 43 -52 126q0 78 61 121q62 44 167 44q44 0 80 -7q40 -8 69 -18v28
q0 54 -32 83q-31 28 -100 28q-90 0 -173 -44zM424 222q-63 22 -146 22q-72 0 -102 -24q-31 -25 -31 -64q0 -41 29 -64q30 -21 86 -21q34 0 64 9q27 10 52 27q21 17 35 41q13 22 13 52v22zM462 716v-82h-327v82h327z" />
    <glyph glyph-name="Abreve" unicode="&#x102;" horiz-adv-x="762" 
d="M440 671l281 -671h-112l-60 152h-339l-59 -152h-109l279 671h119zM244 240h271l-129 328h-12zM301 917q1 -37 24 -57t55 -20q33 0 56 20q22 19 24 57h78q-1 -33 -12 -63q-12 -28 -32 -49q-21 -21 -50 -33q-30 -11 -64 -11t-64 11q-30 13 -49 33q-21 22 -31 49
q-12 29 -13 63h78z" />
    <glyph glyph-name="abreve" unicode="&#x103;" horiz-adv-x="623" 
d="M79 463q55 34 102 45q48 14 108 14q119 0 174 -54q55 -55 55 -151v-187q0 -30 11 -46q11 -13 29 -13q12 0 21 4l9 -74q-20 -10 -51 -10q-40 0 -63 19q-27 18 -34 67q-65 -89 -198 -89q-91 0 -144 44q-52 43 -52 126q0 78 61 121q62 44 167 44q44 0 80 -7q40 -8 69 -18v28
q0 54 -32 83q-31 28 -100 28q-90 0 -173 -44zM424 222q-63 22 -146 22q-72 0 -102 -24q-31 -25 -31 -64q0 -41 29 -64q30 -21 86 -21q34 0 64 9q27 10 52 27q21 17 35 41q13 22 13 52v22zM228 748q1 -34 22 -52q18 -19 50 -19t50 19q21 18 22 52h79q-1 -34 -14 -62
q-11 -25 -32 -46q-18 -17 -47 -28q-26 -10 -58 -10q-33 0 -59 10q-29 10 -47 28q-21 19 -32 46q-12 27 -12 62h78z" />
    <glyph glyph-name="Aogonek" unicode="&#x104;" horiz-adv-x="762" 
d="M440 671l277 -661v-10h-16q-21 0 -35 -15q-12 -15 -12 -38q0 -30 18 -51q20 -20 56 -24l-13 -71q-73 5 -108 41q-36 36 -36 85q0 25 9 49q10 23 25 34l-56 142h-339l-59 -152h-109l279 671h119zM244 240h271l-129 328h-12z" />
    <glyph glyph-name="aogonek" unicode="&#x105;" horiz-adv-x="623" 
d="M79 464q54 33 103 44q48 14 108 14q118 0 174 -54q55 -55 55 -151v-187q0 -30 11 -46q11 -13 29 -13q8 0 11 1q2 0 5 1t4 1l9 -73q-33 -2 -50 -19q-17 -19 -17 -44q0 -28 19 -47q18 -19 56 -24l-13 -70q-35 2 -61 13q-24 10 -44 28q-19 16 -28 39q-10 21 -10 46
q0 26 10 49t29 39q-17 9 -27 25q-9 15 -12 41q-62 -89 -197 -89q-93 0 -143 44q-53 41 -53 126q0 78 61 121q61 44 166 44q46 0 80 -7q38 -7 70 -18v28q0 111 -132 111q-89 0 -174 -44zM425 222q-60 22 -147 22q-70 0 -102 -24q-30 -26 -30 -64q0 -42 30 -64q28 -21 85 -21
q35 0 63 9q32 11 52 27q21 15 36 41q13 22 13 52v22z" />
    <glyph glyph-name="Cacute" unicode="&#x106;" horiz-adv-x="727" 
d="M617 523q-83 70 -205 70q-58 0 -106 -18q-48 -19 -80 -52q-34 -34 -52 -81q-19 -47 -19 -107q0 -61 19 -108q20 -50 53 -81q35 -34 81 -51q45 -18 101 -18q63 0 119 21q56 23 99 62l57 -70q-109 -104 -280 -104q-79 0 -142 24q-63 23 -112 69q-45 45 -72 109
q-25 67 -25 145q0 71 25 138q28 66 74 111q46 47 115 75q67 27 154 27q71 0 137 -24q64 -23 112 -65zM536 931l-84 -159h-90l88 202z" />
    <glyph glyph-name="cacute" unicode="&#x107;" horiz-adv-x="583" 
d="M476 381q-30 26 -66 41q-39 15 -88 15q-36 0 -68 -12t-57 -35q-24 -23 -38 -56q-14 -34 -14 -75q0 -85 47 -135t130 -50q46 0 89 16q43 19 70 49l59 -61q-43 -48 -98 -68q-53 -22 -124 -22q-64 0 -116 20q-52 22 -84 57q-36 35 -52 85q-18 48 -18 104q0 63 22 110
q21 51 58 85q37 35 86 54q47 19 106 19q70 0 120 -20q50 -17 90 -57zM451 760l-82 -139h-85l85 187z" />
    <glyph glyph-name="Ccircumflex" unicode="&#x108;" horiz-adv-x="727" 
d="M617 523q-83 70 -205 70q-58 0 -106 -18q-48 -19 -80 -52q-34 -34 -52 -81q-19 -47 -19 -107q0 -61 19 -108q20 -50 53 -81q35 -34 81 -51q45 -18 101 -18q63 0 119 21q56 23 99 62l57 -70q-109 -104 -280 -104q-79 0 -142 24q-63 23 -112 69q-45 45 -72 109
q-25 67 -25 145q0 71 25 138q28 66 74 111q46 47 115 75q67 27 154 27q71 0 137 -24q64 -23 112 -65zM426 935l136 -129v-10l-48 -50l-100 87l-99 -87l-49 50v10l137 129h23z" />
    <glyph glyph-name="ccircumflex" unicode="&#x109;" horiz-adv-x="583" 
d="M476 381q-30 26 -66 41q-39 15 -88 15q-36 0 -68 -12t-57 -35q-24 -23 -38 -56q-14 -34 -14 -75q0 -85 47 -135t130 -50q46 0 89 16q43 19 70 49l59 -61q-43 -48 -98 -68q-53 -22 -124 -22q-64 0 -116 20q-52 22 -84 57q-36 35 -52 85q-18 48 -18 104q0 63 22 110
q21 51 58 85q37 35 86 54q47 19 106 19q70 0 120 -20q50 -17 90 -57zM322 677l-94 -84l-47 49v10l133 127h21l133 -127v-10l-46 -49z" />
    <glyph glyph-name="Cdotaccent" unicode="&#x10a;" horiz-adv-x="727" 
d="M617 523q-83 70 -205 70q-58 0 -106 -18q-48 -19 -80 -52q-34 -34 -52 -81q-19 -47 -19 -107q0 -61 19 -108q20 -50 53 -81q35 -34 81 -51q45 -18 101 -18q63 0 119 21q56 23 99 62l57 -70q-109 -104 -280 -104q-79 0 -142 24q-63 23 -112 69q-45 45 -72 109
q-25 67 -25 145q0 71 25 138q28 66 74 111q46 47 115 75q67 27 154 27q71 0 137 -24q64 -23 112 -65zM416 910q29 0 48 -19q21 -19 21 -49t-21 -49q-19 -19 -48 -19t-48 19q-20 20 -20 49t20 49q19 19 48 19z" />
    <glyph glyph-name="cdotaccent" unicode="&#x10b;" horiz-adv-x="583" 
d="M476 381q-30 26 -66 41q-39 15 -88 15q-36 0 -68 -12t-57 -35q-24 -23 -38 -56q-14 -34 -14 -75q0 -85 47 -135t130 -50q46 0 89 16q43 19 70 49l59 -61q-43 -48 -98 -68q-53 -22 -124 -22q-64 0 -116 20q-52 22 -84 57q-36 35 -52 85q-18 48 -18 104q0 63 22 110
q21 51 58 85q37 35 86 54q47 19 106 19q70 0 120 -20q50 -17 90 -57zM326 744q28 0 48 -18t20 -49q0 -30 -20 -48t-48 -18t-47 18q-20 18 -20 48q0 31 20 49q19 18 47 18z" />
    <glyph glyph-name="Ccaron" unicode="&#x10c;" horiz-adv-x="727" 
d="M617 523q-83 70 -205 70q-58 0 -106 -18q-48 -19 -80 -52q-34 -34 -52 -81q-19 -47 -19 -107q0 -61 19 -108q20 -50 53 -81q35 -34 81 -51q45 -18 101 -18q63 0 119 21q56 23 99 62l57 -70q-109 -104 -280 -104q-79 0 -142 24q-63 23 -112 69q-45 45 -72 109
q-25 67 -25 145q0 71 25 138q28 66 74 111q46 47 115 75q67 27 154 27q71 0 137 -24q64 -23 112 -65zM399 747l-136 129v10l49 50l100 -87l99 87l48 -50v-10l-136 -129h-24z" />
    <glyph glyph-name="ccaron" unicode="&#x10d;" horiz-adv-x="583" 
d="M476 381q-30 26 -66 41q-39 15 -88 15q-36 0 -68 -12t-57 -35q-24 -23 -38 -56q-14 -34 -14 -75q0 -85 47 -135t130 -50q46 0 89 16q43 19 70 49l59 -61q-43 -48 -98 -68q-53 -22 -124 -22q-64 0 -116 20q-52 22 -84 57q-36 35 -52 85q-18 48 -18 104q0 63 22 110
q21 51 58 85q37 35 86 54q47 19 106 19q70 0 120 -20q50 -17 90 -57zM323 704l96 84l46 -49v-10l-132 -127h-21l-134 127v10l46 49z" />
    <glyph glyph-name="Dcaron" unicode="&#x10e;" horiz-adv-x="728" 
d="M320 670q82 0 148 -24q65 -26 111 -70q44 -41 71 -106q25 -59 25 -135q0 -69 -25 -135q-28 -63 -73 -106q-46 -43 -113 -69q-65 -25 -147 -25h-234v670h237zM184 89h133q54 0 103 17q45 16 81 49q35 32 53 77q20 44 20 103q0 120 -68 183q-69 63 -190 63h-132v-492z
M315 747l-136 129v10l49 50l100 -87l99 87l48 -50v-10l-136 -129h-24z" />
    <glyph glyph-name="dcaron" unicode="&#x10f;" horiz-adv-x="818" 
d="M584 713v-713h-77l-11 97q-30 -54 -80 -81q-50 -28 -115 -28q-59 0 -105 18q-48 19 -80 52q-34 36 -50 84q-18 48 -18 112q0 61 21 112q22 51 57 84q38 35 86 54q50 18 106 18q52 0 92 -12q45 -15 77 -38v241h97zM487 385q-71 54 -159 54q-85 0 -134 -49
q-48 -48 -48 -136q0 -44 12 -78q14 -35 34 -56q22 -24 51 -36t62 -12q67 0 113 36q47 36 69 103v174zM721 584q-18 5 -28 21q-11 17 -11 38q0 30 19 46q20 17 45 17q27 0 46 -17q20 -16 20 -46q0 -17 -6 -30l-54 -132l-56 20z" />
    <glyph glyph-name="Dcroat" unicode="&#x110;" horiz-adv-x="742" 
d="M333 670q82 0 148 -24q66 -26 112 -70q44 -41 71 -106q24 -60 24 -135q0 -74 -26 -135q-24 -59 -72 -106q-46 -43 -113 -69q-65 -25 -147 -25h-233v287l-75 5v87h75v291h236zM198 379h190v-91h-190v-199h132q54 0 102 17q45 16 82 49q31 29 54 77q19 49 19 103
q0 120 -69 183q-68 63 -189 63h-131v-202z" />
    <glyph glyph-name="dcroat" unicode="&#x111;" horiz-adv-x="677" 
d="M584 730v-71h70v-78h-70v-581h-77l-11 97q-30 -54 -80 -81q-50 -28 -115 -28q-59 0 -105 18q-48 19 -80 52q-34 36 -50 84q-18 48 -18 112q0 61 21 112q22 51 57 84q38 35 86 54q50 18 106 18q52 0 92 -12q45 -15 77 -38v109h-156v78h154l10 71h89zM487 385
q-71 54 -159 54q-85 0 -134 -49q-48 -48 -48 -136q0 -44 12 -78q14 -35 34 -56q22 -24 51 -36t62 -12q67 0 113 36q47 36 69 103v174z" />
    <glyph glyph-name="Emacron" unicode="&#x112;" 
d="M565 670v-89h-382v-189h336v-88h-336v-214h400v-90h-500v670h482zM523 877v-84h-385v84h385z" />
    <glyph glyph-name="emacron" unicode="&#x113;" horiz-adv-x="612" 
d="M146 222q7 -70 55 -110q47 -39 125 -39q50 0 96 13q44 14 84 43l44 -69q-49 -38 -106 -56q-59 -16 -120 -16q-65 0 -116 18q-54 21 -86 54q-35 32 -55 83q-19 48 -19 111q0 56 20 107q19 48 56 85t87 56q52 20 113 20q53 0 98 -17q43 -17 76 -49q32 -32 48 -75
q18 -43 18 -97q0 -10 -2 -32q-1 -10 -5 -30h-411zM466 302q-2 62 -37 99q-36 37 -109 37q-72 0 -116 -36q-44 -38 -54 -100h316zM496 716v-82h-327v82h327z" />
    <glyph glyph-name="Ebreve" unicode="&#x114;" 
d="M565 670v-89h-382v-189h336v-88h-336v-214h400v-90h-500v670h482zM257 917q1 -37 24 -57t55 -20q33 0 56 20q22 19 24 57h78q-1 -33 -12 -63q-12 -28 -32 -49q-21 -21 -50 -33q-30 -11 -64 -11t-64 11q-30 13 -49 33q-21 22 -31 49q-12 29 -13 63h78z" />
    <glyph glyph-name="ebreve" unicode="&#x115;" horiz-adv-x="612" 
d="M146 222q7 -70 55 -110q47 -39 125 -39q50 0 96 13q44 14 84 43l44 -69q-49 -38 -106 -56q-59 -16 -120 -16q-65 0 -116 18q-54 21 -86 54q-35 32 -55 83q-19 48 -19 111q0 56 20 107q19 48 56 85t87 56q52 20 113 20q53 0 98 -17q43 -17 76 -49q32 -32 48 -75
q18 -43 18 -97q0 -10 -2 -32q-1 -10 -5 -30h-411zM466 302q-2 62 -37 99q-36 37 -109 37q-72 0 -116 -36q-44 -38 -54 -100h316zM252 748q1 -32 21 -52q20 -19 51 -19t51 19q20 20 21 52h79q-1 -34 -14 -62q-11 -25 -32 -46q-18 -17 -47 -28q-26 -10 -58 -10q-33 0 -59 10
q-29 10 -47 28q-21 19 -32 46q-12 27 -12 62h78z" />
    <glyph glyph-name="Edotaccent" unicode="&#x116;" 
d="M565 670v-89h-382v-189h336v-88h-336v-214h400v-90h-500v670h482zM335 910q29 0 49 -19q20 -20 20 -49t-20 -49q-20 -19 -49 -19t-48 19q-20 20 -20 49t20 49q19 19 48 19z" />
    <glyph glyph-name="edotaccent" unicode="&#x117;" horiz-adv-x="612" 
d="M146 222q7 -70 55 -110q47 -39 125 -39q50 0 96 13q44 14 84 43l44 -69q-49 -38 -106 -56q-59 -16 -120 -16q-65 0 -116 18q-54 21 -86 54q-35 32 -55 83q-19 48 -19 111q0 56 20 107q19 48 56 85t87 56q52 20 113 20q53 0 98 -17q43 -17 76 -49q32 -32 48 -75
q18 -43 18 -97q0 -10 -2 -32q-1 -10 -5 -30h-411zM466 302q-2 62 -37 99q-36 37 -109 37q-72 0 -116 -36q-44 -38 -54 -100h316zM324 744q28 0 48 -18t20 -49q0 -30 -20 -48t-48 -18q-27 0 -47 18t-20 48q0 31 20 49t47 18z" />
    <glyph glyph-name="Eogonek" unicode="&#x118;" 
d="M565 670v-89h-382v-189h336v-88h-336v-214h400v-90h-17q-22 0 -34 -16q-13 -14 -13 -38q0 -30 18 -48q17 -20 56 -25l-13 -72q-75 5 -109 39q-35 37 -35 87q0 21 6 41t19 32h-378v670h482z" />
    <glyph glyph-name="eogonek" unicode="&#x119;" horiz-adv-x="612" 
d="M146 222q7 -70 55 -110q47 -39 125 -39q50 0 96 13q44 14 84 43l44 -69q-32 -22 -44 -42q-12 -19 -12 -44q0 -64 75 -75l-13 -69q-35 2 -62 12q-27 11 -44 28q-17 14 -28 38q-9 21 -9 45q0 25 9 45q-29 -6 -48 -8q-32 -2 -50 -2q-65 0 -116 18q-54 21 -86 54
q-35 32 -55 83q-19 48 -19 111q0 56 20 107q19 48 56 85t87 56q52 20 113 20q53 0 98 -17q43 -17 76 -49q32 -32 48 -75q18 -43 18 -97q0 -10 -2 -32q-1 -10 -5 -30h-411zM466 302q-2 62 -37 99q-36 37 -109 37q-72 0 -116 -36q-44 -38 -54 -100h316z" />
    <glyph glyph-name="Ecaron" unicode="&#x11a;" 
d="M565 670v-89h-382v-189h336v-88h-336v-214h400v-90h-500v670h482zM321 747l-136 129v10l49 50l100 -87l99 87l48 -50v-10l-136 -129h-24z" />
    <glyph glyph-name="ecaron" unicode="&#x11b;" horiz-adv-x="612" 
d="M146 222q7 -70 55 -110q47 -39 125 -39q50 0 96 13q44 14 84 43l44 -69q-49 -38 -106 -56q-59 -16 -120 -16q-65 0 -116 18q-54 21 -86 54q-35 32 -55 83q-19 48 -19 111q0 56 20 107q19 48 56 85t87 56q52 20 113 20q53 0 98 -17q43 -17 76 -49q32 -32 48 -75
q18 -43 18 -97q0 -10 -2 -32q-1 -10 -5 -30h-411zM466 302q-2 62 -37 99q-36 37 -109 37q-72 0 -116 -36q-44 -38 -54 -100h316zM332 704l96 84l46 -49v-10l-132 -127h-21l-134 127v10l46 49z" />
    <glyph glyph-name="Gcircumflex" unicode="&#x11c;" horiz-adv-x="740" 
d="M677 359v-281q-54 -46 -121 -68q-70 -24 -150 -24t-144 24t-112 69q-45 45 -72 109q-25 67 -25 145q0 74 25 137q26 66 72 112q46 47 114 74q65 28 153 28q68 0 131 -21q64 -21 113 -63l-54 -73q-39 34 -89 49q-47 17 -106 17q-58 0 -106 -18q-48 -19 -80 -52
q-34 -34 -52 -81q-19 -47 -19 -107q0 -62 19 -109q20 -50 53 -81q35 -34 81 -51t102 -17q102 0 170 47v146l-147 7v82h244zM422 935l136 -129v-10l-48 -50l-100 87l-99 -87l-49 50v10l137 129h23z" />
    <glyph glyph-name="gcircumflex" unicode="&#x11d;" horiz-adv-x="646" 
d="M591 463l-89 -20q16 -16 30 -47q10 -30 10 -57q0 -37 -15 -70t-43 -58q-29 -26 -70 -39q-40 -15 -93 -15q-43 0 -76 9q-34 11 -59 27q-19 -10 -28 -25q-8 -18 -8 -36q0 -32 21 -46q22 -14 64 -14h161q48 0 84 -12q32 -10 58 -31q23 -21 33 -47q11 -30 11 -61
q0 -45 -21 -82q-20 -36 -59 -67q-44 -30 -92 -44q-51 -17 -120 -17q-121 0 -179 49t-58 131q0 39 15 75q14 34 41 62q-48 36 -48 98q0 72 72 119q-14 20 -21 43q-7 22 -7 51q0 35 14 71q13 33 43 58q26 24 70 40q44 14 99 14h97l155 14zM180 -6q-18 -18 -25 -40
q-8 -26 -8 -50q0 -52 38 -82q39 -28 110 -28q88 0 141 34q52 35 52 91q0 34 -22 53q-24 18 -76 18h-157zM320 441q-59 0 -90 -26q-31 -25 -31 -75q0 -47 31 -74q30 -29 91 -29q55 0 90 27q35 26 35 76q0 65 -51 101h-75zM325 677l-94 -84l-47 49v10l133 127h21l133 -127v-10
l-46 -49z" />
    <glyph glyph-name="Gbreve" unicode="&#x11e;" horiz-adv-x="740" 
d="M677 359v-281q-54 -46 -121 -68q-70 -24 -150 -24t-144 24t-112 69q-45 45 -72 109q-25 67 -25 145q0 74 25 137q26 66 72 112q46 47 114 74q65 28 153 28q68 0 131 -21q64 -21 113 -63l-54 -73q-39 34 -89 49q-47 17 -106 17q-58 0 -106 -18q-48 -19 -80 -52
q-34 -34 -52 -81q-19 -47 -19 -107q0 -62 19 -109q20 -50 53 -81q35 -34 81 -51t102 -17q102 0 170 47v146l-147 7v82h244zM332 917q2 -37 24 -57q23 -20 55 -20q35 0 55 20q23 18 25 57h78q-1 -34 -13 -63q-11 -28 -32 -49q-19 -20 -49 -33q-30 -11 -64 -11t-64 11
q-30 13 -49 33q-20 21 -32 49q-11 30 -12 63h78z" />
    <glyph glyph-name="gbreve" unicode="&#x11f;" horiz-adv-x="646" 
d="M591 463l-89 -20q16 -16 30 -47q10 -30 10 -57q0 -37 -15 -70t-43 -58q-29 -26 -70 -39q-40 -15 -93 -15q-43 0 -76 9q-34 11 -59 27q-19 -10 -28 -25q-8 -18 -8 -36q0 -32 21 -46q22 -14 64 -14h161q48 0 84 -12q32 -10 58 -31q23 -21 33 -47q11 -30 11 -61
q0 -45 -21 -82q-20 -36 -59 -67q-44 -30 -92 -44q-51 -17 -120 -17q-121 0 -179 49t-58 131q0 39 15 75q14 34 41 62q-48 36 -48 98q0 72 72 119q-14 20 -21 43q-7 22 -7 51q0 35 14 71q13 33 43 58q26 24 70 40q44 14 99 14h97l155 14zM180 -6q-18 -18 -25 -40
q-8 -26 -8 -50q0 -52 38 -82q39 -28 110 -28q88 0 141 34q52 35 52 91q0 34 -22 53q-24 18 -76 18h-157zM320 441q-59 0 -90 -26q-31 -25 -31 -75q0 -47 31 -74q30 -29 91 -29q55 0 90 27q35 26 35 76q0 65 -51 101h-75zM263 748q1 -32 21 -52q20 -19 51 -19t51 19
q20 20 21 52h79q-1 -34 -14 -62q-11 -25 -32 -46q-18 -17 -47 -28q-26 -10 -58 -10q-33 0 -59 10q-29 10 -47 28q-21 19 -32 46q-12 27 -12 62h78z" />
    <glyph glyph-name="Gdotaccent" unicode="&#x120;" horiz-adv-x="740" 
d="M677 359v-281q-54 -46 -121 -68q-70 -24 -150 -24t-144 24t-112 69q-45 45 -72 109q-25 67 -25 145q0 74 25 137q26 66 72 112q46 47 114 74q65 28 153 28q68 0 131 -21q64 -21 113 -63l-54 -73q-39 34 -89 49q-47 17 -106 17q-58 0 -106 -18q-48 -19 -80 -52
q-34 -34 -52 -81q-19 -47 -19 -107q0 -62 19 -109q20 -50 53 -81q35 -34 81 -51t102 -17q102 0 170 47v146l-147 7v82h244zM412 910q29 0 48 -19q21 -19 21 -49t-21 -49q-19 -19 -48 -19t-48 19q-20 20 -20 49t20 49q19 19 48 19z" />
    <glyph glyph-name="gdotaccent" unicode="&#x121;" horiz-adv-x="646" 
d="M591 463l-89 -20q16 -16 30 -47q10 -30 10 -57q0 -37 -15 -70t-43 -58q-29 -26 -70 -39q-40 -15 -93 -15q-43 0 -76 9q-34 11 -59 27q-19 -10 -28 -25q-8 -18 -8 -36q0 -32 21 -46q22 -14 64 -14h161q48 0 84 -12q32 -10 58 -31q23 -21 33 -47q11 -30 11 -61
q0 -45 -21 -82q-20 -36 -59 -67q-44 -30 -92 -44q-51 -17 -120 -17q-121 0 -179 49t-58 131q0 39 15 75q14 34 41 62q-48 36 -48 98q0 72 72 119q-14 20 -21 43q-7 22 -7 51q0 35 14 71q13 33 43 58q26 24 70 40q44 14 99 14h97l155 14zM180 -6q-18 -18 -25 -40
q-8 -26 -8 -50q0 -52 38 -82q39 -28 110 -28q88 0 141 34q52 35 52 91q0 34 -22 53q-24 18 -76 18h-157zM320 441q-59 0 -90 -26q-31 -25 -31 -75q0 -47 31 -74q30 -29 91 -29q55 0 90 27q35 26 35 76q0 65 -51 101h-75zM333 744q29 0 48 -18q20 -18 20 -49q0 -30 -20 -48
q-19 -18 -48 -18q-27 0 -47 18t-20 48q0 31 20 49t47 18z" />
    <glyph glyph-name="Gcommaaccent" unicode="&#x122;" horiz-adv-x="740" 
d="M677 359v-281q-54 -46 -121 -68q-70 -24 -150 -24t-144 24t-112 69q-45 45 -72 109q-25 67 -25 145q0 74 25 137q26 66 72 112q46 47 114 74q65 28 153 28q68 0 131 -21q64 -21 113 -63l-54 -73q-39 34 -89 49q-47 17 -106 17q-58 0 -106 -18q-48 -19 -80 -52
q-34 -34 -52 -81q-19 -47 -19 -107q0 -62 19 -109q20 -50 53 -81q35 -34 81 -51t102 -17q102 0 170 47v146l-147 7v82h244zM380 -199q-18 6 -30 21q-11 17 -11 38q0 29 19 48q19 18 47 18q27 0 47 -18q20 -17 20 -46q0 -8 -2 -16q-1 -3 -2.5 -8t-1.5 -6l-56 -138l-58 20z
" />
    <glyph glyph-name="gcommaaccent" unicode="&#x123;" horiz-adv-x="646" 
d="M591 463l-89 -20q16 -16 30 -47q10 -30 10 -57q0 -37 -15 -70t-43 -58q-29 -26 -70 -39q-40 -15 -93 -15q-43 0 -76 9q-34 11 -59 27q-19 -10 -28 -25q-8 -18 -8 -36q0 -32 21 -46q22 -14 64 -14h161q48 0 84 -12q32 -10 58 -31q23 -21 33 -47q11 -30 11 -61
q0 -45 -21 -82q-20 -36 -59 -67q-44 -30 -92 -44q-51 -17 -120 -17q-121 0 -179 49t-58 131q0 39 15 75q14 34 41 62q-48 36 -48 98q0 72 72 119q-14 20 -21 43q-7 22 -7 51q0 35 14 71q13 33 43 58q26 24 70 40q44 14 99 14h97l155 14zM180 -6q-18 -18 -25 -40
q-8 -26 -8 -50q0 -52 38 -82q39 -28 110 -28q88 0 141 34q52 35 52 91q0 34 -22 53q-24 18 -76 18h-157zM320 441q-59 0 -90 -26q-31 -25 -31 -75q0 -47 31 -74q30 -29 91 -29q55 0 90 27q35 26 35 76q0 65 -51 101h-75zM359 719q18 -5 28 -21q11 -17 11 -38q0 -30 -19 -46
q-20 -17 -45 -17q-26 0 -46 17t-20 46q0 16 6 30l54 132l56 -20z" />
    <glyph glyph-name="Hcircumflex" unicode="&#x124;" horiz-adv-x="732" 
d="M186 670v-282h360v282h102v-670h-102v297h-360v-297h-103v670h103zM377 935l136 -129v-10l-48 -50l-100 87l-99 -87l-49 50v10l137 129h23z" />
    <glyph glyph-name="hcircumflex" unicode="&#x125;" 
d="M171 713v-294q27 50 72 77q46 26 115 26q96 0 154 -56q56 -56 56 -165v-301h-97v290q0 74 -33 112q-34 36 -96 36q-60 0 -105 -39t-66 -110v-289h-98v713h98zM122 858l-94 -84l-47 49v10l133 127h21l133 -127v-10l-46 -49z" />
    <glyph glyph-name="Hbar" unicode="&#x126;" horiz-adv-x="732" 
d="M186 670v-103h360v103h102v-103h64v-84h-64v-483h-102v287h-360v-287h-103v483h-63v84h63v103h103zM186 378h360v105h-360v-105z" />
    <glyph glyph-name="hbar" unicode="&#x127;" horiz-adv-x="661" 
d="M191 730v-71h156v-78h-156v-162q28 51 73 77q46 26 114 26q96 0 154 -56q56 -56 56 -165v-301h-97v290q0 74 -33 112q-34 36 -96 36q-60 0 -105 -39t-66 -110v-289h-98v581h-70v78h69l10 71h89z" />
    <glyph glyph-name="Itilde" unicode="&#x128;" horiz-adv-x="269" 
d="M186 670v-670h-103v670h103zM-23 830q17 32 42 50q26 17 63 17q22 0 39 -7q4 -2 13 -7.5l14 -8.5q16 -12 24 -16q11 -8 29 -8q38 0 54 25l48 -50q-34 -61 -99 -61q-27 0 -40 8q-13 5 -28 16l-8 5.5t-9 6l-7 4.5q-11 8 -30 8q-40 0 -61 -30z" />
    <glyph glyph-name="itilde" unicode="&#x129;" horiz-adv-x="246" 
d="M173 510v-510h-100v510h100zM-26 663q17 33 40 50q23 18 55 18q25 0 39 -7q18 -8 26 -14l21 -13q10 -6 25 -6q34 0 50 24l45 -46q-14 -30 -37 -45q-20 -17 -51 -17q-24 0 -38 7q-18 7 -27 14l-22 14q-12 6 -26 6q-34 0 -54 -27z" />
    <glyph glyph-name="Imacron" unicode="&#x12a;" horiz-adv-x="269" 
d="M186 670v-670h-103v670h103zM288 877v-86h-304v86h304z" />
    <glyph glyph-name="imacron" unicode="&#x12b;" horiz-adv-x="246" 
d="M173 510v-510h-100v510h100zM251 716v-82h-253v82h253z" />
    <glyph glyph-name="Ibreve" unicode="&#x12c;" horiz-adv-x="269" 
d="M186 670v-670h-103v670h103zM56 917q2 -37 24 -57q23 -20 55 -20q35 0 55 20q23 18 25 57h78q-1 -34 -13 -63q-11 -28 -32 -49q-19 -20 -49 -33q-30 -11 -64 -11t-64 11q-30 13 -49 33q-20 21 -32 49q-11 30 -12 63h78z" />
    <glyph glyph-name="ibreve" unicode="&#x12d;" horiz-adv-x="246" 
d="M173 510v-510h-100v510h100zM52 748q1 -34 22 -52q18 -19 50 -19t50 19q21 18 22 52h79q-1 -34 -14 -62q-11 -25 -32 -46q-18 -17 -47 -28q-26 -10 -58 -10q-33 0 -59 10q-28 10 -47 28q-21 19 -32 46q-12 27 -12 62h78z" />
    <glyph glyph-name="Iogonek" unicode="&#x12e;" horiz-adv-x="269" 
d="M186 670v-670h-15q-18 0 -30 -15t-12 -38q0 -31 17 -50q19 -19 57 -23l-13 -72q-71 4 -108 40q-36 34 -36 85q0 59 37 92v651h103z" />
    <glyph glyph-name="iogonek" unicode="&#x12f;" horiz-adv-x="245" 
d="M172 510v-510h-8q-20 0 -32 -17q-13 -16 -13 -44t17 -47q16 -18 55 -24l-13 -71q-36 2 -61 12q-26 11 -43 29q-18 16 -27 39t-9 46q0 54 35 87v500h99zM123 744q27 0 47 -18q21 -18 21 -49q0 -30 -21 -48q-20 -18 -47 -18q-29 0 -48 18q-20 18 -20 48q0 31 20 49
q19 18 48 18z" />
    <glyph glyph-name="Idotaccent" unicode="&#x130;" horiz-adv-x="269" 
d="M186 670v-670h-103v670h103zM135 910q29 0 49 -19q20 -20 20 -49t-20 -49q-20 -19 -49 -19t-48 19q-20 20 -20 49t20 49q19 19 48 19z" />
    <glyph glyph-name="dotlessi" unicode="&#x131;" horiz-adv-x="246" 
d="M173 510v-510h-100v510h100z" />
    <glyph glyph-name="Jcircumflex" unicode="&#x134;" horiz-adv-x="540" 
d="M457 670v-427q0 -123 -57 -190q-58 -67 -172 -67q-54 0 -100 12q-47 14 -90 47l46 78q37 -25 72 -37q37 -10 72 -10q54 0 90 37q37 37 37 118v439h102zM416 935l136 -129v-10l-48 -50l-100 87l-99 -87l-49 50v10l137 129h23z" />
    <glyph glyph-name="jcircumflex" unicode="&#x135;" horiz-adv-x="251" 
d="M178 510v-546q0 -44 -12 -82q-10 -35 -34 -64q-23 -26 -58 -42q-36 -15 -81 -15q-38 0 -73 8q-33 7 -66 26l33 77q28 -15 49 -19q25 -5 52 -5q41 0 68 28q25 30 25 88v546h97zM129 677l-94 -84l-47 49v10l133 127h21l133 -127v-10l-46 -49z" />
    <glyph glyph-name="Kcommaaccent" unicode="&#x136;" horiz-adv-x="703" 
d="M183 670v-275l104 8l218 267h126l-261 -310l286 -360h-130l-237 312h-106v-312h-100v670h100zM317 -179q-19 6 -29 21q-12 16 -12 38q0 29 19 48q19 18 47 18t47 -18q20 -17 20 -46q0 -8 -2 -16q-1 -4 -2.5 -8.5t-1.5 -5.5l-56 -138l-58 20z" />
    <glyph glyph-name="kcommaaccent" unicode="&#x137;" horiz-adv-x="597" 
d="M171 713v-405l95 11l155 191h124l-195 -229l222 -281h-123l-173 228h-105v-228h-98v713h98zM278 -197q-18 5 -28 21q-11 17 -11 38q0 30 19 46q20 17 45 17t47 -17q19 -17 19 -46q0 -16 -6 -30l-54 -132l-56 20z" />
    <glyph glyph-name="kgreenlandic" unicode="&#x138;" horiz-adv-x="595" 
d="M170 510v-201l94 9l158 192h121l-196 -230l220 -280h-118l-178 229h-101v-229h-97v510h97z" />
    <glyph glyph-name="Lacute" unicode="&#x139;" horiz-adv-x="619" 
d="M185 670v-580h386v-90h-488v670h102zM281 931l-84 -159h-90l88 202z" />
    <glyph glyph-name="lacute" unicode="&#x13a;" horiz-adv-x="243" 
d="M170 713v-713h-97v713h97zM251 934l-82 -139h-85l85 187z" />
    <glyph glyph-name="Lcommaaccent" unicode="&#x13b;" horiz-adv-x="619" 
d="M185 670v-580h386v-90h-488v670h102zM311 -199q-19 6 -29 21q-12 16 -12 38q0 29 19 48q19 18 47 18t47 -18q20 -17 20 -46q0 -8 -2 -16q-1 -3 -2.5 -8t-1.5 -6l-56 -138l-58 20z" />
    <glyph glyph-name="lcommaaccent" unicode="&#x13c;" horiz-adv-x="243" 
d="M170 713v-713h-97v713h97zM95 -197q-18 5 -28 21q-11 17 -11 38q0 30 19 46q20 17 45 17q27 0 46 -17q20 -16 20 -46q0 -16 -6 -30l-54 -132l-56 20z" />
    <glyph glyph-name="Lcaron" unicode="&#x13d;" horiz-adv-x="619" 
d="M185 670v-580h386v-90h-488v670h102zM461 467q-19 6 -29 21q-12 17 -12 38q0 29 19 48q19 18 47 18t47 -18q20 -17 20 -46q0 -8 -2 -16q-1 -4 -2.5 -8.5t-1.5 -5.5l-56 -138l-58 20z" />
    <glyph glyph-name="lcaron" unicode="&#x13e;" horiz-adv-x="394" 
d="M170 713v-713h-97v713h97zM299 584q-18 5 -28 21q-11 17 -11 38q0 30 19 46q20 17 45 17q27 0 46 -17q20 -16 20 -46q0 -17 -6 -30l-54 -132l-56 20z" />
    <glyph glyph-name="Ldot" unicode="&#x13f;" horiz-adv-x="619" 
d="M185 670v-580h386v-90h-488v670h102zM457 477q29 0 49 -19q20 -20 20 -49t-20 -49q-20 -19 -49 -19t-48 19q-20 20 -20 49t20 49q19 19 48 19z" />
    <glyph glyph-name="ldot" unicode="&#x140;" horiz-adv-x="407" 
d="M170 713v-713h-97v713h97zM317 383q29 0 48 -18q20 -18 20 -49q0 -30 -20 -48q-19 -18 -48 -18q-27 0 -47 18t-20 48q0 31 20 49t47 18z" />
    <glyph glyph-name="Lslash" unicode="&#x141;" horiz-adv-x="619" 
d="M185 670v-285l149 63l35 -86l-184 -78v-194h386v-90h-488v242l-53 -12l-26 80l79 32v328h102z" />
    <glyph glyph-name="lslash" unicode="&#x142;" horiz-adv-x="290" 
d="M193 713v-304l68 33l37 -75l-105 -56v-311h-97v259l-68 -33l-36 76l104 55v356h97z" />
    <glyph glyph-name="Nacute" unicode="&#x143;" horiz-adv-x="752" 
d="M669 670v-670h-100l-388 508v-508h-98v670h91l398 -521v521h97zM498 931l-84 -159h-90l88 202z" />
    <glyph glyph-name="nacute" unicode="&#x144;" 
d="M150 510l10 -106q26 56 76 87q47 31 118 31q97 0 156 -56q58 -57 58 -165v-301h-97v290q0 74 -33 112q-34 36 -96 36q-61 0 -106 -40q-45 -42 -66 -112v-286h-97v510h77zM477 760l-82 -139h-85l85 187z" />
    <glyph glyph-name="Ncommaaccent" unicode="&#x145;" horiz-adv-x="752" 
d="M669 670v-670h-100l-388 508v-508h-98v670h91l398 -521v521h97zM350 -179q-18 6 -30 21q-11 17 -11 38q0 29 19 48q20 18 47 18t47 -18q20 -17 20 -46q0 -8 -2 -16q-1 -4 -2.5 -8.5t-1.5 -5.5l-56 -138l-58 20z" />
    <glyph glyph-name="ncommaaccent" unicode="&#x146;" 
d="M150 510l10 -106q26 56 76 87q47 31 118 31q97 0 156 -56q58 -57 58 -165v-301h-97v290q0 74 -33 112q-34 36 -96 36q-61 0 -106 -40q-45 -42 -66 -112v-286h-97v510h77zM294 -187q-18 5 -28 21q-11 17 -11 38q0 30 19 46q20 17 45 17t47 -17q19 -17 19 -46q0 -16 -6 -30
l-54 -132l-56 20z" />
    <glyph glyph-name="Ncaron" unicode="&#x147;" horiz-adv-x="752" 
d="M669 670v-670h-100l-388 508v-508h-98v670h91l398 -521v521h97zM362 747l-136 129v10l49 50l100 -87l99 87l48 -50v-10l-136 -129h-24z" />
    <glyph glyph-name="ncaron" unicode="&#x148;" 
d="M150 510l10 -106q26 56 76 87q47 31 118 31q97 0 156 -56q58 -57 58 -165v-301h-97v290q0 74 -33 112q-34 36 -96 36q-61 0 -106 -40q-45 -42 -66 -112v-286h-97v510h77zM339 704l96 84l46 -49v-10l-132 -127h-21l-134 127v10l46 49z" />
    <glyph glyph-name="napostrophe" unicode="&#x149;" horiz-adv-x="757" 
d="M266 510l10 -106q26 56 76 87q47 31 118 31q97 0 156 -56q58 -57 58 -165v-301h-97v290q0 74 -33 112q-34 36 -96 36q-61 0 -106 -40q-45 -42 -66 -112v-286h-97v510h77zM47 583q-18 5 -28 21q-11 17 -11 38q0 30 19 46q20 17 45 17q27 0 46 -17q20 -16 20 -46
q0 -16 -6 -30l-54 -132l-56 20z" />
    <glyph glyph-name="Omacron" unicode="&#x14c;" horiz-adv-x="811" 
d="M405 684q78 0 144 -26q64 -27 111 -74q44 -44 72 -111q25 -67 25 -138q0 -69 -25 -135q-27 -64 -72 -112q-50 -49 -112 -74q-62 -28 -143 -28q-80 0 -143 27q-63 26 -112 75q-45 46 -72 110q-25 67 -25 137q0 71 26 137q26 65 73 110q44 46 110 74q65 28 143 28zM405 595
q-59 0 -105 -20q-46 -19 -79 -55t-49 -82q-17 -49 -17 -103t17 -103q18 -47 50 -82t78 -55q49 -20 105 -20q57 0 105 19q47 21 80 55q33 36 49 83q17 48 17 103q0 57 -18 105q-16 44 -49 82q-31 32 -79 54q-49 19 -105 19zM598 877v-84h-385v84h385z" />
    <glyph glyph-name="omacron" unicode="&#x14d;" horiz-adv-x="650" 
d="M325 522q63 0 112 -20q48 -17 88 -54q38 -36 57 -85q20 -51 20 -108t-21 -106t-57 -85q-39 -37 -88 -56q-52 -20 -111 -20q-64 0 -113 20q-48 17 -88 54q-37 37 -56 85q-20 51 -20 108q0 55 20 106q21 49 58 85q37 37 87 56q52 20 112 20zM325 439q-38 0 -75 -13
q-36 -16 -56 -38q-25 -26 -36 -59q-13 -33 -13 -74q0 -42 13 -75q13 -34 36 -58q22 -22 57 -38q36 -13 74 -13q39 0 75 13q36 16 56 38q24 24 36 58q13 33 13 75q0 41 -13 73q-13 34 -36 58q-24 26 -57 39q-34 14 -74 14zM488 716v-82h-327v82h327z" />
    <glyph glyph-name="Obreve" unicode="&#x14e;" horiz-adv-x="811" 
d="M405 684q78 0 144 -26q64 -27 111 -74q44 -44 72 -111q25 -67 25 -138q0 -69 -25 -135q-27 -64 -72 -112q-50 -49 -112 -74q-62 -28 -143 -28q-80 0 -143 27q-63 26 -112 75q-45 46 -72 110q-25 67 -25 137q0 71 26 137q26 65 73 110q44 46 110 74q65 28 143 28zM405 595
q-59 0 -105 -20q-46 -19 -79 -55t-49 -82q-17 -49 -17 -103t17 -103q18 -47 50 -82t78 -55q49 -20 105 -20q57 0 105 19q47 21 80 55q33 36 49 83q17 48 17 103q0 57 -18 105q-16 44 -49 82q-31 32 -79 54q-49 19 -105 19zM325 917q1 -37 24 -57t55 -20q33 0 56 20
q22 19 24 57h78q-1 -33 -12 -63q-12 -28 -32 -49q-21 -21 -50 -33q-30 -11 -64 -11t-64 11q-30 13 -49 33q-21 22 -31 49q-12 29 -13 63h78z" />
    <glyph glyph-name="obreve" unicode="&#x14f;" horiz-adv-x="650" 
d="M325 522q63 0 112 -20q48 -17 88 -54q38 -36 57 -85q20 -51 20 -108t-21 -106t-57 -85q-39 -37 -88 -56q-52 -20 -111 -20q-64 0 -113 20q-48 17 -88 54q-37 37 -56 85q-20 51 -20 108q0 55 20 106q21 49 58 85q37 37 87 56q52 20 112 20zM325 439q-38 0 -75 -13
q-36 -16 -56 -38q-25 -26 -36 -59q-13 -33 -13 -74q0 -42 13 -75q13 -34 36 -58q22 -22 57 -38q36 -13 74 -13q39 0 75 13q36 16 56 38q24 24 36 58q13 33 13 75q0 41 -13 73q-13 34 -36 58q-24 26 -57 39q-34 14 -74 14zM252 748q1 -32 21 -52q20 -19 51 -19t51 19
q20 20 21 52h79q-1 -34 -14 -62q-11 -25 -32 -46q-18 -17 -47 -28q-26 -10 -58 -10q-33 0 -59 10q-29 10 -47 28q-21 19 -32 46q-12 27 -12 62h78z" />
    <glyph glyph-name="Ohungarumlaut" unicode="&#x150;" horiz-adv-x="811" 
d="M405 684q78 0 144 -26q64 -27 111 -74q44 -44 72 -111q25 -67 25 -138q0 -69 -25 -135q-27 -64 -72 -112q-50 -49 -112 -74q-62 -28 -143 -28q-80 0 -143 27q-63 26 -112 75q-45 46 -72 110q-25 67 -25 137q0 71 26 137q26 65 73 110q44 46 110 74q65 28 143 28zM405 595
q-59 0 -105 -20q-46 -19 -79 -55t-49 -82q-17 -49 -17 -103t17 -103q18 -47 50 -82t78 -55q49 -20 105 -20q57 0 105 19q47 21 80 55q33 36 49 83q17 48 17 103q0 57 -18 105q-16 44 -49 82q-31 32 -79 54q-49 19 -105 19zM451 943l-66 -171h-84l65 204zM613 911l-84 -139
h-84l86 182z" />
    <glyph glyph-name="ohungarumlaut" unicode="&#x151;" horiz-adv-x="650" 
d="M325 522q63 0 112 -20q48 -17 88 -54q38 -36 57 -85q20 -51 20 -108t-21 -106t-57 -85q-39 -37 -88 -56q-52 -20 -111 -20q-64 0 -113 20q-48 17 -88 54q-37 37 -56 85q-20 51 -20 108q0 55 20 106q21 49 58 85q37 37 87 56q52 20 112 20zM325 439q-38 0 -75 -13
q-36 -16 -56 -38q-25 -26 -36 -59q-13 -33 -13 -74q0 -42 13 -75q13 -34 36 -58q22 -22 57 -38q36 -13 74 -13q39 0 75 13q36 16 56 38q24 24 36 58q13 33 13 75q0 41 -13 73q-13 34 -36 58q-24 26 -57 39q-34 14 -74 14zM369 775l-74 -154h-79l71 193zM522 745l-80 -124
h-82l82 168z" />
    <glyph glyph-name="OE" unicode="&#x152;" horiz-adv-x="1108" 
d="M1056 670v-89h-374v-189h327v-88h-327v-214h391v-90h-489v46q-38 -30 -86 -46q-50 -14 -104 -14q-77 0 -140 27t-108 75q-44 47 -68 110q-25 63 -25 137t25 137q24 63 68 110q46 47 108 74q62 28 140 28q60 0 105 -16q47 -15 85 -44v46h472zM584 515q-60 80 -190 80
q-57 0 -102 -20q-43 -18 -76 -55q-29 -33 -46 -82q-15 -48 -15 -103q0 -56 16 -103q18 -50 47 -82q31 -36 74 -55q46 -20 102 -20q65 0 113 21q48 19 77 58v361z" />
    <glyph glyph-name="oe" unicode="&#x153;" horiz-adv-x="1015" 
d="M564 222q7 -72 52 -110q45 -39 120 -39q52 0 92 13q40 14 83 42l43 -69q-52 -38 -103 -55q-49 -16 -114 -16q-78 0 -131 25q-54 27 -85 71q-36 -47 -87 -70q-51 -26 -117 -26q-65 0 -111 20q-48 17 -85 54q-35 36 -54 85q-19 48 -19 108q0 58 19 106q19 49 55 85
q34 36 84 56q52 20 111 20q69 0 124 -28q55 -27 87 -75q29 48 82 75q50 28 123 28q52 0 97 -18q40 -16 74 -48q33 -36 46 -76q17 -40 17 -96q0 -10 -2 -32q-1 -13 -5 -30h-396zM317 439q-39 0 -73 -13q-33 -16 -54 -38q-22 -25 -34 -59q-11 -36 -11 -74q0 -82 45 -133
q43 -51 127 -51q81 0 125 51q44 52 44 133q0 38 -11 73q-10 34 -33 58q-20 25 -52 39q-34 14 -73 14zM869 302q-1 60 -35 100q-35 37 -105 37q-73 0 -111 -37q-40 -38 -50 -100h301z" />
    <glyph glyph-name="Racute" unicode="&#x154;" horiz-adv-x="686" 
d="M372 670q56 0 101 -16q47 -17 79 -46q32 -28 51 -70q18 -40 18 -90q0 -72 -42 -125t-111 -75l175 -248h-124l-150 224h-183v-224h-103v670h289zM186 312h175q71 0 115 36q42 36 42 100q0 67 -42 100q-41 34 -111 34h-179v-270zM463 931l-84 -159h-90l88 202z" />
    <glyph glyph-name="racute" unicode="&#x155;" horiz-adv-x="541" 
d="M151 510l9 -106q25 57 76 88q49 30 119 30q46 0 88 -14q41 -15 69 -40l-54 -75q-21 18 -53 31q-33 10 -68 10q-60 0 -103 -40q-43 -39 -64 -106v-288h-97v510h78zM464 760l-82 -139h-85l85 187z" />
    <glyph glyph-name="Rcommaaccent" unicode="&#x156;" horiz-adv-x="686" 
d="M372 670q56 0 101 -16q47 -17 79 -46q32 -28 51 -70q18 -40 18 -90q0 -72 -42 -125t-111 -75l175 -248h-124l-150 224h-183v-224h-103v670h289zM186 312h175q71 0 115 36q42 36 42 100q0 67 -42 100q-41 34 -111 34h-179v-270zM321 -179q-19 6 -29 21q-12 16 -12 38
q0 29 19 48q19 18 47 18t47 -18q20 -17 20 -46q0 -8 -2 -16q-1 -4 -2.5 -8.5t-1.5 -5.5l-56 -138l-58 20z" />
    <glyph glyph-name="rcommaaccent" unicode="&#x157;" horiz-adv-x="541" 
d="M151 510l9 -106q25 57 76 88q49 30 119 30q46 0 88 -14q41 -15 69 -40l-54 -75q-21 18 -53 31q-33 10 -68 10q-60 0 -103 -40q-43 -39 -64 -106v-288h-97v510h78zM96 -197q-18 5 -28 21q-11 17 -11 38q0 30 19 46q20 17 45 17t47 -17q19 -17 19 -46q0 -16 -6 -30
l-54 -132l-56 20z" />
    <glyph glyph-name="Rcaron" unicode="&#x158;" horiz-adv-x="686" 
d="M372 670q56 0 101 -16q47 -17 79 -46q32 -28 51 -70q18 -40 18 -90q0 -72 -42 -125t-111 -75l175 -248h-124l-150 224h-183v-224h-103v670h289zM186 312h175q71 0 115 36q42 36 42 100q0 67 -42 100q-41 34 -111 34h-179v-270zM323 747l-136 129v10l49 50l100 -87l99 87
l48 -50v-10l-136 -129h-24z" />
    <glyph glyph-name="rcaron" unicode="&#x159;" horiz-adv-x="541" 
d="M151 510l9 -106q25 57 76 88q49 30 119 30q46 0 88 -14q41 -15 69 -40l-54 -75q-21 18 -53 31q-33 10 -68 10q-60 0 -103 -40q-43 -39 -64 -106v-288h-97v510h78zM327 704l96 84l46 -49v-10l-132 -127h-21l-134 127v10l46 49z" />
    <glyph glyph-name="Sacute" unicode="&#x15a;" horiz-adv-x="653" 
d="M525 532q-42 31 -92 46q-48 17 -106 17q-81 0 -117 -27t-36 -72q0 -44 28 -68q29 -23 88 -30l100 -14q102 -15 156 -63q53 -48 53 -130q0 -44 -18 -83q-19 -37 -53 -64q-36 -27 -89 -42q-51 -16 -123 -16q-78 0 -142 18q-63 16 -122 60l48 81q56 -38 110 -54
q52 -16 114 -16q89 0 130 31q44 31 44 82q0 42 -29 68q-29 27 -96 36l-105 15q-97 14 -144 58q-50 44 -50 127q0 47 18 83q20 37 52 60q33 24 80 37q45 12 102 12q70 0 136 -19q67 -20 115 -59zM463 931l-84 -159h-90l88 202z" />
    <glyph glyph-name="sacute" unicode="&#x15b;" horiz-adv-x="569" 
d="M453 393q-78 45 -169 45q-59 0 -92 -18q-31 -20 -31 -51q0 -27 17 -41q16 -15 56 -19l104 -12q81 -10 130 -45q48 -36 48 -105q0 -75 -64 -117q-63 -42 -178 -42q-70 0 -120 14q-51 12 -106 48l42 75q45 -29 91 -42q45 -13 97 -13q73 0 108 19q35 20 35 54q0 29 -19 47
q-22 17 -69 21l-120 14q-73 8 -110 45q-38 36 -38 99q0 67 56 111q55 42 165 42q60 0 111 -13q57 -15 97 -41zM423 760l-82 -139h-85l85 187z" />
    <glyph glyph-name="Scircumflex" unicode="&#x15c;" horiz-adv-x="653" 
d="M525 532q-42 31 -92 46q-48 17 -106 17q-81 0 -117 -27t-36 -72q0 -44 28 -68q29 -23 88 -30l100 -14q102 -15 156 -63q53 -48 53 -130q0 -44 -18 -83q-19 -37 -53 -64q-36 -27 -89 -42q-51 -16 -123 -16q-78 0 -142 18q-63 16 -122 60l48 81q56 -38 110 -54
q52 -16 114 -16q89 0 130 31q44 31 44 82q0 42 -29 68q-29 27 -96 36l-105 15q-97 14 -144 58q-50 44 -50 127q0 47 18 83q20 37 52 60q33 24 80 37q45 12 102 12q70 0 136 -19q67 -20 115 -59zM342 935l136 -129v-10l-48 -50l-100 87l-99 -87l-49 50v10l137 129h23z" />
    <glyph glyph-name="scircumflex" unicode="&#x15d;" horiz-adv-x="569" 
d="M453 393q-78 45 -169 45q-59 0 -92 -18q-31 -20 -31 -51q0 -27 17 -41q16 -15 56 -19l104 -12q81 -10 130 -45q48 -36 48 -105q0 -75 -64 -117q-63 -42 -178 -42q-70 0 -120 14q-51 12 -106 48l42 75q45 -29 91 -42q45 -13 97 -13q73 0 108 19q35 20 35 54q0 29 -19 47
q-22 17 -69 21l-120 14q-73 8 -110 45q-38 36 -38 99q0 67 56 111q55 42 165 42q60 0 111 -13q57 -15 97 -41zM291 677l-94 -84l-47 49v10l133 127h21l133 -127v-10l-46 -49z" />
    <glyph glyph-name="Scedilla" unicode="&#x15e;" horiz-adv-x="653" 
d="M525 532q-42 31 -92 46q-48 17 -106 17q-81 0 -117 -27t-36 -72q0 -44 28 -68q29 -23 88 -30l100 -14q102 -15 156 -63q53 -48 53 -130q0 -44 -16 -77q-17 -38 -47 -62q-32 -28 -78 -44q-45 -16 -107 -21l-3 -43q30 -10 52 -38q19 -27 19 -63q0 -60 -41 -101
q-38 -41 -121 -61l-26 63q53 14 78 39q26 26 26 54t-23 40t-61 14v23l21 39v35q-65 5 -116 22q-55 17 -104 54l48 81q56 -38 110 -54q52 -16 114 -16q89 0 130 31q44 31 44 82q0 42 -29 68q-29 27 -96 36l-105 15q-97 14 -144 58q-50 44 -50 127q0 47 18 83q20 37 52 60
q33 24 80 37q45 12 102 12q70 0 136 -19q67 -20 115 -59z" />
    <glyph glyph-name="scedilla" unicode="&#x15f;" horiz-adv-x="569" 
d="M453 393q-78 45 -169 45q-59 0 -92 -18q-31 -20 -31 -51q0 -27 17 -41q16 -15 56 -19l104 -12q81 -10 130 -45q48 -36 48 -105t-55 -111q-56 -41 -156 -47l-4 -45q29 -8 47 -32q18 -26 18 -61q0 -55 -37 -95q-38 -41 -119 -63l-21 62q51 17 72 39q21 21 21 47
q0 27 -18 40q-15 12 -57 14v19l22 43v33q-50 4 -94 18q-43 14 -87 42l42 75q45 -29 91 -42q45 -13 97 -13q73 0 108 19q35 20 35 54q0 29 -19 47q-22 17 -69 21l-120 14q-73 8 -110 45q-38 36 -38 99q0 67 56 111q55 42 165 42q60 0 111 -13q57 -15 97 -41z" />
    <glyph glyph-name="Scaron" unicode="&#x160;" horiz-adv-x="653" 
d="M525 532q-42 31 -92 46q-48 17 -106 17q-81 0 -117 -27t-36 -72q0 -44 28 -68q29 -23 88 -30l100 -14q102 -15 156 -63q53 -48 53 -130q0 -44 -18 -83q-19 -37 -53 -64q-36 -27 -89 -42q-51 -16 -123 -16q-78 0 -142 18q-63 16 -122 60l48 81q56 -38 110 -54
q52 -16 114 -16q89 0 130 31q44 31 44 82q0 42 -29 68q-29 27 -96 36l-105 15q-97 14 -144 58q-50 44 -50 127q0 47 18 83q20 37 52 60q33 24 80 37q45 12 102 12q70 0 136 -19q67 -20 115 -59zM317 747l-136 129v10l49 50l100 -87l99 87l48 -50v-10l-136 -129h-24z" />
    <glyph glyph-name="scaron" unicode="&#x161;" horiz-adv-x="569" 
d="M453 393q-78 45 -169 45q-59 0 -92 -18q-31 -20 -31 -51q0 -27 17 -41q16 -15 56 -19l104 -12q81 -10 130 -45q48 -36 48 -105q0 -75 -64 -117q-63 -42 -178 -42q-70 0 -120 14q-51 12 -106 48l42 75q45 -29 91 -42q45 -13 97 -13q73 0 108 19q35 20 35 54q0 29 -19 47
q-22 17 -69 21l-120 14q-73 8 -110 45q-38 36 -38 99q0 67 56 111q55 42 165 42q60 0 111 -13q57 -15 97 -41zM295 704l96 84l46 -49v-10l-132 -127h-21l-134 127v10l46 49z" />
    <glyph glyph-name="Tcedilla" unicode="&#x162;" horiz-adv-x="689" 
d="M641 670v-90h-246v-582q25 -16 39 -48q14 -33 14 -67q0 -60 -44 -105q-41 -46 -124 -64l-25 66q105 32 105 99q0 63 -83 66v23l17 42v570h-246v90h593z" />
    <glyph glyph-name="tcedilla" unicode="&#x163;" horiz-adv-x="462" 
d="M116 510l17 142l88 -4l-5 -138h188v-85h-185v-254q0 -50 22 -73q24 -22 67 -22q26 0 52 8q23 7 45 22l36 -73q-59 -42 -137 -45l-4 -44q29 -8 47 -32q18 -26 18 -61q0 -55 -37 -95q-38 -41 -119 -63l-21 62q51 17 72 39q21 21 21 47t-17 40q-17 12 -58 14v19l22 43v40
q-54 17 -80 59q-27 44 -27 117v252h-84v79z" />
    <glyph glyph-name="Tcaron" unicode="&#x164;" horiz-adv-x="689" 
d="M641 670v-90h-246v-580h-101v580h-246v90h593zM332 747l-136 129v10l49 50l100 -87l99 87l48 -50v-10l-136 -129h-24z" />
    <glyph glyph-name="tcaron" unicode="&#x165;" horiz-adv-x="598" 
d="M116 510l17 140l88 -4l-5 -136h188v-85h-185v-254q0 -50 22 -73q24 -22 67 -22q26 0 52 8q23 7 45 22l36 -73q-34 -24 -69 -34q-39 -11 -79 -11q-82 0 -127 45t-45 140v252h-84v79zM501 583q-18 5 -28 21q-11 17 -11 38q0 30 19 46q20 17 45 17q27 0 46 -17
q20 -16 20 -46q0 -16 -6 -30l-54 -132l-56 20z" />
    <glyph glyph-name="Utilde" unicode="&#x168;" horiz-adv-x="754" 
d="M186 670v-364q0 -111 48 -171q50 -60 143 -60t141 56q50 54 50 173v366h103v-367q0 -73 -19 -131q-19 -59 -55 -100q-40 -43 -92 -64q-58 -22 -128 -22q-73 0 -127 22q-51 21 -92 62q-38 44 -56 99q-19 57 -19 131v370h103zM184 817q19 37 52 59q31 22 74 22q23 0 42 -8
q15 -6 33 -17q20 -12 30 -17q16 -8 34 -8q26 0 42 10q17 9 27 27l52 -47q-16 -36 -48 -56q-29 -19 -68 -19q-25 0 -46 8q-16 6 -34 17q-19 12 -32 18q-16 8 -35 8q-26 0 -45 -11q-16 -10 -30 -29z" />
    <glyph glyph-name="utilde" unicode="&#x169;" horiz-adv-x="634" 
d="M170 510v-283q0 -79 32 -117q31 -37 90 -37q61 0 106 39q44 38 66 108v290h97v-510h-78l-9 103q-26 -56 -74 -85q-50 -30 -116 -30q-100 0 -155 57q-56 58 -56 169v296h97zM130 662q23 37 52 54q29 20 71 20q25 0 41 -8q15 -6 30 -16q16 -11 28 -16q13 -8 35 -8
q24 0 41 10q18 10 29 25l47 -48q-16 -31 -44 -51q-28 -19 -69 -19q-22 0 -43 8q-12 5 -34 17q-20 12 -30 17q-18 8 -35 8q-27 0 -43 -9q-20 -11 -32 -28z" />
    <glyph glyph-name="Umacron" unicode="&#x16a;" horiz-adv-x="754" 
d="M186 670v-364q0 -111 48 -171q50 -60 143 -60t141 56q50 54 50 173v366h103v-367q0 -73 -19 -131q-19 -59 -55 -100q-40 -43 -92 -64q-58 -22 -128 -22q-73 0 -127 22q-51 21 -92 62q-38 44 -56 99q-19 57 -19 131v370h103zM569 877v-84h-385v84h385z" />
    <glyph glyph-name="umacron" unicode="&#x16b;" horiz-adv-x="634" 
d="M170 510v-283q0 -79 32 -117q31 -37 90 -37q61 0 106 39q44 38 66 108v290h97v-510h-78l-9 103q-26 -56 -74 -85q-50 -30 -116 -30q-100 0 -155 57q-56 58 -56 169v296h97zM480 716v-82h-327v82h327z" />
    <glyph glyph-name="Ubreve" unicode="&#x16c;" horiz-adv-x="754" 
d="M186 670v-364q0 -111 48 -171q50 -60 143 -60t141 56q50 54 50 173v366h103v-367q0 -73 -19 -131q-19 -59 -55 -100q-40 -43 -92 -64q-58 -22 -128 -22q-73 0 -127 22q-51 21 -92 62q-38 44 -56 99q-19 57 -19 131v370h103zM297 917q1 -37 24 -57t55 -20q33 0 56 20
q22 19 24 57h78q-1 -33 -12 -63q-12 -28 -32 -49q-21 -21 -50 -33q-30 -11 -64 -11t-64 11q-30 13 -49 33q-21 22 -31 49q-12 29 -13 63h78z" />
    <glyph glyph-name="ubreve" unicode="&#x16d;" horiz-adv-x="634" 
d="M170 510v-283q0 -79 32 -117q31 -37 90 -37q61 0 106 39q44 38 66 108v290h97v-510h-78l-9 103q-26 -56 -74 -85q-50 -30 -116 -30q-100 0 -155 57q-56 58 -56 169v296h97zM244 748q1 -32 21 -52q20 -19 51 -19t51 19q20 20 21 52h79q-1 -34 -14 -62q-11 -25 -32 -46
q-18 -17 -47 -28q-26 -10 -58 -10q-33 0 -59 10q-28 10 -47 28q-21 19 -32 46q-12 27 -12 62h78z" />
    <glyph glyph-name="Uring" unicode="&#x16e;" horiz-adv-x="754" 
d="M186 670v-364q0 -111 48 -171q50 -60 143 -60t141 56q50 54 50 173v366h103v-367q0 -73 -19 -131q-19 -59 -55 -100q-40 -43 -92 -64q-58 -22 -128 -22q-73 0 -127 22q-51 21 -92 62q-38 44 -56 99q-19 57 -19 131v370h103zM376 986q29 0 52 -10q21 -10 40 -27
q17 -18 25 -39q9 -21 9 -45q0 -23 -9 -46q-7 -17 -25 -39q-20 -17 -40 -26q-23 -10 -52 -10q-31 0 -52 10q-25 11 -40 26q-17 17 -26 39q-8 24 -8 46q0 24 9 45q8 21 25 39q19 17 40 27q23 10 52 10zM376 918q-26 0 -39 -15q-14 -16 -14 -38q0 -23 15 -38q14 -15 38 -15
t39 15t15 38t-15 38t-39 15z" />
    <glyph glyph-name="uring" unicode="&#x16f;" horiz-adv-x="634" 
d="M170 510v-283q0 -79 32 -117q31 -37 90 -37q61 0 106 39q44 38 66 108v290h97v-510h-78l-9 103q-26 -56 -74 -85q-50 -30 -116 -30q-100 0 -155 57q-56 58 -56 169v296h97zM316 816q28 0 49 -10q22 -9 37 -24q15 -16 24 -36q8 -21 8 -42q0 -22 -8 -43q-9 -19 -24 -36
q-15 -16 -37 -25q-23 -9 -49 -9q-28 0 -50 9t-37 25q-16 17 -23 36q-8 21 -8 43q0 21 8 42q9 20 24 36q15 15 37 24q21 10 49 10zM316 755q-26 0 -39 -15q-13 -14 -13 -36q0 -24 14 -38q12 -14 38 -14q25 0 39 14q14 16 14 38t-15 36q-13 15 -38 15z" />
    <glyph glyph-name="Uhungarumlaut" unicode="&#x170;" horiz-adv-x="754" 
d="M186 670v-364q0 -111 48 -171q50 -60 143 -60t141 56q50 54 50 173v366h103v-367q0 -73 -19 -131q-19 -59 -55 -100q-40 -43 -92 -64q-58 -22 -128 -22q-73 0 -127 22q-51 21 -92 62q-38 44 -56 99q-19 57 -19 131v370h103zM410 943l-66 -171h-84l65 204zM572 911
l-84 -139h-84l86 182z" />
    <glyph glyph-name="uhungarumlaut" unicode="&#x171;" horiz-adv-x="634" 
d="M170 510v-283q0 -79 32 -117q31 -37 90 -37q61 0 106 39q44 38 66 108v290h97v-510h-78l-9 103q-26 -56 -74 -85q-50 -30 -116 -30q-100 0 -155 57q-56 58 -56 169v296h97zM353 775l-74 -154h-79l71 193zM506 745l-80 -124h-82l82 168z" />
    <glyph glyph-name="Uogonek" unicode="&#x172;" horiz-adv-x="754" 
d="M186 670v-364q0 -111 48 -171q50 -60 143 -60t141 56q50 54 50 173v366h103v-367q0 -125 -57 -208q-58 -84 -168 -103q-22 -4 -36 -18t-14 -38q0 -30 17 -50q17 -18 56 -23l-13 -72q-72 5 -108 39q-37 36 -37 87q0 41 22 72q-122 12 -186 94t-64 217v370h103z" />
    <glyph glyph-name="uogonek" unicode="&#x173;" horiz-adv-x="634" 
d="M170 510v-283q0 -79 32 -117q31 -37 90 -37q61 0 106 39q44 38 66 108v290h97v-509q-25 -6 -39 -23q-13 -16 -13 -38q0 -29 19 -48q21 -21 57 -25l-13 -70q-36 2 -62 13q-24 10 -44 28q-17 16 -28 39q-9 23 -9 46q0 31 14 57q13 23 39 37l-8 86q-26 -56 -74 -85
q-50 -30 -116 -30q-100 0 -155 57q-56 58 -56 169v296h97z" />
    <glyph glyph-name="Wcircumflex" unicode="&#x174;" horiz-adv-x="1015" 
d="M148 670l154 -554h10l148 512h94l152 -512h10l151 554h110l-203 -672h-129l-134 456h-10l-128 -456h-130l-205 672h110zM519 935l136 -129v-10l-48 -50l-100 87l-99 -87l-49 50v10l137 129h23z" />
    <glyph glyph-name="wcircumflex" unicode="&#x175;" horiz-adv-x="881" 
d="M147 510l120 -406h9l120 388h92l123 -388h9l121 406h101l-173 -513h-117l-107 352h-10l-105 -352h-116l-176 513h109zM438 677l-94 -84l-47 49v10l133 127h21l133 -127v-10l-46 -49z" />
    <glyph glyph-name="Ycircumflex" unicode="&#x176;" horiz-adv-x="712" 
d="M157 670l196 -351h10l193 351h118l-268 -456v-214h-100v214l-268 456h119zM367 935l136 -129v-10l-48 -50l-100 87l-99 -87l-49 50v10l137 129h23z" />
    <glyph glyph-name="ycircumflex" unicode="&#x177;" horiz-adv-x="638" 
d="M152 510l184 -408h9l147 408h108l-233 -566q-28 -71 -68 -106q-39 -33 -99 -33q-56 0 -94 26l27 75q19 -9 31 -11q15 -3 29 -3q29 0 49 15q21 15 35 50l13 36l-252 517h114zM326 677l-94 -84l-47 49v10l133 127h21l133 -127v-10l-46 -49z" />
    <glyph glyph-name="Ydieresis" unicode="&#x178;" horiz-adv-x="712" 
d="M157 670l196 -351h10l193 351h118l-268 -456v-214h-100v214l-268 456h119zM227 902q29 0 49 -19q20 -20 20 -50q0 -27 -20 -47q-21 -18 -49 -18q-27 0 -47 18q-20 20 -20 47q0 30 20 50q19 19 47 19zM482 902q29 0 48 -19q21 -19 21 -50q0 -27 -21 -47q-20 -18 -48 -18
t-47 18q-20 20 -20 47q0 30 20 50q19 19 47 19z" />
    <glyph glyph-name="Zacute" unicode="&#x179;" horiz-adv-x="663" 
d="M597 670v-76l-404 -504h412v-90h-547v74l410 506h-395v90h524zM449 931l-84 -159h-90l88 202z" />
    <glyph glyph-name="zacute" unicode="&#x17a;" horiz-adv-x="572" 
d="M509 510v-77l-323 -349h326v-84h-454v74l329 353h-311v83h433zM412 760l-82 -139h-85l85 187z" />
    <glyph glyph-name="Zdotaccent" unicode="&#x17b;" horiz-adv-x="663" 
d="M597 670v-76l-404 -504h412v-90h-547v74l410 506h-395v90h524zM331 910q29 0 49 -19q20 -20 20 -49t-20 -49q-20 -19 -49 -19t-48 19q-20 20 -20 49t20 49q19 19 48 19z" />
    <glyph glyph-name="zdotaccent" unicode="&#x17c;" horiz-adv-x="572" 
d="M509 510v-77l-323 -349h326v-84h-454v74l329 353h-311v83h433zM291 744q29 0 48 -18q20 -18 20 -49q0 -30 -20 -48q-19 -18 -48 -18q-27 0 -47 18t-20 48q0 31 20 49t47 18z" />
    <glyph glyph-name="Zcaron" unicode="&#x17d;" horiz-adv-x="663" 
d="M597 670v-76l-404 -504h412v-90h-547v74l410 506h-395v90h524zM319 747l-136 129v10l49 50l100 -87l99 87l48 -50v-10l-136 -129h-24z" />
    <glyph glyph-name="zcaron" unicode="&#x17e;" horiz-adv-x="572" 
d="M509 510v-77l-323 -349h326v-84h-454v74l329 353h-311v83h433zM292 704l96 84l46 -49v-10l-132 -127h-21l-134 127v10l46 49z" />
    <glyph glyph-name="longs" unicode="&#x17f;" horiz-adv-x="270" 
d="M73 557q0 38 11 76q12 36 36 63q26 26 63 42q37 15 90 15q47 0 91 -13q42 -16 75 -40l-46 -72q-23 16 -55 28q-33 10 -62 10q-56 0 -80 -30q-26 -27 -26 -83v-553h-97v557z" />
    <glyph glyph-name="Adblgrave" unicode="&#x200;" horiz-adv-x="762" 
d="M440 671l281 -671h-112l-60 152h-339l-59 -152h-109l279 671h119zM244 240h271l-129 328h-12zM480 772h-84l-66 171l84 33zM335 772h-84l-84 139l83 43z" />
    <glyph glyph-name="adblgrave" unicode="&#x201;" horiz-adv-x="623" 
d="M79 463q55 34 102 45q48 14 108 14q119 0 174 -54q55 -55 55 -151v-187q0 -30 11 -46q11 -13 29 -13q12 0 21 4l9 -74q-20 -10 -51 -10q-40 0 -63 19q-27 18 -34 67q-65 -89 -198 -89q-91 0 -144 44q-52 43 -52 126q0 78 61 121q62 44 167 44q44 0 80 -7q40 -8 69 -18v28
q0 54 -32 83q-31 28 -100 28q-90 0 -173 -44zM424 222q-63 22 -146 22q-72 0 -102 -24q-31 -25 -31 -64q0 -41 29 -64q30 -21 86 -21q34 0 64 9q27 10 52 27q21 17 35 41q13 22 13 52v22zM418 621h-78l-74 154l81 39zM275 621h-82l-80 124l80 44z" />
    <glyph glyph-name="Edblgrave" unicode="&#x204;" 
d="M565 670v-89h-382v-189h336v-88h-336v-214h400v-90h-500v670h482zM452 772h-84l-66 171l84 33zM307 772h-84l-84 139l83 43z" />
    <glyph glyph-name="edblgrave" unicode="&#x205;" horiz-adv-x="612" 
d="M146 222q7 -70 55 -110q47 -39 125 -39q50 0 96 13q44 14 84 43l44 -69q-49 -38 -106 -56q-59 -16 -120 -16q-65 0 -116 18q-54 21 -86 54q-35 32 -55 83q-19 48 -19 111q0 56 20 107q19 48 56 85t87 56q52 20 113 20q53 0 98 -17q43 -17 76 -49q32 -32 48 -75
q18 -43 18 -97q0 -10 -2 -32q-1 -10 -5 -30h-411zM466 302q-2 62 -37 99q-36 37 -109 37q-72 0 -116 -36q-44 -38 -54 -100h316zM437 621h-78l-74 154l81 39zM294 621h-82l-80 124l80 44z" />
    <glyph glyph-name="Idblgrave" unicode="&#x208;" horiz-adv-x="269" 
d="M186 670v-670h-103v670h103zM247 772h-84l-66 171l84 33zM102 772h-84l-84 139l83 43z" />
    <glyph glyph-name="idblgrave" unicode="&#x209;" horiz-adv-x="246" 
d="M173 510v-510h-100v510h100zM244 621h-78l-74 154l81 39zM101 621h-82l-80 124l80 44z" />
    <glyph glyph-name="Odblgrave" unicode="&#x20c;" horiz-adv-x="811" 
d="M405 684q78 0 144 -26q64 -27 111 -74q44 -44 72 -111q25 -67 25 -138q0 -69 -25 -135q-27 -64 -72 -112q-50 -49 -112 -74q-62 -28 -143 -28q-80 0 -143 27q-63 26 -112 75q-45 46 -72 110q-25 67 -25 137q0 71 26 137q26 65 73 110q44 46 110 74q65 28 143 28zM405 595
q-59 0 -105 -20q-46 -19 -79 -55t-49 -82q-17 -49 -17 -103t17 -103q18 -47 50 -82t78 -55q49 -20 105 -20q57 0 105 19q47 21 80 55q33 36 49 83q17 48 17 103q0 57 -18 105q-16 44 -49 82q-31 32 -79 54q-49 19 -105 19zM527 772h-84l-66 171l84 33zM382 772h-84l-84 139
l83 43z" />
    <glyph glyph-name="odblgrave" unicode="&#x20d;" horiz-adv-x="650" 
d="M325 522q63 0 112 -20q48 -17 88 -54q38 -36 57 -85q20 -51 20 -108t-21 -106t-57 -85q-39 -37 -88 -56q-52 -20 -111 -20q-64 0 -113 20q-48 17 -88 54q-37 37 -56 85q-20 51 -20 108q0 55 20 106q21 49 58 85q37 37 87 56q52 20 112 20zM325 439q-38 0 -75 -13
q-36 -16 -56 -38q-25 -26 -36 -59q-13 -33 -13 -74q0 -42 13 -75q13 -34 36 -58q22 -22 57 -38q36 -13 74 -13q39 0 75 13q36 16 56 38q24 24 36 58q13 33 13 75q0 41 -13 73q-13 34 -36 58q-24 26 -57 39q-34 14 -74 14zM441 621h-78l-74 154l81 39zM298 621h-82l-80 124
l80 44z" />
    <glyph glyph-name="Rdblgrave" unicode="&#x210;" horiz-adv-x="686" 
d="M372 670q56 0 101 -16q47 -17 79 -46q32 -28 51 -70q18 -40 18 -90q0 -72 -42 -125t-111 -75l175 -248h-124l-150 224h-183v-224h-103v670h289zM186 312h175q71 0 115 36q42 36 42 100q0 67 -42 100q-41 34 -111 34h-179v-270zM446 772h-84l-66 171l84 33zM301 772h-84
l-84 139l83 43z" />
    <glyph glyph-name="rdblgrave" unicode="&#x211;" horiz-adv-x="541" 
d="M151 510l9 -106q25 57 76 88q49 30 119 30q46 0 88 -14q41 -15 69 -40l-54 -75q-21 18 -53 31q-33 10 -68 10q-60 0 -103 -40q-43 -39 -64 -106v-288h-97v510h78zM437 621h-78l-74 154l81 39zM294 621h-82l-80 124l80 44z" />
    <glyph glyph-name="Udblgrave" unicode="&#x214;" horiz-adv-x="754" 
d="M186 670v-364q0 -111 48 -171q50 -60 143 -60t141 56q50 54 50 173v366h103v-367q0 -73 -19 -131q-19 -59 -55 -100q-40 -43 -92 -64q-58 -22 -128 -22q-73 0 -127 22q-51 21 -92 62q-38 44 -56 99q-19 57 -19 131v370h103zM498 772h-84l-66 171l84 33zM353 772h-84
l-84 139l83 43z" />
    <glyph glyph-name="udblgrave" unicode="&#x215;" horiz-adv-x="634" 
d="M170 510v-283q0 -79 32 -117q31 -37 90 -37q61 0 106 39q44 38 66 108v290h97v-510h-78l-9 103q-26 -56 -74 -85q-50 -30 -116 -30q-100 0 -155 57q-56 58 -56 169v296h97zM442 621h-78l-74 154l81 39zM299 621h-82l-80 124l80 44z" />
    <glyph glyph-name="Scommaaccent" unicode="&#x218;" horiz-adv-x="653" 
d="M525 532q-42 31 -92 46q-48 17 -106 17q-81 0 -117 -27t-36 -72q0 -44 28 -68q29 -23 88 -30l100 -14q102 -15 156 -63q53 -48 53 -130q0 -44 -18 -83q-19 -37 -53 -64q-36 -27 -89 -42q-51 -16 -123 -16q-78 0 -142 18q-63 16 -122 60l48 81q56 -38 110 -54
q52 -16 114 -16q89 0 130 31q44 31 44 82q0 42 -29 68q-29 27 -96 36l-105 15q-97 14 -144 58q-50 44 -50 127q0 47 18 83q20 37 52 60q33 24 80 37q45 12 102 12q70 0 136 -19q67 -20 115 -59zM297 -199q-19 6 -29 21q-12 16 -12 38q0 29 19 48q19 18 47 18t47 -18
q20 -17 20 -46q0 -8 -2 -16q-1 -3 -2.5 -8t-1.5 -6l-56 -138l-58 20z" />
    <glyph glyph-name="scommaaccent" unicode="&#x219;" horiz-adv-x="569" 
d="M453 393q-78 45 -169 45q-59 0 -92 -18q-31 -20 -31 -51q0 -27 17 -41q16 -15 56 -19l104 -12q81 -10 130 -45q48 -36 48 -105q0 -75 -64 -117q-63 -42 -178 -42q-70 0 -120 14q-51 12 -106 48l42 75q45 -29 91 -42q45 -13 97 -13q73 0 108 19q35 20 35 54q0 29 -19 47
q-22 17 -69 21l-120 14q-73 8 -110 45q-38 36 -38 99q0 67 56 111q55 42 165 42q60 0 111 -13q57 -15 97 -41zM245 -197q-18 5 -28 21q-11 17 -11 38q0 30 19 46q20 17 45 17q27 0 46 -17q20 -16 20 -46q0 -16 -6 -30l-54 -132l-56 20z" />
    <glyph glyph-name="dotlessj" unicode="&#x237;" horiz-adv-x="251" 
d="M178 510v-546q0 -44 -12 -82q-10 -35 -34 -64q-23 -26 -58 -42q-36 -15 -81 -15q-38 0 -73 8q-33 7 -66 26l33 77q28 -15 49 -19q25 -5 52 -5q41 0 68 28q25 30 25 88v546h97z" />
    <glyph glyph-name="circumflex" unicode="&#x2c6;" horiz-adv-x="323" 
d="M159 677l-94 -84l-47 49v10l133 127h21l133 -127v-10l-46 -49z" />
    <glyph glyph-name="caron" unicode="&#x2c7;" horiz-adv-x="323" 
d="M163 704l96 84l46 -49v-10l-132 -127h-21l-134 127v10l46 49z" />
    <glyph glyph-name="breve" unicode="&#x2d8;" horiz-adv-x="407" 
d="M131 748q1 -32 21 -52q20 -19 51 -19t51 19q20 20 21 52h79q-1 -34 -14 -62q-11 -25 -32 -46q-18 -17 -47 -28q-26 -10 -58 -10q-33 0 -59 10q-29 10 -47 28q-21 19 -32 46q-12 27 -12 62h78z" />
    <glyph glyph-name="dotaccent" unicode="&#x2d9;" horiz-adv-x="227" 
d="M113 744q29 0 48 -18q20 -18 20 -49q0 -30 -20 -48q-19 -18 -48 -18q-27 0 -47 18t-20 48q0 31 20 49q19 18 47 18z" />
    <glyph glyph-name="ring" unicode="&#x2da;" horiz-adv-x="292" 
d="M146 816q28 0 49 -10q22 -9 37 -24q15 -16 24 -36q8 -21 8 -42q0 -22 -8 -43q-9 -19 -24 -36q-15 -16 -37 -25q-23 -9 -49 -9q-27 0 -50 9q-22 9 -37 25q-16 17 -23 36q-8 21 -8 43q0 21 8 42q9 20 24 36q15 15 37 24q21 10 49 10zM146 755q-26 0 -39 -15
q-13 -14 -13 -36q0 -24 14 -38q12 -14 38 -14q25 0 39 14q14 16 14 38t-15 36q-14 15 -38 15z" />
    <glyph glyph-name="ogonek" unicode="&#x2db;" horiz-adv-x="252" 
d="M192 -200q-35 2 -62 12q-27 11 -44 28q-17 14 -28 38q-9 21 -9 45q0 31 17 59q17 27 46 38l59 -19q-21 -10 -31 -27t-10 -36q0 -28 18 -47q20 -19 57 -24z" />
    <glyph glyph-name="tilde" unicode="&#x2dc;" horiz-adv-x="442" 
d="M34 662q23 37 52 54q29 20 71 20q25 0 41 -8q15 -6 30 -16q16 -11 28 -16q13 -8 35 -8q24 0 41 10q18 10 29 25l47 -48q-16 -31 -44 -51q-28 -19 -69 -19q-22 0 -43 8q-12 5 -34 17q-20 12 -30 17q-18 8 -35 8q-26 0 -43 -9q-20 -11 -32 -28z" />
    <glyph glyph-name="hungarumlaut" unicode="&#x2dd;" horiz-adv-x="314" 
d="M198 775l-74 -154h-79l71 193zM351 745l-80 -124h-82l82 168z" />
    <glyph glyph-name="mu" unicode="&#x3bc;" horiz-adv-x="634" 
d="M170 510v-286q0 -76 31 -114q32 -37 90 -37q62 0 107 39q44 38 66 108v290h97v-510h-78l-9 103q-26 -58 -72 -86q-46 -29 -106 -29q-84 0 -126 48v-233h-97v707h97z" />
    <glyph glyph-name="afii10023" unicode="&#x401;" 
d="M565 670v-89h-382v-189h336v-88h-336v-214h400v-90h-500v670h482zM205 902q29 0 49 -19q20 -20 20 -50q0 -27 -20 -47q-21 -18 -49 -18q-27 0 -47 18q-20 20 -20 47q0 30 20 50q19 19 47 19zM460 902q29 0 48 -19q21 -19 21 -50q0 -27 -21 -47q-20 -18 -48 -18t-47 18
q-20 20 -20 47q0 30 20 50q19 19 47 19z" />
    <glyph glyph-name="afii10051" unicode="&#x402;" horiz-adv-x="869" 
d="M641 670v-90h-247v-198q36 44 81 64q45 23 113 23q48 0 90 -15q42 -18 68 -45q28 -27 44 -71q16 -39 16 -92v-198q0 -56 -16 -94q-16 -42 -44 -68q-31 -29 -65 -40q-35 -14 -80 -14q-35 0 -69 8q-33 8 -64 27l34 76q22 -13 48 -19q25 -5 48 -5q52 0 82 32q28 33 28 96
v192q0 72 -36 108q-34 36 -101 36q-59 0 -105 -31q-46 -30 -72 -87v-265h-102v580h-244v90h593z" />
    <glyph glyph-name="afii10052" unicode="&#x403;" horiz-adv-x="609" 
d="M571 670v-90h-386v-580h-102v670h488zM470 931l-84 -159h-90l88 202z" />
    <glyph glyph-name="afii10053" unicode="&#x404;" horiz-adv-x="727" 
d="M467 297h-309q4 -51 26 -93q21 -40 54 -70q37 -29 78 -43q45 -15 97 -15q65 0 116 22q53 21 98 63l57 -67q-108 -108 -278 -108q-80 0 -144 24t-112 69q-45 45 -72 109q-25 67 -25 145q0 75 25 137q25 65 72 112q49 47 116 74q68 28 155 28q66 0 135 -22q65 -24 114 -67
l-54 -72q-41 35 -92 53t-110 18q-49 0 -96 -14q-44 -16 -76 -42q-33 -27 -54 -66q-20 -36 -28 -85h307v-90z" />
    <glyph glyph-name="afii10054" unicode="&#x405;" horiz-adv-x="653" 
d="M525 532q-42 31 -92 46q-48 17 -106 17q-81 0 -117 -27t-36 -72q0 -44 28 -68q29 -23 88 -30l100 -14q102 -15 156 -63q53 -48 53 -130q0 -44 -18 -83q-19 -37 -53 -64q-36 -27 -89 -42q-51 -16 -123 -16q-78 0 -142 18q-63 16 -122 60l48 81q56 -38 110 -54
q52 -16 114 -16q89 0 130 31q44 31 44 82q0 42 -29 68q-29 27 -96 36l-105 15q-97 14 -144 58q-50 44 -50 127q0 47 18 83q20 37 52 60q33 24 80 37q45 12 102 12q70 0 136 -19q67 -20 115 -59z" />
    <glyph glyph-name="afii10055" unicode="&#x406;" horiz-adv-x="269" 
d="M186 670v-670h-103v670h103z" />
    <glyph glyph-name="afii10056" unicode="&#x407;" horiz-adv-x="269" 
d="M186 670v-670h-103v670h103zM33 902q28 0 47 -18q20 -20 20 -49q0 -28 -20 -45q-20 -18 -47 -18t-46 18q-20 17 -20 45q0 29 20 49q19 18 46 18zM238 902q28 0 47 -18q20 -20 20 -49q0 -28 -20 -45q-19 -18 -47 -18q-27 0 -46 18q-20 17 -20 45q0 29 20 49q20 18 46 18z
" />
    <glyph glyph-name="afii10057" unicode="&#x408;" horiz-adv-x="540" 
d="M457 670v-427q0 -123 -57 -190q-58 -67 -172 -67q-54 0 -100 12q-47 14 -90 47l46 78q37 -25 72 -37q37 -10 72 -10q54 0 90 37q37 37 37 118v439h102z" />
    <glyph glyph-name="afii10058" unicode="&#x409;" horiz-adv-x="1131" 
d="M676 670v-224h156q54 0 102 -15q46 -15 80 -43q36 -30 54 -70q20 -40 20 -96q0 -53 -19 -92q-21 -45 -53 -70q-32 -29 -80 -44q-44 -16 -100 -16h-262v582h-261q0 -62 -2 -170q-1 -71 -10 -149q-7 -66 -23 -121q-15 -54 -41 -89q-25 -33 -58 -49q-37 -16 -79 -16
q-24 0 -42 3t-40 11l22 86q12 -4 24 -6q14 -2 23 -2q24 0 41 10q18 9 33 33q32 53 41 163t9 278v106h465zM676 88h145q82 0 124 34q41 36 41 101q0 69 -42 102q-43 33 -124 33h-144v-270z" />
    <glyph glyph-name="afii10059" unicode="&#x40a;" horiz-adv-x="1090" 
d="M186 670v-282h347v282h102v-224h156q56 0 101 -15q43 -14 81 -43q36 -31 53 -70q20 -40 20 -96q0 -53 -19 -92q-21 -45 -53 -70q-32 -29 -79 -44q-45 -16 -100 -16h-262v297h-347v-297h-103v670h103zM635 88h145q82 0 124 34q41 36 41 101q0 69 -43 102q-42 33 -123 33
h-144v-270z" />
    <glyph glyph-name="afii10060" unicode="&#x40b;" horiz-adv-x="869" 
d="M641 670v-90h-247v-198q36 44 81 64q45 23 113 23q48 0 90 -15q42 -18 68 -45q28 -27 44 -71q16 -39 16 -92v-246h-98v239q0 72 -36 108q-34 36 -101 36q-59 0 -105 -31q-46 -30 -72 -87v-265h-102v580h-244v90h593z" />
    <glyph glyph-name="afii10061" unicode="&#x40c;" horiz-adv-x="703" 
d="M183 670v-275l104 8l218 267h126l-261 -310l286 -360h-130l-237 312h-106v-312h-100v670h100zM474 931l-84 -159h-90l88 202z" />
    <glyph glyph-name="afii10062" unicode="&#x40e;" horiz-adv-x="696" 
d="M156 670l206 -386h10l174 386h111l-265 -560q-31 -65 -70 -96q-40 -29 -90 -29q-52 0 -100 20l24 83q18 -6 29 -8q15 -4 30 -4q26 0 49 14q22 13 36 43l17 38l-279 499h118zM281 917q1 -37 24 -57t55 -20q33 0 56 20q22 19 24 57h78q-1 -33 -12 -63q-12 -28 -32 -49
q-21 -21 -50 -33q-30 -11 -64 -11t-64 11q-30 13 -49 33q-21 22 -31 49q-12 29 -13 63h78z" />
    <glyph glyph-name="afii10145" unicode="&#x40f;" horiz-adv-x="724" 
d="M186 670v-578h352v578h102v-670h-229l-7 -145h-84l-8 145h-229v670h103z" />
    <glyph glyph-name="afii10017" unicode="&#x410;" horiz-adv-x="762" 
d="M440 671l281 -671h-112l-60 152h-339l-59 -152h-109l279 671h119zM244 240h271l-129 328h-12z" />
    <glyph glyph-name="afii10018" unicode="&#x411;" horiz-adv-x="673" 
d="M562 670v-90h-378v-159h185q54 0 104 -13q49 -16 81 -41q34 -27 52 -67q19 -38 19 -90t-19 -90q-20 -40 -53 -66q-37 -27 -81 -40q-48 -14 -103 -14h-286v670h479zM184 89h185q81 0 117 35q37 33 37 86q0 57 -37 90q-36 33 -113 33h-189v-244z" />
    <glyph glyph-name="afii10019" unicode="&#x412;" horiz-adv-x="677" 
d="M361 670q57 0 97 -13q42 -13 72 -37q29 -24 42 -56q15 -32 15 -70q0 -43 -19 -78q-20 -37 -54 -53v-9q50 -14 84 -59q31 -45 31 -101q0 -40 -15 -75q-14 -35 -44 -61q-28 -27 -74 -42q-44 -16 -106 -16h-307v670h278zM185 86h205q68 0 104 28q35 30 35 83q0 52 -35 81
q-37 29 -105 29h-204v-221zM185 392h192q57 0 83 26q27 27 27 72q0 94 -129 94h-173v-192z" />
    <glyph glyph-name="afii10020" unicode="&#x413;" horiz-adv-x="609" 
d="M571 670v-90h-386v-580h-102v670h488z" />
    <glyph glyph-name="afii10021" unicode="&#x414;" horiz-adv-x="836" 
d="M690 670v-581h98v-45l-10 -189h-85l-7 145h-536l-9 -145h-86l-7 188v45h27q24 0 51 24q27 23 44 70q11 30 23 86q8 35 17 102q6 54 9 112q3 57 3 116v72h468zM321 582q-2 -181 -25 -307q-22 -127 -67 -186h360v493h-268z" />
    <glyph glyph-name="afii10022" unicode="&#x415;" 
d="M565 670v-89h-382v-189h336v-88h-336v-214h400v-90h-500v670h482z" />
    <glyph glyph-name="afii10024" unicode="&#x416;" horiz-adv-x="1042" 
d="M184 670l180 -266l108 -6v272h98v-272l108 6l180 266h120l-219 -306l250 -364h-119l-207 314h-113v-314h-98v314h-113l-206 -314h-120l250 364l-219 306h120z" />
    <glyph glyph-name="afii10025" unicode="&#x417;" horiz-adv-x="653" 
d="M362 390q50 0 79 27t29 69q0 51 -35 80q-35 30 -114 30q-49 0 -95 -16q-48 -20 -88 -53l-55 72q103 85 243 85q57 0 105 -14q46 -15 77 -40q30 -24 47 -58q16 -33 16 -72q0 -46 -19 -83q-20 -38 -56 -54v-10q50 -16 80 -57q29 -43 29 -99q0 -41 -17 -81q-19 -39 -54 -67
q-37 -30 -88 -46q-53 -17 -121 -17q-83 0 -151 22q-67 24 -126 76l58 73q54 -45 108 -63q53 -19 120 -19q82 0 126 35q42 34 42 90q0 51 -34 76q-34 26 -99 26h-158v88h151z" />
    <glyph glyph-name="afii10026" unicode="&#x418;" horiz-adv-x="743" 
d="M183 670v-518l385 518h92v-670h-100v505l-376 -505h-101v670h100z" />
    <glyph glyph-name="afii10027" unicode="&#x419;" horiz-adv-x="743" 
d="M183 670v-518l385 518h92v-670h-100v505l-376 -505h-101v670h100zM292 917q2 -37 24 -57q23 -20 55 -20q35 0 55 20q23 18 25 57h78q-1 -34 -13 -63q-11 -28 -32 -49q-19 -20 -49 -33q-30 -11 -64 -11t-64 11q-30 13 -49 33q-20 21 -32 49q-11 30 -12 63h78z" />
    <glyph glyph-name="afii10028" unicode="&#x41a;" horiz-adv-x="703" 
d="M183 670v-275l104 8l218 267h126l-261 -310l286 -360h-130l-237 312h-106v-312h-100v670h100z" />
    <glyph glyph-name="afii10029" unicode="&#x41b;" horiz-adv-x="763" 
d="M680 670v-670h-103v582h-264q0 -62 -2 -170q-1 -71 -10 -149q-7 -66 -23 -121q-15 -54 -41 -89q-25 -33 -58 -49q-37 -16 -79 -16q-24 0 -42 3t-40 11l22 86q27 -8 47 -8q24 0 41 10q18 9 33 33q32 55 41 163q9 111 9 278v106h469z" />
    <glyph glyph-name="afii10030" unicode="&#x41c;" horiz-adv-x="840" 
d="M195 670l226 -349l227 349h109v-670h-99v514h-9l-205 -315h-51l-204 315h-9v-514h-97v670h112z" />
    <glyph glyph-name="afii10031" unicode="&#x41d;" horiz-adv-x="732" 
d="M186 670v-282h360v282h102v-670h-102v297h-360v-297h-103v670h103z" />
    <glyph glyph-name="afii10032" unicode="&#x41e;" horiz-adv-x="811" 
d="M405 684q78 0 144 -26q64 -27 111 -74q44 -44 72 -111q25 -67 25 -138q0 -69 -25 -135q-27 -64 -72 -112q-50 -49 -112 -74q-62 -28 -143 -28q-80 0 -143 27q-63 26 -112 75q-45 46 -72 110q-25 67 -25 137q0 71 26 137q26 65 73 110q44 46 110 74q65 28 143 28zM405 595
q-59 0 -105 -20q-46 -19 -79 -55t-49 -82q-17 -49 -17 -103t17 -103q18 -47 50 -82t78 -55q49 -20 105 -20q57 0 105 19q47 21 80 55q33 36 49 83q17 48 17 103q0 57 -18 105q-16 44 -49 82q-31 32 -79 54q-49 19 -105 19z" />
    <glyph glyph-name="afii10033" unicode="&#x41f;" horiz-adv-x="725" 
d="M642 670v-670h-103v578h-353v-578h-103v670h559z" />
    <glyph glyph-name="afii10034" unicode="&#x420;" horiz-adv-x="675" 
d="M368 670q52 0 102 -16q50 -19 80 -48q33 -29 53 -73q19 -42 19 -95q0 -55 -20 -98t-57 -74q-34 -30 -85 -47q-47 -16 -103 -16h-171v-203h-103v670h285zM186 291h169q76 0 121 39q44 38 44 107q0 68 -41 107q-41 38 -117 38h-176v-291z" />
    <glyph glyph-name="afii10035" unicode="&#x421;" horiz-adv-x="727" 
d="M617 523q-83 70 -205 70q-58 0 -106 -18q-48 -19 -80 -52q-34 -34 -52 -81q-19 -47 -19 -107q0 -61 19 -108q20 -50 53 -81q35 -34 81 -51q45 -18 101 -18q63 0 119 21q56 23 99 62l57 -70q-109 -104 -280 -104q-79 0 -142 24q-63 23 -112 69q-45 45 -72 109
q-25 67 -25 145q0 71 25 138q28 66 74 111q46 47 115 75q67 27 154 27q71 0 137 -24q64 -23 112 -65z" />
    <glyph glyph-name="afii10036" unicode="&#x422;" horiz-adv-x="689" 
d="M641 670v-90h-246v-580h-101v580h-246v90h593z" />
    <glyph glyph-name="afii10037" unicode="&#x423;" horiz-adv-x="696" 
d="M156 670l206 -386h10l174 386h111l-265 -560q-31 -65 -70 -96q-40 -29 -90 -29q-52 0 -100 20l24 83q18 -6 29 -8q15 -4 30 -4q26 0 49 14q22 13 36 43l17 38l-279 499h118z" />
    <glyph glyph-name="afii10038" unicode="&#x424;" horiz-adv-x="889" 
d="M495 684v-98h86q54 0 105 -16q49 -19 82 -48q33 -32 54 -76q19 -49 19 -104q0 -58 -21 -105q-21 -46 -56 -78q-35 -30 -83 -49q-50 -16 -100 -16h-86v-94h-101v94h-86q-54 0 -105 16q-49 18 -83 48q-34 33 -53 76q-19 45 -19 104q0 58 21 105t57 78q33 30 82 49
q50 16 100 16h86v98h101zM394 500h-77q-81 0 -125 -42q-43 -43 -43 -120q0 -78 45 -118q44 -40 123 -40h77v320zM495 180h77q82 0 124 43q44 43 44 119q0 78 -45 118q-44 40 -123 40h-77v-320z" />
    <glyph glyph-name="afii10039" unicode="&#x425;" horiz-adv-x="719" 
d="M181 670l177 -263h10l169 263h123l-224 -327l245 -343h-126l-193 286h-10l-188 -286h-126l245 350l-223 320h121z" />
    <glyph glyph-name="afii10040" unicode="&#x426;" horiz-adv-x="768" 
d="M185 670v-581h343v581h101v-581h98v-45l-10 -189h-85l-7 145h-542v670h102z" />
    <glyph glyph-name="afii10041" unicode="&#x427;" horiz-adv-x="705" 
d="M169 670v-217q0 -79 38 -125q38 -43 119 -43q55 0 106 15q51 18 88 43v327h102v-670h-102v251q-38 -25 -94 -41q-58 -13 -114 -13q-113 0 -180 62q-64 62 -64 186v225h101z" />
    <glyph glyph-name="afii10042" unicode="&#x428;" horiz-adv-x="1003" 
d="M184 670v-582h267v582h101v-582h267v582h101v-670h-837v670h101z" />
    <glyph glyph-name="afii10043" unicode="&#x429;" horiz-adv-x="1059" 
d="M184 670v-582h267v582h101v-582h267v582h101v-581h97v-45l-9 -189h-86l-6 145h-833v670h101z" />
    <glyph glyph-name="afii10044" unicode="&#x42a;" horiz-adv-x="755" 
d="M291 670v-224h166q56 0 101 -15q43 -14 81 -43q36 -31 53 -70q20 -40 20 -96q0 -53 -19 -92q-21 -45 -53 -70q-32 -29 -79 -44q-45 -16 -100 -16h-272v580l-161 6v84h263zM291 88h155q81 0 124 34q40 37 40 101q0 69 -42 102t-123 33h-154v-270z" />
    <glyph glyph-name="afii10045" unicode="&#x42b;" horiz-adv-x="879" 
d="M796 670v-670h-102v670h102zM185 670v-224h161q54 0 102 -15q46 -15 80 -43q36 -30 54 -70q20 -40 20 -96q0 -53 -19 -92q-21 -45 -53 -70q-32 -29 -80 -44q-44 -16 -100 -16h-267v670h102zM185 88h150q82 0 124 34q41 36 41 101q0 69 -42 102q-44 33 -124 33h-149v-270z
" />
    <glyph glyph-name="afii10046" unicode="&#x42c;" horiz-adv-x="655" 
d="M185 670v-224h171q54 0 102 -15q46 -15 80 -43q36 -30 54 -70q20 -40 20 -96q0 -53 -19 -92q-21 -45 -53 -70q-32 -29 -80 -44q-44 -16 -100 -16h-277v670h102zM185 88h160q82 0 124 34q41 36 41 101q0 69 -42 102q-43 33 -124 33h-159v-270z" />
    <glyph glyph-name="afii10047" unicode="&#x42d;" horiz-adv-x="715" 
d="M559 385q-3 47 -23 87q-19 37 -52 65q-32 27 -75 42t-92 15q-55 0 -109 -17q-51 -17 -93 -51l-54 73q50 43 118 64q67 21 140 21q77 0 139 -25q65 -26 108 -71q45 -44 71 -109q25 -63 25 -142q0 -75 -24 -139q-25 -65 -69 -111q-45 -47 -110 -74t-147 -27
q-165 0 -269 104l57 68q47 -43 99 -62q54 -20 111 -20q52 0 96 16q45 16 76 44q32 26 53 68q20 42 24 92h-301v89h301z" />
    <glyph glyph-name="afii10048" unicode="&#x42e;" horiz-adv-x="1011" 
d="M183 670v-287h107q7 65 35 122q27 55 70 95q42 39 101 62q56 22 126 22q77 0 137 -25q65 -27 106 -71q44 -47 69 -110q24 -64 24 -143q0 -73 -24 -138q-26 -65 -69 -111q-44 -47 -106 -74q-63 -26 -137 -26q-71 0 -130 22t-101 61q-44 41 -69 98q-26 60 -32 130h-107
v-297h-100v670h100zM622 598q-52 0 -95 -18q-39 -16 -75 -52q-33 -40 -48 -84q-18 -50 -18 -110q0 -59 17 -108q16 -47 47 -83q30 -32 74 -53q45 -18 98 -18q51 0 96 18q44 21 74 53q32 35 48 83q17 49 17 109q0 61 -16 109q-17 50 -46 82q-28 33 -74 54q-43 18 -99 18z" />
    <glyph glyph-name="afii10049" unicode="&#x42f;" horiz-adv-x="684" 
d="M601 0h-102v221h-182l-151 -221h-123l176 246q-71 22 -111 76q-39 53 -39 125q0 50 18 91q19 42 51 70q32 29 78 46q45 16 102 16h283v-670zM325 582q-72 0 -113 -34q-41 -33 -41 -101q0 -66 43 -102q44 -36 115 -36h170v273h-174z" />
    <glyph glyph-name="afii10065" unicode="&#x430;" horiz-adv-x="623" 
d="M79 463q55 34 102 45q48 14 108 14q119 0 174 -54q55 -55 55 -151v-187q0 -30 11 -46q11 -13 29 -13q12 0 21 4l9 -74q-20 -10 -51 -10q-40 0 -63 19q-27 18 -34 67q-65 -89 -198 -89q-91 0 -144 44q-52 43 -52 126q0 78 61 121q62 44 167 44q44 0 80 -7q40 -8 69 -18v28
q0 54 -32 83q-31 28 -100 28q-90 0 -173 -44zM424 222q-63 22 -146 22q-72 0 -102 -24q-31 -25 -31 -64q0 -41 29 -64q30 -21 86 -21q34 0 64 9q27 10 52 27q21 17 35 41q13 22 13 52v22z" />
    <glyph glyph-name="afii10066" unicode="&#x431;" horiz-adv-x="647" 
d="M155 400q30 39 77 64q50 22 122 22q52 0 98 -17t78 -49q32 -31 50 -78q19 -44 19 -104q0 -56 -21 -103q-22 -46 -58 -79q-38 -34 -87 -50q-49 -18 -107 -18q-63 0 -115 22q-52 25 -85 64q-35 41 -53 100t-18 133q0 87 19 150q18 65 52 109q35 45 82 72q51 27 107 37
l103 17q32 6 48 22t16 39q0 15 -4 24l81 14q9 -25 9 -54q0 -50 -30 -83q-30 -34 -82 -43l-133 -23q-78 -14 -123 -62q-46 -47 -55 -126h10zM337 406q-70 0 -115 -36q-46 -33 -71 -94q0 -49 13 -85q12 -36 34 -65q25 -28 56 -42q33 -14 71 -14q40 0 71 12q32 11 55 32
q24 24 35 53q13 30 13 70q0 85 -44 127q-43 42 -118 42z" />
    <glyph glyph-name="afii10067" unicode="&#x432;" horiz-adv-x="572" 
d="M314 510q84 0 130 -37q48 -37 48 -97q0 -34 -15 -60q-15 -23 -42 -37v-8q43 -12 66 -43q23 -34 23 -79q0 -68 -49 -108q-50 -41 -147 -41h-255v510h241zM168 83h170q44 0 67 17q23 18 23 53q0 33 -22 51q-20 19 -70 19h-168v-140zM168 303h152q37 0 56 17q20 16 20 46
q0 29 -20 46t-65 17h-143v-126z" />
    <glyph glyph-name="afii10068" unicode="&#x433;" horiz-adv-x="518" 
d="M474 510v-84h-304v-426h-97v510h401z" />
    <glyph glyph-name="afii10069" unicode="&#x434;" horiz-adv-x="673" 
d="M564 510v-427h75v-33l-8 -173h-81l-5 123h-416l-8 -123h-80l-8 171v33l29 4q31 5 50 33q22 30 35 78q15 53 20 140q3 55 5 174h392zM261 427q0 -62 -5 -130q-4 -53 -16 -107q-7 -36 -20 -65q-10 -26 -28 -42h277v344h-208z" />
    <glyph glyph-name="afii10070" unicode="&#x435;" horiz-adv-x="612" 
d="M146 222q7 -70 55 -110q47 -39 125 -39q50 0 96 13q44 14 84 43l44 -69q-49 -38 -106 -56q-59 -16 -120 -16q-65 0 -116 18q-54 21 -86 54q-35 32 -55 83q-19 48 -19 111q0 56 20 107q19 48 56 85t87 56q52 20 113 20q53 0 98 -17q43 -17 76 -49q32 -32 48 -75
q18 -43 18 -97q0 -10 -2 -32q-1 -10 -5 -30h-411zM466 302q-2 62 -37 99q-36 37 -109 37q-72 0 -116 -36q-44 -38 -54 -100h316z" />
    <glyph glyph-name="afii10072" unicode="&#x436;" horiz-adv-x="880" 
d="M488 510v-201l81 6l148 195h116l-183 -232l196 -278h-111l-161 233h-86v-233h-94v233h-88l-155 -233h-118l199 274l-184 236h113l150 -195l83 -6v201h94z" />
    <glyph glyph-name="afii10073" unicode="&#x437;" horiz-adv-x="554" 
d="M67 458q43 33 93 48q48 16 112 16q93 0 149 -38q56 -39 56 -108q0 -31 -15 -58q-15 -24 -41 -38v-8q36 -13 59 -44q21 -32 21 -72q0 -33 -13 -67q-15 -31 -44 -53q-25 -21 -74 -36q-46 -12 -110 -12q-63 0 -119 16q-55 19 -103 58l48 67q39 -30 81 -45q44 -14 93 -14
q69 0 106 20q37 21 37 62q0 34 -21 52q-20 19 -65 19h-134v78h122q37 0 57 17q19 18 19 49q0 32 -25 53q-24 21 -89 21q-42 0 -83 -11q-36 -11 -72 -37z" />
    <glyph glyph-name="afii10074" unicode="&#x438;" horiz-adv-x="626" 
d="M457 0v366l-293 -366h-91v510h96v-372l296 372h88v-510h-96z" />
    <glyph glyph-name="afii10075" unicode="&#x439;" horiz-adv-x="626" 
d="M457 0v366l-293 -366h-91v510h96v-372l296 372h88v-510h-96zM240 748q1 -34 22 -52q18 -19 50 -19t50 19q21 18 22 52h79q-1 -34 -14 -62q-11 -25 -32 -46q-18 -17 -47 -28q-26 -10 -58 -10q-33 0 -59 10q-29 10 -47 28q-21 19 -32 46q-12 27 -12 62h78z" />
    <glyph glyph-name="afii10076" unicode="&#x43a;" horiz-adv-x="595" 
d="M170 510v-201l94 9l158 192h121l-196 -230l220 -280h-118l-178 229h-101v-229h-97v510h97z" />
    <glyph glyph-name="afii10077" unicode="&#x43b;" horiz-adv-x="659" 
d="M585 510v-510h-98v428h-213q0 -57 -1 -87q-2 -59 -5 -87q-3 -44 -9 -80q-6 -39 -16 -66q-19 -59 -54 -88q-34 -28 -93 -28q-25 0 -44 4q-18 3 -37 11l19 77q18 -6 26 -7q18 -2 25 -2q27 0 44 17q17 18 24 45q17 50 23 121q5 82 5 164v88h404z" />
    <glyph glyph-name="afii10078" unicode="&#x43c;" horiz-adv-x="703" 
d="M186 510l166 -253l167 253h111v-510h-94v377h-9l-153 -229h-46l-152 229h-10v-377h-93v510h113z" />
    <glyph glyph-name="afii10079" unicode="&#x43d;" horiz-adv-x="619" 
d="M172 510v-209h275v209h99v-510h-99v217h-275v-217h-99v510h99z" />
    <glyph glyph-name="afii10080" unicode="&#x43e;" horiz-adv-x="650" 
d="M325 522q63 0 112 -20q48 -17 88 -54q38 -36 57 -85q20 -51 20 -108t-21 -106t-57 -85q-39 -37 -88 -56q-52 -20 -111 -20q-64 0 -113 20q-48 17 -88 54q-37 37 -56 85q-20 51 -20 108q0 55 20 106q21 49 58 85q37 37 87 56q52 20 112 20zM325 439q-38 0 -75 -13
q-36 -16 -56 -38q-25 -26 -36 -59q-13 -33 -13 -74q0 -42 13 -75q13 -34 36 -58q22 -22 57 -38q36 -13 74 -13q39 0 75 13q36 16 56 38q24 24 36 58q13 33 13 75q0 41 -13 73q-13 34 -36 58q-24 26 -57 39q-34 14 -74 14z" />
    <glyph glyph-name="afii10081" unicode="&#x43f;" horiz-adv-x="618" 
d="M545 510v-510h-99v427h-274v-427h-99v510h472z" />
    <glyph glyph-name="afii10082" unicode="&#x440;" horiz-adv-x="650" 
d="M150 510l10 -93q34 57 84 81q48 24 114 24q54 0 99 -18q47 -20 77 -52q33 -36 50 -82q17 -51 17 -109q0 -69 -23 -118q-21 -52 -59 -85q-37 -35 -85 -52q-48 -18 -100 -18q-47 0 -88 11q-37 9 -77 37v-233h-96v707h77zM169 129q68 -56 157 -56q40 0 72 13q35 15 55 38
q23 24 36 60q13 33 13 80q0 35 -10 70q-13 35 -32 55q-19 22 -50 36q-27 13 -66 13q-64 0 -109 -34q-44 -37 -66 -93v-182z" />
    <glyph glyph-name="afii10083" unicode="&#x441;" horiz-adv-x="583" 
d="M476 381q-30 26 -66 41q-39 15 -88 15q-36 0 -68 -12t-57 -35q-24 -23 -38 -56q-14 -34 -14 -75q0 -85 47 -135t130 -50q46 0 89 16q43 19 70 49l59 -61q-43 -48 -98 -68q-53 -22 -124 -22q-64 0 -116 20q-52 22 -84 57q-36 35 -52 85q-18 48 -18 104q0 63 22 110
q21 51 58 85q37 35 86 54q47 19 106 19q70 0 120 -20q50 -17 90 -57z" />
    <glyph glyph-name="afii10084" unicode="&#x442;" horiz-adv-x="560" 
d="M517 510v-84h-188v-426h-98v426h-188v84h474z" />
    <glyph glyph-name="afii10085" unicode="&#x443;" horiz-adv-x="638" 
d="M152 510l184 -408h9l147 408h108l-233 -566q-28 -71 -68 -106q-39 -33 -99 -33q-56 0 -94 26l27 75q19 -9 31 -11q15 -3 29 -3q29 0 49 15q21 15 35 50l13 36l-252 517h114z" />
    <glyph glyph-name="afii10086" unicode="&#x444;" horiz-adv-x="931" 
d="M513 703v-235q29 27 59 40q34 14 79 14q108 0 171 -67q61 -69 61 -198q0 -62 -19 -114q-22 -51 -54 -85q-35 -35 -79 -52q-47 -18 -99 -18q-39 0 -64 7q-27 7 -55 21v-213h-96v239q-27 -28 -59 -40q-31 -14 -78 -14q-108 0 -170 68q-62 67 -62 197q0 67 20 114
q17 47 52 85q37 35 80 52q46 18 99 18q69 0 118 -28v209h96zM417 409q-28 15 -53 22q-24 7 -56 7q-79 0 -120 -50q-42 -51 -42 -136q0 -95 40 -138q39 -42 104 -42q41 0 72 17q29 15 55 49v271zM513 101q26 -14 54 -22q24 -7 56 -7q78 0 120 51t42 136q0 94 -40 137t-105 43
q-41 0 -72 -17q-31 -18 -55 -51v-270z" />
    <glyph glyph-name="afii10087" unicode="&#x445;" horiz-adv-x="627" 
d="M178 510l132 -195h10l130 195h117l-181 -245l202 -265h-123l-152 216h-10l-143 -216h-122l200 269l-183 241h123z" />
    <glyph glyph-name="afii10088" unicode="&#x446;" horiz-adv-x="634" 
d="M169 510v-427h263v427h96v-427h76v-33l-8 -173h-81l-6 123h-436v510h96z" />
    <glyph glyph-name="afii10089" unicode="&#x447;" horiz-adv-x="581" 
d="M149 510v-158q0 -63 28 -94q29 -33 90 -33q44 0 81 13q38 16 67 42v230h96v-510h-96v193q-29 -24 -72 -38q-39 -13 -92 -13q-93 0 -145 52q-53 53 -53 143v173h96z" />
    <glyph glyph-name="afii10090" unicode="&#x448;" horiz-adv-x="863" 
d="M168 510v-427h216v427h95v-427h216v427h95v-510h-717v510h95z" />
    <glyph glyph-name="afii10091" unicode="&#x449;" horiz-adv-x="896" 
d="M168 510v-427h216v427h95v-427h216v427h95v-427h76v-33l-8 -173h-81l-6 123h-698v510h95z" />
    <glyph glyph-name="afii10092" unicode="&#x44a;" horiz-adv-x="642" 
d="M268 510v-168q32 15 66 24q37 8 71 8q42 0 78 -12q34 -10 63 -34q27 -24 42 -58t15 -79q0 -41 -15 -76t-44 -61q-28 -25 -70 -40q-45 -14 -97 -14h-205v428h-144v82h240zM268 83h103q67 0 101 29q33 28 33 80q0 48 -29 74q-30 27 -88 27q-65 0 -120 -31v-179z" />
    <glyph glyph-name="afii10093" unicode="&#x44b;" horiz-adv-x="752" 
d="M679 510v-510h-99v510h99zM171 510v-168q31 15 65 24q37 8 72 8q42 0 78 -12q34 -10 61 -34q26 -23 41 -57t15 -79q0 -42 -15 -76q-13 -34 -42 -61q-32 -27 -71 -41q-44 -14 -96 -14h-206v510h98zM171 83h102q68 0 101 30q31 31 31 80t-28 74q-29 26 -87 26
q-64 0 -119 -31v-179z" />
    <glyph glyph-name="afii10094" unicode="&#x44c;" horiz-adv-x="551" 
d="M171 510v-169q29 15 67 25q38 8 73 8q41 0 77 -12q38 -11 64 -34q27 -20 44 -56q16 -33 16 -80q0 -44 -16 -77q-14 -33 -44 -61q-32 -26 -72 -40q-45 -14 -97 -14h-210v510h98zM171 82h106q70 0 103 30q34 30 34 81q0 49 -30 74q-29 26 -88 26q-69 0 -125 -32v-179z" />
    <glyph glyph-name="afii10095" unicode="&#x44d;" horiz-adv-x="575" 
d="M426 301q-8 68 -52 103t-115 35q-85 0 -150 -56l-51 66q38 35 88 54q47 19 111 19q67 0 116 -21t84 -57t51 -84q18 -50 18 -104q0 -61 -20 -110q-18 -48 -54 -84t-86 -55q-47 -19 -109 -19q-69 0 -121 20q-52 21 -93 64l58 62q29 -28 69 -46q42 -16 88 -16q35 0 62 10
q32 9 53 28q24 20 37 46q15 27 18 64h-213v81h211z" />
    <glyph glyph-name="afii10096" unicode="&#x44e;" horiz-adv-x="836" 
d="M170 510v-209h90q8 48 28 89q25 43 56 70q33 27 78 46q48 16 98 16q61 0 110 -20q49 -19 85 -56q35 -34 54 -84q19 -48 19 -108q0 -57 -19 -104q-20 -50 -55 -85q-33 -35 -84 -57q-52 -20 -110 -20q-57 0 -102 18q-45 16 -80 48q-34 30 -54 72q-20 45 -26 94h-88v-220
h-97v510h97zM520 439q-36 0 -70 -13q-31 -15 -53 -38q-22 -25 -34 -59q-12 -35 -12 -74t11 -75q10 -32 33 -58q22 -23 53 -38q34 -13 72 -13t70 13q33 15 54 39q22 25 34 59q12 33 12 74q0 38 -11 74q-10 32 -33 58q-19 22 -53 38q-34 13 -73 13z" />
    <glyph glyph-name="afii10097" unicode="&#x44f;" horiz-adv-x="582" 
d="M411 0v187q-60 -29 -136 -32l-116 -155h-116l140 174q-53 15 -84 58q-31 41 -31 99q0 40 15 73q15 34 45 56q28 23 72 37q40 13 96 13h212v-510h-97zM411 428h-110q-67 0 -101 -26q-34 -25 -34 -71q0 -48 32 -71q29 -26 87 -26q69 0 126 33v161z" />
    <glyph glyph-name="afii10071" unicode="&#x451;" horiz-adv-x="612" 
d="M146 222q7 -70 55 -110q47 -39 125 -39q50 0 96 13q44 14 84 43l44 -69q-49 -38 -106 -56q-59 -16 -120 -16q-65 0 -116 18q-54 21 -86 54q-35 32 -55 83q-19 48 -19 111q0 56 20 107q19 48 56 85t87 56q52 20 113 20q53 0 98 -17q43 -17 76 -49q32 -32 48 -75
q18 -43 18 -97q0 -10 -2 -32q-1 -10 -5 -30h-411zM466 302q-2 62 -37 99q-36 37 -109 37q-72 0 -116 -36q-44 -38 -54 -100h316zM211 735q26 0 45 -17q19 -18 19 -45t-19 -45q-19 -17 -45 -17q-25 0 -45 17q-18 18 -18 45t18 45q20 17 45 17zM437 735q25 0 45 -17
q18 -18 18 -45t-18 -45q-20 -17 -45 -17t-45 17q-18 18 -18 45t18 45q20 17 45 17z" />
    <glyph glyph-name="afii10099" unicode="&#x452;" horiz-adv-x="661" 
d="M191 730v-71h156v-78h-156v-162q28 51 73 77q46 26 114 26q96 0 154 -56q56 -56 56 -165v-284q0 -46 -14 -85q-13 -35 -38 -60q-24 -24 -58 -36q-32 -13 -72 -13q-36 0 -68 8q-30 8 -58 27l35 74q43 -23 86 -23q47 0 69 27q21 29 21 76v278q0 74 -33 112q-34 36 -96 36
q-60 0 -105 -39t-66 -110v-289h-98v581h-70v78h69l10 71h89z" />
    <glyph glyph-name="afii10100" unicode="&#x453;" horiz-adv-x="518" 
d="M474 510v-84h-304v-426h-97v510h401zM411 760l-82 -139h-85l85 187z" />
    <glyph glyph-name="afii10101" unicode="&#x454;" horiz-adv-x="583" 
d="M381 223h-234q7 -71 54 -111q46 -40 121 -40q48 0 90 18q40 17 69 49l59 -61q-82 -90 -222 -90q-65 0 -116 20q-52 22 -84 57q-36 35 -52 85q-18 48 -18 104q0 63 22 110q21 51 58 85q37 35 86 54q47 19 106 19q67 0 121 -20q52 -21 89 -58l-57 -64q-29 26 -65 42t-86 16
q-33 0 -60 -9q-29 -9 -52 -27q-22 -16 -39 -42q-16 -25 -22 -56h232v-81z" />
    <glyph glyph-name="afii10102" unicode="&#x455;" horiz-adv-x="569" 
d="M453 393q-78 45 -169 45q-59 0 -92 -18q-31 -20 -31 -51q0 -27 17 -41q16 -15 56 -19l104 -12q81 -10 130 -45q48 -36 48 -105q0 -75 -64 -117q-63 -42 -178 -42q-70 0 -120 14q-51 12 -106 48l42 75q45 -29 91 -42q45 -13 97 -13q73 0 108 19q35 20 35 54q0 29 -19 47
q-22 17 -69 21l-120 14q-73 8 -110 45q-38 36 -38 99q0 67 56 111q55 42 165 42q60 0 111 -13q57 -15 97 -41z" />
    <glyph glyph-name="afii10103" unicode="&#x456;" horiz-adv-x="245" 
d="M172 510v-510h-99v510h99zM123 744q27 0 47 -18q21 -18 21 -49q0 -30 -21 -48q-20 -18 -47 -18q-29 0 -48 18q-20 18 -20 48q0 31 20 49q19 18 48 18z" />
    <glyph glyph-name="afii10104" unicode="&#x457;" horiz-adv-x="246" 
d="M173 510v-510h-100v510h100zM32 735q25 0 44 -17q19 -16 19 -45q0 -27 -19 -45q-19 -17 -44 -17t-44 17q-19 18 -19 45q0 29 19 45q19 17 44 17zM216 735q25 0 44 -17q19 -18 19 -45t-19 -45q-19 -17 -44 -17t-44 17q-19 16 -19 45t19 45q19 17 44 17z" />
    <glyph glyph-name="afii10105" unicode="&#x458;" horiz-adv-x="251" 
d="M178 510v-546q0 -44 -12 -82q-10 -35 -34 -64q-23 -26 -58 -42q-36 -15 -81 -15q-38 0 -73 8q-33 7 -66 26l33 77q28 -15 49 -19q25 -5 52 -5q41 0 68 28q25 30 25 88v546h97zM129 745q28 0 47 -19q21 -18 21 -48q0 -31 -21 -49q-20 -18 -47 -18t-47 18q-21 18 -21 49
q0 30 21 48q19 19 47 19z" />
    <glyph glyph-name="afii10106" unicode="&#x459;" horiz-adv-x="948" 
d="M578 510v-169q26 15 62 25q37 8 70 8q40 0 76 -12q38 -11 64 -34q27 -20 44 -56q16 -33 16 -80q0 -44 -16 -77q-16 -34 -46 -61q-31 -26 -72 -40q-44 -14 -94 -14h-201v428h-207q0 -57 -1 -87q-2 -59 -5 -87q-3 -44 -9 -80q-6 -39 -16 -66q-19 -59 -54 -88
q-34 -28 -93 -28q-25 0 -44 4q-18 3 -37 11l19 77q18 -6 26 -7q18 -2 25 -2q27 0 44 17q17 18 24 45q17 50 23 123q5 82 5 166v84h397zM578 82h98q68 0 102 30t34 81q0 49 -30 74q-31 26 -87 26q-62 0 -117 -32v-179z" />
    <glyph glyph-name="afii10107" unicode="&#x45a;" horiz-adv-x="910" 
d="M172 510v-208h270v208h98v-169q26 15 62 25q35 8 70 8q40 0 76 -12q36 -11 64 -34q25 -19 44 -56q16 -37 16 -80q0 -44 -16 -77q-16 -34 -46 -61q-31 -26 -72 -40q-44 -14 -94 -14h-202v219h-270v-219h-99v510h99zM540 82h98q66 0 101 30q34 30 34 81q0 48 -29 74
q-31 26 -87 26q-62 0 -117 -32v-179z" />
    <glyph glyph-name="afii10108" unicode="&#x45b;" horiz-adv-x="661" 
d="M191 730v-71h156v-78h-156v-162q28 51 73 77q46 26 114 26q96 0 154 -56q56 -56 56 -165v-301h-97v290q0 74 -33 112q-34 36 -96 36q-60 0 -105 -39t-66 -110v-289h-98v581h-70v78h69l10 71h89z" />
    <glyph glyph-name="afii10109" unicode="&#x45c;" horiz-adv-x="595" 
d="M170 510v-201l94 9l158 192h121l-196 -230l220 -280h-118l-178 229h-101v-229h-97v510h97zM425 760l-82 -139h-85l85 187z" />
    <glyph glyph-name="afii10110" unicode="&#x45e;" horiz-adv-x="638" 
d="M152 510l184 -408h9l147 408h108l-233 -566q-28 -71 -68 -106q-39 -33 -99 -33q-56 0 -94 26l27 75q19 -9 31 -11q15 -3 29 -3q29 0 49 15q21 15 35 50l13 36l-252 517h114zM257 748q1 -32 21 -52q20 -19 51 -19t51 19q20 20 21 52h79q-1 -34 -14 -62q-11 -25 -32 -46
q-18 -17 -47 -28q-26 -10 -58 -10q-33 0 -59 10q-29 10 -47 28q-21 19 -32 46q-12 27 -12 62h78z" />
    <glyph glyph-name="afii10193" unicode="&#x45f;" horiz-adv-x="620" 
d="M172 510v-427h276v427h99v-510h-189l-7 -123h-83l-7 123h-188v510h99z" />
    <glyph glyph-name="afii10050" unicode="&#x490;" horiz-adv-x="609" 
d="M472 670l13 158h86v-248h-386v-580h-102v670h389z" />
    <glyph glyph-name="afii10098" unicode="&#x491;" horiz-adv-x="510" 
d="M377 510l11 126h82v-210h-300v-426h-97v510h304z" />
    <glyph glyph-name="endash" unicode="&#x2013;" horiz-adv-x="653" 
d="M560 324v-84h-467v84h467z" />
    <glyph glyph-name="emdash" unicode="&#x2014;" horiz-adv-x="1009" 
d="M846 324v-84h-683v84h683z" />
    <glyph glyph-name="quoteleft" unicode="&#x2018;" horiz-adv-x="217" 
d="M135 578q17 -5 28 -20q11 -17 11 -37q0 -30 -19 -46q-19 -18 -47 -18q-26 0 -46 17q-19 16 -19 47q0 6 2 18l4 16l54 136l55 -14z" />
    <glyph glyph-name="quoteright" unicode="&#x2019;" horiz-adv-x="217" 
d="M82 552q-17 5 -28 20q-11 17 -11 37q0 28 19 47q22 17 47 17q28 0 46 -17q19 -15 19 -47q0 -7 -2 -17l-4 -17l-54 -136l-55 14z" />
    <glyph glyph-name="quotesinglbase" unicode="&#x201a;" horiz-adv-x="217" 
d="M82 -8q-17 5 -28 20q-11 17 -11 37q0 28 19 47q22 17 47 17q28 0 46 -17q19 -15 19 -47q0 -7 -2 -17l-4 -17l-54 -136l-55 14z" />
    <glyph glyph-name="quotedblleft" unicode="&#x201c;" horiz-adv-x="358" 
d="M286 578q17 -5 28 -20q11 -17 11 -37q0 -30 -19 -46q-20 -18 -46 -18t-46 17t-20 47q0 6 2 18q1 3 2.5 9t1.5 8l48 122l54 -14zM127 579q17 -6 27 -21q10 -16 10 -37q0 -30 -19 -46q-20 -18 -47 -18q-28 0 -46 18q-19 16 -19 46q0 19 6 34l53 140l60 -17z" />
    <glyph glyph-name="quotedblright" unicode="&#x201d;" horiz-adv-x="358" 
d="M72 552q-17 5 -28 20q-11 17 -11 37q0 29 19 47q20 17 46 17q29 0 46 -17q20 -14 20 -47q0 -6 -2 -18q-1 -3 -2.5 -9t-1.5 -8l-48 -122l-54 14zM231 551q-17 6 -27 21q-10 16 -10 37q0 29 19 47q20 17 47 17t46 -17q19 -18 19 -47q0 -19 -6 -34l-53 -140l-60 17z" />
    <glyph glyph-name="quotedblbase" unicode="&#x201e;" horiz-adv-x="358" 
d="M72 -8q-17 5 -28 20q-11 17 -11 37q0 29 19 47q20 17 46 17q29 0 46 -17q20 -14 20 -47q0 -6 -2 -18q-1 -3 -2.5 -9t-1.5 -8l-48 -122l-54 14zM231 -9q-17 6 -27 21q-10 16 -10 37q0 29 19 47q20 17 47 17t46 -17q19 -18 19 -47q0 -19 -6 -34l-53 -140l-60 17z" />
    <glyph glyph-name="dagger" unicode="&#x2020;" horiz-adv-x="442" 
d="M270 647l-7 -135h126v-86l-126 7l6 -433h-95l6 433l-127 -7v86h127l-7 135h97z" />
    <glyph glyph-name="daggerdbl" unicode="&#x2021;" horiz-adv-x="442" 
d="M270 647l-7 -135h126v-86l-126 7v-120h126v-85l-127 7l7 -235h-95l7 235l-128 -7v85h127v120l-127 -7v86h127l-7 135h97z" />
    <glyph glyph-name="bullet" unicode="&#x2022;" horiz-adv-x="365" 
d="M183 413q33 0 55 -21q23 -23 23 -57q0 -35 -23 -56q-22 -21 -55 -21q-32 0 -56 21t-24 56t24 57q24 21 56 21z" />
    <glyph glyph-name="ellipsis" unicode="&#x2026;" horiz-adv-x="643" 
d="M119 123q26 0 46 -17q20 -18 20 -47t-20 -47q-19 -18 -46 -18t-46 18q-20 18 -20 47t20 47q20 17 46 17zM321 123q25 0 47 -17q20 -18 20 -47t-20 -47q-21 -18 -47 -18q-27 0 -46 18q-20 18 -20 47t20 47q20 17 46 17zM523 123q27 0 47 -17q20 -18 20 -47t-20 -47
t-47 -18t-46 18q-20 18 -20 47t20 47q20 17 46 17z" />
    <glyph glyph-name="perthousand" unicode="&#x2030;" horiz-adv-x="1141" 
d="M203 642q35 0 65 -12q29 -10 50 -32q21 -20 33 -48t12 -60t-12 -60t-33 -48q-22 -22 -50 -32q-30 -12 -65 -12t-65 12q-29 10 -50 32q-21 20 -33 48t-12 60t12 60t33 48q22 22 50 32q30 12 65 12zM663 584l-485 -601l-64 49l486 602zM203 567q-35 0 -56 -21t-21 -56
t21 -56t56 -21t56 21t21 56t-21 56t-56 21zM591 297q33 0 63 -11q29 -12 51 -32q21 -21 33 -49q12 -29 12 -60t-12 -60q-12 -28 -33 -49q-22 -20 -51 -32q-30 -11 -63 -11q-34 0 -65 11q-28 12 -50 32q-21 21 -33 49q-12 29 -12 60t12 60q12 28 33 49q22 20 50 32
q31 11 65 11zM591 222q-35 0 -56 -21t-21 -56t21 -56t56 -21t55 21q21 21 21 56t-21 56q-20 21 -55 21zM952 297q34 0 64 -11q29 -12 51 -32q21 -21 33 -49q12 -29 12 -60t-12 -60q-12 -28 -33 -49q-22 -20 -51 -32q-30 -11 -64 -11t-64 11q-28 12 -50 32q-21 21 -33 49
q-12 29 -12 60t12 60q12 28 33 49q22 20 50 32q30 11 64 11zM952 222q-35 0 -56 -21q-20 -22 -20 -56t20 -56q21 -21 56 -21t56 21t21 56t-21 56t-56 21z" />
    <glyph glyph-name="guilsinglleft" unicode="&#x2039;" horiz-adv-x="324" 
d="M272 388l-120 -125l120 -128l-60 -57l-169 169v27l170 169z" />
    <glyph glyph-name="guilsinglright" unicode="&#x203a;" horiz-adv-x="324" 
d="M281 274v-27l-170 -169l-59 55l120 125l-120 128l59 57z" />
    <glyph glyph-name="Euro" unicode="&#x20ac;" horiz-adv-x="725" 
d="M447 294l-8 -85h-222q22 -63 77 -99q56 -35 135 -35q63 0 109 21q46 20 90 63l59 -66q-51 -53 -115 -80q-66 -27 -150 -27q-125 0 -205 59q-81 59 -109 165l-65 5v79h404zM112 444q18 52 44 88q27 40 68 70q41 28 94 46q56 16 119 16q139 0 237 -89l-58 -69
q-41 36 -84 52q-46 17 -100 17q-83 0 -138 -35q-57 -34 -79 -95h246l-8 -85h-410v80z" />
    <glyph glyph-name="uni20B6" unicode="&#x20b6;" horiz-adv-x="665" 
d="M382 652q53 0 100 -14q42 -15 75 -41q31 -25 48 -64t17 -84q0 -94 -64 -147q-66 -54 -180 -54h-166v-71h200v-79h-201v-98h-96v97l-87 7v73h85v71h-85v84h85v320h269zM212 332h166q73 0 108 31q38 31 38 85q0 53 -36 86q-39 31 -106 31h-170v-233z" />
    <glyph glyph-name="afii61352" unicode="&#x2116;" horiz-adv-x="1095" 
d="M910 523q30 0 58 -11q26 -11 44 -30q17 -16 30 -43q10 -28 10 -53t-10 -53q-13 -27 -30 -43q-15 -16 -44 -30q-30 -10 -58 -10q-30 0 -58 10q-28 13 -45 30q-18 17 -29 43q-10 24 -10 53t10 53q11 26 29 43q19 20 45 30q27 11 58 11zM1041 186v-78h-262v78h262zM910 448
q-26 0 -45 -16q-18 -18 -18 -46t19 -46q19 -16 44 -16t44 16q18 18 18 46t-18 46q-19 16 -44 16zM661 651v-651h-101l-380 493v-493h-97v651h94l388 -505v505h96z" />
    <glyph glyph-name="trademark" unicode="&#x2122;" horiz-adv-x="670" 
d="M377 671l91 -108l89 108h73v-287h-69v189l-84 -99h-21l-82 99v-189h-70v221h-105v-221h-70v221h-101v66h349z" />
    <glyph glyph-name="minus" unicode="&#x2212;" horiz-adv-x="477" 
d="M414 383v-86h-351v86h351z" />
    <glyph glyph-name="approxequal" unicode="&#x2248;" horiz-adv-x="468" 
d="M48 415q22 34 51 55q30 19 72 19q20 0 39 -7l30 -17q4 -3 14 -9t13 -8q16 -7 34 -7q47 0 72 37l47 -46q-18 -34 -48 -54q-28 -19 -73 -19q-21 0 -40 7q-26 14 -31 18q-20 12 -29 16q-12 8 -32 8q-25 0 -43 -10q-18 -12 -31 -29zM48 244q24 37 51 54q27 20 72 20
q24 0 39 -8q8 -3 30 -16q13 -10 27 -16q12 -8 34 -8q47 0 72 37l47 -46q-18 -35 -48 -54q-28 -19 -73 -19q-25 0 -40 8q-15 6 -31 16q-5 4 -15 9.5t-14 8.5q-16 7 -32 7q-28 0 -43 -11q-16 -8 -31 -28z" />
    <glyph glyph-name="notequal" unicode="&#x2260;" horiz-adv-x="483" 
d="M235 469l25 91l81 -22l-20 -69h98v-81h-120l-26 -93h146v-80h-168l-23 -87l-81 23l17 64h-101v80h124l25 93h-149v81h172z" />
    <glyph glyph-name="lessequal" unicode="&#x2264;" horiz-adv-x="405" 
d="M362 537l-180 -133l180 -136l-51 -66l-247 181v33l245 188zM307 119l-51 -68l-213 161v19l40 53z" />
    <glyph glyph-name="greaterequal" unicode="&#x2265;" horiz-adv-x="405" 
d="M341 416v-33l-247 -181l-51 66l180 134l-180 134l53 68zM362 231v-19l-213 -161l-51 68l224 165z" />
    <glyph glyph-name="dblgrave" horiz-adv-x="318" 
d="M272 621h-78l-74 154l81 39zM129 621h-82l-80 124l80 44z" />
    <glyph glyph-name="commaaccent" horiz-adv-x="224" 
d="M86 -197q-18 5 -28 21q-11 17 -11 38q0 30 19 46q20 17 45 17t47 -17q19 -17 19 -46q0 -16 -6 -30l-54 -132l-56 20z" />
    <glyph glyph-name="paragraph.1" horiz-adv-x="550" 
d="M418 601l20 -85l58 7l15 -64l-71 -22v-324q0 -75 -25 -126q-26 -53 -86 -94l-169 -118l-43 62l105 77v319q-11 -7 -27 -10q-15 -3 -30 -3q-25 0 -49 8q-23 9 -40 26q-19 21 -28 44q-10 27 -10 58q0 35 13 64q15 30 36 48q25 21 55 31q31 11 68 11h21l18 52l52 -4v-590
l17 13q42 33 42 112v502zM200 438q-33 0 -56 -20q-23 -21 -23 -57q0 -34 19 -50q17 -16 41 -16t41 11v132h-22z" />
    <glyph glyph-name="dieresisi" horiz-adv-x="330" 
d="M73 735q25 0 45 -17q18 -16 18 -45q0 -27 -18 -45q-20 -17 -45 -17t-45 17q-18 18 -18 45q0 29 18 45q20 17 45 17zM257 735q25 0 45 -17q18 -18 18 -45t-18 -45q-20 -17 -45 -17t-45 17q-18 16 -18 45t18 45q20 17 45 17z" />
    <glyph glyph-name="macroni" horiz-adv-x="338" 
d="M296 716v-82h-253v82h253z" />
    <glyph glyph-name="Dieresisi" horiz-adv-x="396" 
d="M95 902q28 0 47 -18q20 -20 20 -49q0 -28 -20 -45q-19 -18 -47 -18q-27 0 -46 18q-20 17 -20 45q0 29 20 49q20 18 46 18zM300 902q28 0 47 -18q20 -20 20 -49q0 -28 -20 -45q-19 -18 -47 -18q-26 0 -46 18q-20 17 -20 45q0 29 20 49q20 18 46 18z" />
    <glyph glyph-name="Macroni" horiz-adv-x="403" 
d="M353 877v-86h-304v86h304z" />
    <glyph glyph-name="Acute" horiz-adv-x="159" 
d="M195 931l-84 -159h-90l88 202z" />
    <glyph glyph-name="Breve" horiz-adv-x="373" 
d="M112 917q2 -37 24 -57q23 -20 55 -20q35 0 55 20q23 18 25 57h78q-1 -34 -13 -63q-11 -28 -32 -49q-19 -20 -49 -33q-30 -11 -64 -11t-64 11q-30 13 -49 33q-20 21 -32 49q-11 30 -12 63h78z" />
    <glyph glyph-name="Caron" horiz-adv-x="347" 
d="M161 747l-136 129v10l49 50l100 -87l99 87l48 -50v-10l-136 -129h-24z" />
    <glyph glyph-name="Cedilla" horiz-adv-x="267" 
d="M162 14l-7 -70q33 -11 51 -38q20 -24 20 -63q0 -58 -40 -101q-42 -42 -122 -61l-26 63q52 14 78 39q26 26 26 54t-23 40t-61 14v23l21 39v61h83z" />
    <glyph glyph-name="Commaaccent" horiz-adv-x="223" 
d="M86 -199q-18 6 -30 21q-11 17 -11 38q0 29 19 48q20 18 47 18q28 0 47 -18q20 -17 20 -46q0 -8 -2 -16q-1 -4 -2.5 -8.5t-1.5 -5.5l-56 -138l-58 20z" />
    <glyph glyph-name="Circumflex" horiz-adv-x="347" 
d="M185 935l136 -129v-10l-48 -50l-100 87l-99 -87l-49 50v10l137 129h23z" />
    <glyph glyph-name="Dieresis" horiz-adv-x="462" 
d="M103 902q29 0 49 -19q20 -20 20 -50q0 -27 -20 -47q-21 -18 -49 -18q-27 0 -47 18q-20 20 -20 47q0 30 20 50q19 19 47 19zM358 902q29 0 48 -19q21 -19 21 -50q0 -27 -21 -47q-20 -18 -48 -18t-47 18q-20 20 -20 47q0 30 20 50q19 19 47 19z" />
    <glyph glyph-name="Dotaccent" horiz-adv-x="351" 
d="M175 910q29 0 49 -19q20 -20 20 -49t-20 -49q-20 -19 -49 -19t-48 19q-20 20 -20 49t20 49q19 19 48 19z" />
    <glyph glyph-name="Hungarumlaut" horiz-adv-x="304" 
d="M184 943l-66 -171h-84l65 204zM346 911l-84 -139h-84l86 182z" />
    <glyph glyph-name="Grave" horiz-adv-x="159" 
d="M37 974l88 -202h-90l-85 159z" />
    <glyph glyph-name="Dblgrave" horiz-adv-x="308" 
d="M269 772h-84l-66 171l84 33zM124 772h-84l-84 139l83 43z" />
    <glyph glyph-name="Macron" horiz-adv-x="475" 
d="M430 877v-84h-385v84h385z" />
    <glyph glyph-name="Ogonek" horiz-adv-x="252" 
d="M193 -203q-71 4 -108 41q-36 34 -36 85q0 42 19 71q20 31 56 45l51 -39q-23 -5 -33 -22t-10 -36q0 -29 17 -48q17 -20 57 -24z" />
    <glyph glyph-name="Ring" horiz-adv-x="299" 
d="M149 986q30 0 51 -10q26 -11 40 -27q16 -15 26 -39q9 -21 9 -45q0 -23 -9 -46q-9 -22 -26 -39q-15 -15 -40 -26q-21 -10 -51 -10t-53 10q-20 9 -40 26q-18 22 -24 39q-9 23 -9 46q0 24 9 45q10 24 26 39q14 16 40 27q21 10 51 10zM149 918q-25 0 -39 -15q-14 -16 -14 -38
t14 -38q15 -15 39 -15t39 15t15 38t-15 38t-39 15z" />
    <glyph glyph-name="Tilde" horiz-adv-x="422" 
d="M18 817q19 37 52 59q31 22 74 22q23 0 42 -8q15 -6 33 -17q20 -12 30 -17q16 -8 34 -8q26 0 42 10q17 9 27 27l52 -47q-16 -36 -48 -56q-29 -19 -68 -19q-25 0 -46 8q-16 6 -34 17q-19 12 -32 18q-16 8 -35 8q-26 0 -45 -11q-16 -10 -30 -29z" />
    <glyph glyph-name="tildei" horiz-adv-x="312" 
d="M2 663q17 33 40 50q23 18 55 18q25 0 39 -7q18 -8 26 -14l21 -13q10 -6 25 -6q34 0 50 24l45 -46q-15 -31 -37 -45q-20 -17 -51 -17q-24 0 -38 7q-18 7 -27 14l-22 14q-12 6 -26 6q-34 0 -54 -27z" />
    <glyph glyph-name="Tildei" horiz-adv-x="355" 
d="M-4 830q17 32 42 50q26 17 63 17q21 0 39 -7q4 -2 13.5 -7.5t13.5 -8.5q16 -12 24 -16q11 -8 29 -8q38 0 54 25l48 -50q-34 -61 -99 -61q-26 0 -41 8q-10 4 -28 16q-16 12 -24 16q-9 8 -29 8q-40 0 -61 -30z" />
    <glyph glyph-name="Acircum" horiz-adv-x="762" 
d="M440 671l281 -671h-112l-60 152h-339l-59 -152h-109l279 671h119zM244 240h271l-129 328h-12zM392 935l136 -129v-10l-48 -50l-100 87l-99 -87l-49 50v10l137 129h23z" />
    <glyph glyph-name="acircum" horiz-adv-x="623" 
d="M79 463q55 34 102 45q48 14 108 14q119 0 174 -54q55 -55 55 -151v-187q0 -30 11 -46q11 -13 29 -13q12 0 21 4l9 -74q-20 -10 -51 -10q-40 0 -63 19q-27 18 -34 67q-65 -89 -198 -89q-91 0 -144 44q-52 43 -52 126q0 78 61 121q62 44 167 44q44 0 80 -7q40 -8 69 -18v28
q0 54 -32 83q-31 28 -100 28q-90 0 -173 -44zM424 222q-63 22 -146 22q-72 0 -102 -24q-31 -25 -31 -64q0 -41 29 -64q30 -21 86 -21q34 0 64 9q27 10 52 27q21 17 35 41q13 22 13 52v22zM293 677l-94 -84l-47 49v10l133 127h21l133 -127v-10l-46 -49z" />
    <glyph glyph-name="Ecircum" 
d="M565 670v-89h-382v-189h336v-88h-336v-214h400v-90h-500v670h482zM347 935l136 -129v-10l-48 -50l-100 87l-99 -87l-49 50v10l137 129h23z" />
    <glyph glyph-name="ecircum" horiz-adv-x="612" 
d="M146 222q7 -70 55 -110q47 -39 125 -39q50 0 96 13q44 14 84 43l44 -69q-49 -38 -106 -56q-59 -16 -120 -16q-65 0 -116 18q-54 21 -86 54q-35 32 -55 83q-19 48 -19 111q0 56 20 107q19 48 56 85t87 56q52 20 113 20q53 0 98 -17q43 -17 76 -49q32 -32 48 -75
q18 -43 18 -97q0 -10 -2 -32q-1 -10 -5 -30h-411zM466 302q-2 62 -37 99q-36 37 -109 37q-72 0 -116 -36q-44 -38 -54 -100h316zM322 677l-94 -84l-47 49v10l133 127h21l133 -127v-10l-46 -49z" />
    <glyph glyph-name="Icircum" horiz-adv-x="269" 
d="M186 670v-670h-103v670h103zM148 935l136 -129v-10l-48 -50l-100 87l-99 -87l-49 50v10l137 129h23z" />
    <glyph glyph-name="icircum" horiz-adv-x="246" 
d="M173 510v-510h-100v510h100zM122 677l-94 -84l-47 49v10l133 127h21l133 -127v-10l-46 -49z" />
    <glyph glyph-name="Ocircum" horiz-adv-x="811" 
d="M405 684q78 0 144 -26q64 -27 111 -74q44 -44 72 -111q25 -67 25 -138q0 -69 -25 -135q-27 -64 -72 -112q-50 -49 -112 -74q-62 -28 -143 -28q-80 0 -143 27q-63 26 -112 75q-45 46 -72 110q-25 67 -25 137q0 71 26 137q26 65 73 110q44 46 110 74q65 28 143 28zM405 595
q-59 0 -105 -20q-46 -19 -79 -55t-49 -82q-17 -49 -17 -103t17 -103q18 -47 50 -82t78 -55q49 -20 105 -20q57 0 105 19q47 21 80 55q33 36 49 83q17 48 17 103q0 57 -18 105q-16 44 -49 82q-31 32 -79 54q-49 19 -105 19zM417 935l136 -129v-10l-48 -50l-100 87l-99 -87
l-49 50v10l137 129h23z" />
    <glyph glyph-name="ocircum" horiz-adv-x="650" 
d="M325 522q63 0 112 -20q48 -17 88 -54q38 -36 57 -85q20 -51 20 -108t-21 -106t-57 -85q-39 -37 -88 -56q-52 -20 -111 -20q-64 0 -113 20q-48 17 -88 54q-37 37 -56 85q-20 51 -20 108q0 55 20 106q21 49 58 85q37 37 87 56q52 20 112 20zM325 439q-38 0 -75 -13
q-36 -16 -56 -38q-25 -26 -36 -59q-13 -33 -13 -74q0 -42 13 -75q13 -34 36 -58q22 -22 57 -38q36 -13 74 -13q39 0 75 13q36 16 56 38q24 24 36 58q13 33 13 75q0 41 -13 73q-13 34 -36 58q-24 26 -57 39q-34 14 -74 14zM322 677l-94 -84l-47 49v10l133 127h21l133 -127
v-10l-46 -49z" />
    <glyph glyph-name="Rcircum" horiz-adv-x="686" 
d="M372 670q56 0 101 -16q47 -17 79 -46q32 -28 51 -70q18 -40 18 -90q0 -72 -42 -125t-111 -75l175 -248h-124l-150 224h-183v-224h-103v670h289zM186 312h175q71 0 115 36q42 36 42 100q0 67 -42 100q-41 34 -111 34h-179v-270zM355 935l136 -129v-10l-48 -50l-100 87
l-99 -87l-49 50v10l137 129h23z" />
    <glyph glyph-name="rcircum" horiz-adv-x="541" 
d="M151 510l9 -106q25 57 76 88q49 30 119 30q46 0 88 -14q41 -15 69 -40l-54 -75q-21 18 -53 31q-33 10 -68 10q-60 0 -103 -40q-43 -39 -64 -106v-288h-97v510h78zM313 677l-94 -84l-47 49v10l133 127h21l133 -127v-10l-46 -49z" />
    <glyph glyph-name="Ucircum" horiz-adv-x="754" 
d="M186 670v-364q0 -111 48 -171q50 -60 143 -60t141 56q50 54 50 173v366h103v-367q0 -73 -19 -131q-19 -59 -55 -100q-40 -43 -92 -64q-58 -22 -128 -22q-73 0 -127 22q-51 21 -92 62q-38 44 -56 99q-19 57 -19 131v370h103zM389 935l136 -129v-10l-48 -50l-100 87
l-99 -87l-49 50v10l137 129h23z" />
    <glyph glyph-name="ucircum" horiz-adv-x="634" 
d="M170 510v-283q0 -79 32 -117q31 -37 90 -37q61 0 106 39q44 38 66 108v290h97v-510h-78l-9 103q-26 -56 -74 -85q-50 -30 -116 -30q-100 0 -155 57q-56 58 -56 169v296h97zM314 677l-94 -84l-47 49v10l133 127h21l133 -127v-10l-46 -49z" />
    <glyph glyph-name="gjlogo" horiz-adv-x="1157" 
d="M223 124q0 -3 -0.5 -9.5t-0.5 -10.5q-5 -19 -6 -20l2 -1q15 21 19 41q5 24 6 47l-1 35v287q0 6 3 9l19 22q2 2 4 2q4 0 4 -5v-69q0 -9 8 -9l70 5q5 -2 8 -8q4 -4 4 -10q0 -2 -1 -3q-6 -6 -13 -6h-2l-65 2q-8 0 -8 -9v-222q0 -41 -12 -80q-11 -40 -48 -66l-43 -30
q-18 -13 -34 -16q-14 -5 -37 -5q-14 2 -25 7q-15 6 -16 22q6 17 22 24h2q2 1 4 1q14 0 28 -10q11 -10 30 -10q20 0 33 18q8 12 13 35q2 16 4 44v9q0 19 -1 27q-1 9 -1 24v224q0 6 -3 7q-4 2 -5 3q-11 4 -28 4q-30 0 -45 -18q-17 -17 -17 -47q0 -36 18 -57q13 -13 26 -18
q12 -7 35 -9l1 -5q-15 -7 -26 -8q-11 -3 -26 -3q-28 7 -48 32q-19 23 -19 55q0 23 11 38q9 18 26 32q16 12 30 20q19 8 35 8h15q5 -1 15 -1q9 0 15 8l16 20q4 0 5 -3v-344zM453 301q-13 7 -28 7q-17 0 -26 -10q-9 -9 -9 -24q0 -14 9 -23t26 -9q10 0 19 3v21l-22 2v14h40v-49
q-7 -4 -19 -7q-4 0 -10.5 -0.5t-9.5 -0.5q-24 0 -37 13q-15 14 -15 36q0 24 15 36q14 14 39 14q21 0 36 -9zM515 243h42v-17h-61v97h19v-80zM650 306h-41v-22h40v-17h-40v-24h45v-17h-64v97h60v-17zM759 256v67h18v-97h-16l-59 68v-68h-18v97h15zM841 231q0 -13 -9 -24
t-27 -12l-3 16q20 2 20 21v91h19v-92zM971 226h-21l-30 72l-30 -72h-20l43 98h15zM1072 256v67h18v-97h-16l-59 68v-68h-18v97h15z" />
    <glyph glyph-name="ffl.l" horiz-adv-x="996" 
d="M126 511v39q0 39 14 76q14 36 42 63q26 26 68 43q41 15 94 15q104 0 178 -51q31 30 74 44q40 17 97 17q71 0 125 -18t105 -51v-688h-97v639q-27 16 -60 23q-35 8 -70 8q-60 0 -98 -30q-38 -32 -38 -87v-43h165v-85h-165v-425h-97v425h-240v-425h-97v425h-83v81zM463 510
v49q0 35 12 67q-56 35 -128 35q-57 0 -91 -29q-33 -28 -33 -83v-39h240z" />
    <glyph glyph-name="ffi.l" horiz-adv-x="961" 
d="M126 511v39q0 39 14 76q14 36 42 63q26 26 68 43q41 15 94 15q50 0 94 -12q42 -12 78 -35q28 28 72 46q46 16 98 16q60 0 118 -16q55 -19 99 -52l-50 -71q-37 27 -78 39q-39 13 -85 13q-59 0 -94 -31q-38 -29 -38 -87v-47h329v-510h-99v425h-230v-425h-97v425h-238v-425
h-97v425h-83v81zM461 510v48q0 34 11 69q-53 34 -125 34q-57 0 -91 -29q-33 -28 -33 -83v-39h238z" />
    <glyph glyph-name="ffj.l" horiz-adv-x="961" 
d="M126 511v39q0 39 14 76q14 36 42 63q26 26 68 43q41 15 94 15q50 0 94 -12q42 -12 78 -35q28 28 72 46q46 16 98 16q60 0 118 -16q55 -19 99 -52l-50 -71q-37 27 -78 39q-39 13 -85 13q-59 0 -94 -31q-38 -29 -38 -87v-47h329v-546q0 -43 -11 -82q-11 -36 -35 -64
q-22 -26 -57 -42q-36 -15 -81 -15q-38 0 -75 8q-32 7 -65 26l34 77q25 -13 49 -18q22 -6 52 -6q42 0 66 28q26 27 26 88v461h-232v-425h-97v425h-238v-425h-97v425h-83v81zM461 510v48q0 34 11 69q-53 34 -125 34q-57 0 -91 -29q-33 -28 -33 -83v-39h238z" />
    <glyph glyph-name="rupiah" horiz-adv-x="665" 
d="M382 652q53 0 100 -14q42 -15 75 -41q31 -25 48 -64t17 -84q0 -94 -64 -147q-66 -54 -180 -54h-166v-71h200v-79h-201v-98h-96v97l-87 7v73h85v71h-85v84h85v320h269zM212 332h166q73 0 108 31q38 31 38 85q0 53 -36 86q-39 31 -106 31h-170v-233z" />
    <glyph glyph-name="ampersand.sc" horiz-adv-x="659" 
d="M602 326q0 -77 -22 -139q-23 -64 -64 -108l66 -65l-65 -64l-72 73q-64 -37 -148 -37q-59 0 -101 16q-45 15 -76 43q-32 30 -46 67q-17 35 -17 84q0 50 23 94q23 43 66 71q-8 15 -11 32q-3 18 -3 36q0 31 12 60q14 29 38 52q30 25 63 37q39 14 87 14q64 0 111 -22t85 -60
l-59 -62q-29 29 -62 44q-32 16 -75 16q-54 0 -80 -24q-27 -26 -27 -61q0 -49 35 -84l195 -197q54 68 54 184h93zM189 288q-17 -15 -28 -41q-10 -23 -10 -53q0 -26 11 -48q8 -19 31 -40q20 -16 47 -26q28 -9 61 -9q46 0 82 16z" />
    <glyph glyph-name="lslsi.l" horiz-adv-x="828" 
d="M73 545q0 43 15 80q13 37 42 64q26 26 66 43q40 15 90 15q87 0 154 -37q30 25 66 36q35 14 84 14q54 0 100 -13q47 -14 82 -39l-46 -73q-27 18 -60 28q-38 11 -73 11q-55 0 -87 -30q-33 -32 -33 -91v-553h-97v556q0 46 15 82q-24 11 -47 17q-25 6 -55 6q-54 0 -87 -30
q-32 -30 -32 -90v-541h-97v545zM755 510v-510h-100v510h100z" />
    <glyph glyph-name="lslsl.l" horiz-adv-x="846" 
d="M73 545q0 43 15 80q13 37 42 64q26 26 66 43q40 15 90 15q89 0 157 -38q25 22 62 36q35 13 81 13q56 0 104 -15q47 -16 83 -43v-700h-97v655q-16 6 -40 13q-28 4 -47 4q-53 0 -84 -32q-32 -30 -32 -91v-549h-97v553q0 47 15 84q-43 24 -102 24q-54 0 -87 -30
q-32 -30 -32 -90v-541h-97v545z" />
    <glyph glyph-name="idotaccent" horiz-adv-x="245" 
d="M172 510v-510h-99v510h99zM123 744q27 0 47 -18q21 -18 21 -49q0 -30 -21 -48q-20 -18 -47 -18q-29 0 -48 18q-20 18 -20 48q0 31 20 49q19 18 48 18z" />
    <glyph glyph-name="one.sup" horiz-adv-x="218" 
d="M175 747v-347h-80v233l-47 -23l-35 56l109 85z" />
    <glyph glyph-name="two.sup" horiz-adv-x="350" 
d="M316 400h-284v62l150 95q26 17 41 35t15 41t-16 37q-19 14 -52 14q-31 0 -56 -11q-23 -10 -48 -31l-41 54q64 58 149 58q63 0 104 -32q39 -32 39 -84q0 -42 -20 -70q-18 -28 -58 -52l-70 -42h147v-74z" />
    <glyph glyph-name="three.sup" horiz-adv-x="347" 
d="M191 613q38 0 38 31q0 37 -57 37q-58 0 -95 -31l-44 51q30 26 65 40q35 13 80 13q59 0 96 -28q35 -30 35 -74q0 -17 -8 -36q-8 -17 -26 -29q24 -9 37 -31q12 -21 12 -47q0 -23 -9 -44q-9 -20 -27 -37q-20 -16 -48 -24q-26 -10 -66 -10q-44 0 -82 11q-35 10 -70 39l36 57
q25 -17 58 -27q31 -7 60 -7q31 0 50 11q17 12 17 32q0 33 -44 33h-89v70h81z" />
    <glyph glyph-name="ampersand.pc" horiz-adv-x="632" 
d="M448 413q-31 28 -62 39q-34 14 -73 14q-51 0 -75 -21t-24 -52q0 -43 27 -70l195 -189q25 31 38 72q14 44 14 94h89q0 -68 -21 -127q-19 -57 -58 -99l60 -58l-61 -62l-69 66q-33 -17 -69 -26q-36 -10 -75 -10q-110 0 -172 52q-62 53 -62 144q0 49 22 91q24 41 64 63
q-14 31 -14 65q0 30 12 57q11 26 35 46q24 21 59 33q36 12 84 12q58 0 106 -18q48 -19 82 -51zM178 270q-36 -28 -36 -87q0 -25 10 -45q10 -22 29 -38q18 -16 45 -25t60 -9q23 0 42 4q21 5 38 12z" />
    <glyph glyph-name="ampersand.a7" horiz-adv-x="742" 
d="M514 514q-31 34 -66 48q-34 17 -81 17q-60 0 -88 -28t-28 -69q0 -25 8 -55q7 -27 27 -53l115 -154q43 -57 83 -94q43 39 68 104q22 65 23 139h94q0 -89 -27 -165q-29 -79 -85 -132q27 -15 54 -24q27 -10 56 -12l-9 -84q-99 7 -183 64q-36 -15 -69 -22q-40 -8 -79 -8
q-63 0 -113 18q-46 15 -82 48q-35 33 -52 75q-17 45 -17 94q0 66 28 115q28 51 76 79q-11 35 -11 70q0 36 12 69q13 32 38 56q27 26 66 40q39 15 93 15q65 0 120 -23t89 -63zM401 82q-17 16 -33 36q-11 12 -31 38l-133 182q-21 -21 -34 -50q-10 -33 -10 -61q0 -34 12 -61
q10 -29 33 -50t54 -33t73 -12q18 0 36 3q11 2 33 8z" />
    <glyph glyph-name="ampersand.a8" horiz-adv-x="707" 
d="M516 516q-62 65 -152 65q-60 0 -91 -29q-30 -30 -30 -72q0 -27 10 -50q11 -24 30 -45l234 -232q34 47 34 113q0 35 -11 65q-8 29 -30 61l78 47q28 -36 41 -79q14 -44 14 -88q0 -108 -63 -184q46 -56 46 -124q0 -76 -52 -122q-53 -49 -152 -50l-8 81q60 2 88 27
q29 26 29 64q0 15 -5 32q-4 15 -17 32q-37 -21 -77 -31q-46 -11 -93 -11q-67 0 -119 18q-49 16 -86 48q-36 35 -53 75q-18 44 -18 94q0 58 25 105q25 49 74 80q-16 35 -16 79q0 38 14 69q12 31 40 56t69 40t96 15q68 0 119 -22q55 -23 90 -62zM209 335q-23 -19 -36 -48
q-13 -27 -13 -60q0 -34 12 -61q11 -28 35 -50q22 -20 57 -33q36 -12 79 -12q62 0 105 22z" />
    <glyph glyph-name="ampersand.a9" horiz-adv-x="723" 
d="M516 513q-32 34 -67 49q-39 17 -85 17q-62 0 -91 -29q-30 -27 -30 -70q0 -51 40 -94l79 -81q7 51 46 87q39 34 104 34q34 0 62 -12q27 -11 47 -33q20 -21 29 -49q11 -28 11 -62q0 -54 -22 -102q-23 -51 -63 -90l65 -67l-68 -64l-72 76q-70 -37 -165 -37q-67 0 -118 18
q-46 15 -86 48q-36 36 -52 75q-17 45 -17 94q0 54 25 106q27 50 72 79q-14 36 -14 76q0 38 14 69q11 30 40 59q31 26 69 40q41 15 96 15q67 0 119 -21q51 -20 92 -63zM207 332q-24 -21 -35 -46q-12 -28 -12 -59q0 -34 12 -61q9 -27 34 -50q22 -21 56 -33t78 -12q55 0 97 19z
M514 146q28 26 40 55q15 31 15 66q0 33 -17 51q-15 19 -45 19q-33 0 -49 -21q-17 -22 -17 -53q0 -30 19 -59q19 -31 54 -58z" />
    <glyph glyph-name="ampersand.lc.a9" horiz-adv-x="713" 
d="M702 659q-10 -65 -30 -124q-19 -57 -45 -109q7 -25 12 -53q4 -24 4 -56q0 -74 -25 -133q-25 -60 -69 -104q-42 -43 -105 -68q-62 -24 -133 -24q-59 0 -103 19q-44 18 -78 51q-33 36 -48 76q-17 45 -17 92t17 92q19 46 50 74q28 31 74 50q42 19 93 19q63 0 101 -35t38 -92
q0 -15 -3 -30q29 26 53 56q23 29 43 64q-29 62 -85 96q-58 36 -135 36q-75 0 -137 -27q-63 -27 -109 -70l-56 65q118 121 308 121q85 0 151 -33q67 -36 107 -89q29 75 38 150zM553 320q-125 -150 -352 -203q19 -21 50 -33q30 -12 65 -12q48 0 92 18q42 16 76 50q32 32 50 78
q19 44 19 102zM162 185q104 23 148 61q46 36 46 78q0 23 -16 38q-16 14 -43 14t-57 -10q-28 -13 -46 -30q-21 -23 -30 -46q-11 -28 -11 -59q0 -23 9 -46z" />
    <glyph glyph-name="ampersand.x1" horiz-adv-x="744" 
d="M571 -54l-73 80q-71 -40 -165 -40q-65 0 -115 18q-46 15 -86 48q-36 36 -52 75q-17 45 -17 94q0 57 27 107q28 49 75 79q-16 36 -16 79q0 38 13 68q14 33 38 57q26 26 62 39q36 15 84 15q43 0 76 -13q34 -13 58 -36q24 -24 37 -56q13 -29 13 -67q0 -67 -36 -122
q-39 -58 -101 -98l116 -123q40 43 61 95q24 56 30 118l94 -17q-12 -80 -42 -150q-33 -69 -79 -115l68 -71zM213 336q-23 -20 -37 -48q-15 -30 -15 -61q0 -34 12 -61q12 -30 35 -50q20 -20 55 -33q33 -12 75 -12q54 0 96 24zM335 334q47 29 73 70t26 86t-26 68q-25 23 -67 23
q-49 0 -72 -29t-23 -71q0 -52 41 -96z" />
    <glyph glyph-name="Tcommaaccent" horiz-adv-x="689" 
d="M641 670v-90h-246v-580h-101v580h-246v90h593zM319 -199q-19 6 -29 21q-12 16 -12 38q0 29 19 48q19 18 47 18t47 -18q20 -17 20 -46q0 -8 -2 -16q-1 -3 -2.5 -8t-1.5 -6l-56 -138l-58 20z" />
    <glyph glyph-name="tcommaaccent" horiz-adv-x="462" 
d="M116 510l17 140l88 -4l-5 -136h188v-85h-185v-254q0 -50 22 -73q24 -22 67 -22q26 0 52 8q23 7 45 22l36 -73q-34 -24 -69 -34q-39 -11 -79 -11q-82 0 -127 45t-45 140v252h-84v79zM257 -197q-18 5 -28 21q-11 17 -11 38q0 30 19 46q20 17 45 17q27 0 46 -17
q20 -16 20 -46q0 -16 -6 -30l-54 -132l-56 20z" />
    </font>
</defs>
</svg>
