<?xml version="1.0" standalone="no"?>
<!DOCTYPE svg PUBLIC "-//W3C//DTD SVG 20010904//EN"
 "http://www.w3.org/TR/2001/REC-SVG-20010904/DTD/svg10.dtd">
<svg version="1.0" xmlns="http://www.w3.org/2000/svg"
 width="700.000000pt" height="700.000000pt" viewBox="0 0 700.000000 700.000000"
 preserveAspectRatio="xMidYMid meet">
<metadata>
Created by potrace 1.11, written by Peter Selinger 2001-2013
</metadata>
<g transform="translate(0.000000,700.000000) scale(0.100000,-0.100000)"
fill="#000000" stroke="none">
<path d="M4469 5886 c-2 -2 -35 -7 -74 -11 -83 -8 -204 -24 -225 -30 -8 -2
-31 -6 -50 -9 -69 -10 -267 -65 -384 -107 -240 -85 -525 -246 -733 -414 l-83
-66 217 -287 c120 -158 240 -317 268 -353 l51 -66 65 45 c284 201 612 336 894
367 33 4 71 9 85 11 34 6 295 5 350 -1 91 -10 120 -15 220 -39 42 -10 147 -59
179 -83 129 -96 184 -213 184 -393 -1 -133 -30 -214 -110 -305 -24 -27 -88
-67 -148 -92 -97 -41 -160 -45 -743 -47 l-557 -1 -1 -442 c-1 -313 2 -443 10
-444 6 0 299 -2 651 -3 693 -3 720 -5 857 -60 163 -66 257 -210 260 -397 3
-181 -46 -303 -174 -429 -90 -88 -280 -166 -453 -185 -33 -4 -73 -9 -90 -11
-37 -5 -324 -5 -385 0 -226 19 -435 60 -620 123 -156 53 -404 187 -550 298
-30 22 -69 51 -86 63 l-32 22 -223 -313 c-123 -171 -226 -314 -229 -317 -3 -3
-24 -32 -47 -64 l-41 -59 41 -35 c149 -124 383 -279 542 -359 158 -80 452
-183 590 -207 17 -3 41 -8 55 -11 41 -8 82 -15 130 -21 25 -3 72 -9 105 -14
128 -19 240 -25 495 -25 286 0 373 6 550 36 63 11 124 22 135 24 42 7 214 55
295 83 399 138 691 368 860 676 67 122 132 304 145 404 3 20 9 60 14 87 10 53
8 349 -3 400 -30 144 -30 141 -70 245 -91 237 -291 432 -549 535 -61 25 -67
30 -67 56 0 24 10 35 63 70 88 60 142 109 204 187 81 100 158 273 187 417 4
17 9 41 12 55 11 42 14 333 4 375 -5 22 -11 56 -14 75 -7 45 -38 151 -64 218
-19 50 -97 190 -112 202 -3 3 -19 23 -36 44 -58 79 -237 246 -262 246 -6 0
-12 4 -14 8 -6 14 -131 88 -220 130 -142 67 -356 136 -491 157 -18 3 -59 9
-92 15 -33 5 -80 12 -105 16 -48 6 -575 15 -581 10z"/>
<path d="M1800 4964 c-113 -96 -216 -185 -230 -197 -14 -12 -52 -44 -85 -72
-33 -27 -62 -52 -65 -55 -3 -3 -32 -27 -65 -55 -33 -27 -62 -52 -65 -55 -3 -3
-32 -27 -65 -55 -33 -27 -71 -60 -85 -72 -14 -11 -77 -65 -140 -118 -138 -117
-208 -176 -270 -230 -25 -22 -68 -58 -95 -80 -45 -37 -100 -84 -262 -223 l-63
-54 0 -138 0 -138 52 -43 c28 -24 56 -49 62 -54 6 -6 42 -37 81 -70 38 -33 75
-64 81 -70 14 -13 96 -84 259 -225 72 -62 132 -116 135 -119 3 -3 32 -28 65
-56 33 -27 62 -52 65 -55 3 -3 73 -64 155 -135 83 -71 164 -141 180 -156 40
-36 184 -160 270 -234 39 -33 72 -62 75 -65 3 -3 34 -30 69 -60 36 -30 83 -72
105 -92 23 -21 46 -38 51 -37 6 0 62 61 125 136 134 158 135 159 318 371 l140
163 -41 37 c-23 20 -47 42 -53 47 -6 6 -39 35 -74 65 -35 30 -105 90 -154 134
-50 43 -120 104 -156 135 -35 31 -103 90 -150 131 -47 41 -135 118 -195 170
-61 52 -123 106 -140 121 -16 15 -46 41 -65 58 -23 20 -31 33 -24 38 6 5 49
42 95 84 83 75 517 461 573 509 16 14 36 32 45 41 9 9 41 38 72 65 65 58 200
178 240 214 l27 25 -124 139 c-68 76 -154 171 -190 211 -36 40 -73 82 -82 93
-27 31 -155 173 -170 188 -7 8 -16 14 -20 13 -4 0 -99 -79 -212 -175z"/>
</g>
</svg>
